<svg version="1.1" xmlns="http://www.w3.org/2000/svg" xmlns:xlink="http://www.w3.org/1999/xlink" width="607.30466" height="547.53907" viewBox="0,0,607.30466,547.53907"><g transform="translate(44.58185,178.03978)"><g data-paper-data="{&quot;isPaintingLayer&quot;:true}" fill-rule="nonzero" stroke-linecap="butt" stroke-linejoin="miter" stroke-miterlimit="10" stroke-dasharray="" stroke-dashoffset="0" style="mix-blend-mode: normal"><path d="M221.9152,-107.23076v0v0v0v0v0v0v0v0v0v0v0l-27.41769,21.60344c0,0 -1.84437,-46.41947 -7.06844,-49.39866c-5.22444,-2.97832 -48.43375,16.61949 -53.94849,-5.55347c-5.50115,-22.16711 52.0334,-44.39193 74.12196,-33.39685c22.0919,10.98868 14.31266,66.74557 14.31266,66.74557z" fill="#efff00" stroke="#0084ff" stroke-width="2.32134"/><path d="M150.39328,-36.86478v0v0v0v0v0v0v0v0v0v0v0l-28.2405,42.78484c0,0 -13.86889,-52.01154 -22.08384,-55.57236c-8.21495,-3.5608 -50.7445,72.01827 -73.76666,49.69384c-23.02159,-22.32417 67.43784,-107.32647 89.75265,-105.44079c22.31705,1.8788 34.33833,68.53443 34.33833,68.53443z" fill="#efff00" stroke="#0084ff" stroke-width="2.32134"/><path d="M111.27758,85.48913v0v0v0v0v0v0v0v0v0v0v0l6.35057,50.63679l-11.70815,34.65814c0,0 -32.03673,-67.76554 -43.87357,-71.94685c-11.83719,-4.18047 -89.55665,75.13856 -104.12058,41.28587c-14.56484,-33.85212 93.24723,-103.36445 117.83907,-98.96508c24.5976,4.38716 35.51268,44.33114 35.51268,44.33114z" fill="#efff00" stroke="#0084ff" stroke-width="2.32134"/><path d="M469.52658,0.09755c0,0 34.0067,-44.38849 57.09644,-35.79297c23.08346,8.58495 47.29746,66.24408 27.8163,77.58246c-19.49477,11.33251 -35.61899,-33.98373 -41.3478,-35.75315c-5.72921,-1.76857 -39.82151,29.07398 -39.82151,29.07398l-3.7434,-35.11036v0v0v0v0v0v0v0v0v0v0v0z" fill="#efff00" stroke="#0084ff" stroke-width="2.32134"/><path d="M469.41778,101.41789c0,0 55.43492,-37.41643 72.25269,-22.33206c16.81149,15.0738 19.49271,140.44838 -12.25369,139.03306c-31.74583,-1.41502 -7.83751,-85.06555 -16.05246,-88.62637c-8.21551,-3.56105 -54.59126,22.33717 -54.59126,22.33717l10.64474,-50.41181v0v0v0v0v0v0v0v0v0z" fill="#efff00" stroke="#0084ff" stroke-width="2.32134"/><path d="M409.32139,216.84248c0,0 35.79992,-19.69514 55.96234,-4.67989c20.164,15.00023 45.8327,142.36943 11.80717,155.15983c-34.02588,12.79121 -31.88587,-99.28809 -43.05121,-105.07718c-11.1659,-5.78934 -81.27771,17.69846 -81.27771,17.69846l16.37054,-32.63721l40.18889,-30.46404v0v0v0v0v0v0v0v0v0v0v0z" fill="#efff00" stroke="#0084ff" stroke-width="2.32134"/><g stroke="none" stroke-width="0.77378"><g><path d="M291.93398,79.83947l79.93238,-205.69444l6.86785,3.24295c6.77891,3.19655 13.55691,7.21255 20.14086,11.94362c11.59801,8.32415 22.2198,18.73958 31.58413,30.94273c17.1718,22.39426 29.90035,50.62682 36.81821,81.65132c4.59488,20.61965 6.55189,42.01832 5.83195,63.6086c-1.03959,31.02441 -7.46044,60.8709 -19.0811,88.72174c-1.48167,3.55108 -3.16825,7.29515 -5.16479,11.43602c-8.78379,18.26184 -19.6754,34.90415 -32.389,49.46466c-11.21974,12.85361 -23.8772,24.15622 -37.6286,33.60325c-4.45182,3.30439 -11.33891,7.52075 -20.29634,12.39786c-0.33943,0.86315 -0.68617,1.73102 -1.04314,2.58658c-2.72988,6.54261 -5.95382,12.81908 -9.59532,18.67002l-1.95706,3.14079l-2.76332,1.27837c-3.62631,1.67208 -7.57873,3.33238 -12.09239,5.06067c-29.19179,11.22444 -59.72916,14.76218 -88.29974,10.22578c-10.96353,-1.73604 -21.74224,-4.64577 -32.03888,-8.66118l-6.84632,-2.6632l88.02058,-210.95617v0v0v0v0v0v0v0v0v0v0v0z" fill="#a6479a"/><path d="M374.56594,-113.03064l-76.06872,195.71497l-83.88915,201.0545c10.14772,3.95087 20.52369,6.72333 31.01165,8.38285c28.32775,4.49986 57.47313,0.81432 85.19069,-9.84149c3.9009,-1.50003 7.78593,-3.09825 11.6236,-4.86819c3.19448,-5.12575 6.03827,-10.64013 8.49164,-16.52009c0.95298,-2.28399 1.80071,-4.57528 2.60423,-6.88573c7.2639,-3.85667 17.07569,-9.34235 23.25701,-13.92648c12.77739,-8.77449 24.74425,-19.35144 35.52969,-31.70895c11.65372,-13.34885 21.9002,-28.80395 30.29916,-46.26846c1.68376,-3.50181 3.30982,-7.05115 4.83453,-10.70537c11.28239,-27.04017 17.01209,-55.59083 17.95476,-83.67941c0.69668,-20.80216 -1.24817,-41.3374 -5.58661,-60.81207c-6.61586,-29.6634 -18.74875,-56.83165 -35.4791,-78.64776c-8.89278,-11.59624 -19.0759,-21.66244 -30.41335,-29.80496c-6.13428,-4.40657 -12.57713,-8.28514 -19.36,-11.48341M374.56594,-113.03064v0v0v0v0v0v0v0v0v0v0v0l-5.39973,-25.64883v0l13.73105,6.49866c7.05245,3.32296 14.09324,7.4912 20.92844,12.39889c12.02164,8.63736 23.03522,19.42781 32.73878,32.08238c17.79219,23.2022 30.99221,52.4746 38.16582,84.65856c4.78723,21.48553 6.83069,43.81805 6.07436,66.3881c-1.09848,32.71511 -7.90075,64.25781 -20.21384,93.76821c-1.58367,3.79555 -3.38072,7.78035 -5.4939,12.17505c-9.34694,19.43844 -20.95066,37.15447 -34.47249,52.64885c-11.78921,13.51004 -25.06492,25.38902 -39.45822,35.30887c-4.37859,3.21539 -10.36519,6.94824 -17.85682,11.13918c-2.87661,6.64593 -6.21673,13.03893 -9.9415,19.02855l-3.91503,6.29498l-5.51725,2.54704c-3.7866,1.74693 -7.8943,3.46857 -12.56547,5.26505c-30.249,11.62528 -61.84999,15.294 -91.40241,10.60593c-11.32024,-1.79938 -22.44158,-4.80458 -33.06702,-8.93898l-13.69346,-5.33563l8.26528,-19.80914l83.74692,-200.7136l75.92129,-195.36164l8.02547,-20.64943z" fill="#0084ff"/></g><path d="M372.91752,-25.56637c4.21903,1.82875 6.93399,6.13562 7.91767,11.6144c0.98367,5.47878 0.23018,12.13388 -2.49173,18.65737c-2.72191,6.52349 -6.90225,11.69319 -11.45638,14.7716c-4.55378,3.07757 -9.48069,4.07203 -13.69973,2.24326c-4.21959,-1.829 -6.93399,-6.13562 -7.91802,-11.61359c-0.98423,-5.47903 -0.23018,-12.13388 2.49173,-18.65737c2.72191,-6.52349 6.90168,-11.69344 11.45638,-14.7716c4.55413,-3.07841 9.48049,-4.0731 13.70007,-2.2441v0v0v0v0v0v0v0v0z" fill="#ff0000"/><path d="M397.35615,95.17748c4.21959,1.829 6.93399,6.13562 7.91802,11.61359c0.98423,5.47903 0.23018,12.13388 -2.49173,18.65737c-2.72191,6.52349 -6.90168,11.69344 -11.45638,14.7716c-4.55413,3.07841 -9.48049,4.0731 -13.70007,2.2441c-4.21903,-1.82875 -6.93399,-6.13562 -7.91767,-11.6144c-0.98367,-5.47878 -0.23018,-12.13388 2.49173,-18.65737c2.72191,-6.52349 6.90225,-11.69319 11.45638,-14.7716c4.55378,-3.07757 9.48069,-4.07203 13.69973,-2.24326v0v0v0v0v0v0v0v0z" fill="#ff0000"/><path d="M386.52065,-39.44479v0v0v0v0v0v0v0v0v0v0v0c-11.79469,-5.11246 -15.18825,-24.04891 -7.58073,-42.28164c3.59716,-8.62124 9.02881,-15.45174 14.98601,-19.82081c11.33536,8.13468 21.52299,18.20288 30.41335,29.80496c-0.6625,2.82816 -1.49105,5.68247 -2.68028,8.53268c-7.60753,18.23273 -23.34365,28.87733 -35.13835,23.76485z" fill="#ff0000"/><path d="M403.69482,34.52722v0v0v0v0v0v0v0v0v0v0v0c10.30549,-24.69883 33.04388,-38.48489 50.78402,-30.79533c1.92804,0.83571 3.68907,1.93384 5.33712,3.17937c4.33811,19.47549 6.28294,40.01073 5.58627,60.81288c-11.16554,21.27946 -31.82858,32.56114 -48.24149,25.44688c-17.7447,-7.69152 -23.77105,-33.94579 -13.46591,-58.6438z" fill="#ff0000"/><path d="M319.70763,181.12117v0v0v0v0v0v0v0v0v0v0v0c25.8107,11.18778 34.5844,49.38279 19.59486,85.30775c-2.38921,5.72616 -5.28023,11.00601 -8.48581,15.86185c-27.71777,10.65474 -56.86316,14.34029 -85.19069,9.84149c-9.17026,-17.29322 -9.79729,-42.23999 0.2102,-66.22461c14.98677,-35.91833 48.05619,-55.97623 73.87146,-44.78649z" fill="#f4eb43"/><path d="M428.7377,139.32817v0v0v0v0v0v0v0v0v0v0v0c8.17134,3.54191 13.0383,12.27581 13.88257,22.77607c-8.39896,17.46454 -18.64544,32.91962 -30.29971,46.26821c-4.06899,0.75072 -8.13024,0.42673 -11.88947,-1.20272c-13.46394,-5.83601 -18.03128,-25.75254 -10.217,-44.48079c7.81948,-18.74072 25.05966,-29.19683 38.52362,-23.36082z" fill="#ff0000"/><path d="M355.46756,43.50936c6.72576,2.91532 11.22916,9.35718 13.08035,17.40733c1.85117,8.05016 1.04279,17.71331 -2.86278,27.07366c-3.90593,9.36122 -10.1736,16.657 -17.14664,20.88226c-6.97304,4.22526 -14.64934,5.38776 -21.3751,2.47246c-6.72517,-2.91505 -11.22916,-9.35718 -13.08035,-17.40733c-1.85117,-8.05016 -1.04258,-17.71224 2.86333,-27.07341c3.90558,-9.36039 10.17302,-16.65725 17.14607,-20.88251c6.97304,-4.22526 14.64992,-5.38753 21.3751,-2.47246v0v0v0v0v0v0v0v0z" fill="#ff0000"/></g><g stroke="none" stroke-width="0.77378"><g><path d="M193.06556,285.27278c-40.00575,-21.67045 -69.78017,-60.69559 -83.84959,-109.86921l-0.94739,-3.29815l1.26138,-3.89009c1.2355,-3.81687 2.46905,-7.19469 3.77103,-10.3151c0.51274,-1.22887 1.06052,-2.48085 1.6622,-3.78505c-0.69412,-2.83788 -1.39336,-5.79972 -2.07851,-8.73286l-1.35451,1.91946l-2.45095,-15.46657c-0.60232,-3.50502 -1.08859,-7.05099 -1.50623,-10.61242c-2.915,-24.64739 -1.30568,-49.93164 4.78284,-75.1741c2.93595,-12.1822 6.75644,-23.94268 11.3548,-34.96346c17.64138,-42.28054 46.66538,-78.84567 83.92115,-105.72701c36.22381,-26.14359 77.17795,-40.39899 115.31654,-40.155c17.33175,0.11258 33.69964,3.18091 48.65058,9.09886l7.05553,2.79318l-90.06413,201.70529l-88.85449,210.07827l-6.67025,-3.60603v0v0v0v0v0v0v0v0v0z" fill="#a6479a"/><path d="M367.71664,-115.98478c-14.76413,-5.84486 -30.57315,-8.6405 -46.80973,-8.74965c-37.17123,-0.24199 -76.60614,13.78243 -111.03724,38.62948c-33.52518,24.19015 -62.30008,58.60706 -79.58726,100.0387c-4.55571,10.91851 -7.99678,21.8322 -10.61182,32.68762c-5.83242,24.18318 -7.14416,48.02352 -4.47168,70.62081l0.00176,0.0086c0.40034,3.38013 0.85871,6.74616 1.43168,10.07152c0.18697,-0.26063 0.40154,-0.50242 0.58795,-0.76327c0.6727,3.0495 1.48164,6.66665 2.33492,10.38745c1.24178,5.43066 2.58819,11.15702 3.86253,16.16189c-1.25322,2.49552 -2.45499,5.02805 -3.54223,7.63379c-1.26971,3.04309 -2.3502,6.09259 -3.33904,9.14354c13.14139,45.93001 41.04145,84.3017 80.94486,105.92096l7.90878,-18.69515l56.27236,-133.04255l20.5011,-48.46449l10.56184,-23.65304l26.17208,-58.60893l48.81914,-109.32725M367.71664,-115.98478v0v0v0v0v0v0v0v0v0v0v0l21.87075,-13.82833v0l-9.03372,20.21336l-48.81427,109.32839l-26.17243,58.60978l-10.43839,23.3796l-20.38106,48.18959l-56.27213,133.04363l-7.90902,18.69407l-8.59157,20.30586l-13.32205,-7.21777c-41.3627,-22.41182 -72.17584,-62.82872 -86.76029,-113.80633l-1.88481,-6.60577l2.51731,-7.78152c0.92691,-2.86572 1.8569,-5.51605 2.82014,-8.02333l-3.81257,-22.1725c-0.54474,-3.14623 -1.01801,-6.45095 -1.48886,-10.33193l-0.00505,-0.02476l-0.09434,-0.81554c-3.07832,-26.07801 -1.36456,-52.88981 5.09801,-79.68739c3.12257,-12.95157 7.19342,-25.48519 12.10055,-37.24596c18.64535,-44.68673 49.15973,-83.2116 88.25387,-111.42367c37.59283,-27.1299 80.06487,-41.93504 119.5883,-41.6769c17.97631,0.11903 34.96309,3.30344 50.49281,9.45757l14.10955,5.59156z" fill="#0084ff"/></g><path d="M308.39219,-16.9547v0v0v0v0v0v0v0v0v0v0v0c4.59161,1.99026 8.1164,5.6447 10.5053,10.29717l-26.17208,58.60893c-4.31631,0.93316 -8.64447,0.66725 -12.63983,-1.06455c-13.46452,-5.83625 -18.03184,-25.75277 -10.21755,-44.48104c7.81948,-18.74072 25.05966,-29.19683 38.52418,-23.36057z" fill="#ff0000"/><path d="M242.42658,46.70355c4.21959,1.829 6.93399,6.13562 7.91822,11.61465c0.98402,5.47797 0.22995,12.13282 -2.49228,18.65712c-2.72191,6.52349 -6.90168,11.69344 -11.45546,14.77103c-4.55468,3.07816 -9.48104,4.07286 -13.70063,2.24385c-4.21903,-1.82875 -6.93399,-6.13562 -7.91767,-11.6144c-0.98402,-5.47797 -0.23051,-12.13305 2.49138,-18.65654c2.72224,-6.52432 6.9026,-11.69402 11.45638,-14.7716c4.55413,-3.07841 9.48104,-4.07286 13.70007,-2.2441v0v0v0v0v0v0v0v0z" fill="#ff0000"/><path d="M164.83789,139.53407c4.21959,1.829 6.93399,6.13562 7.91857,11.61382c0.98367,5.47878 0.2296,12.13363 -2.49228,18.65712c-2.72191,6.52349 -6.90168,11.69344 -11.4558,14.77185c-4.55468,3.07816 -9.48104,4.07286 -13.70063,2.24385c-4.21903,-1.82875 -6.93344,-6.13537 -7.91767,-11.6144c-0.98367,-5.47878 -0.23018,-12.13388 2.49173,-18.65737c2.72191,-6.52349 6.90225,-11.69319 11.45638,-14.7716c4.55434,-3.07734 9.48069,-4.07203 13.69973,-2.24326v0v0v0v0v0v0v0v0z" fill="#f4eb43"/><path d="M204.13947,-22.07667c6.72517,2.91505 11.22916,9.35718 13.08035,17.40733c1.85117,8.05016 1.04314,17.71249 -2.86278,27.07366c-3.90558,9.36039 -10.1736,16.657 -17.14664,20.88226c-6.97304,4.22526 -14.64992,5.38753 -21.3751,2.47246c-6.72576,-2.91532 -11.22916,-9.35718 -13.08035,-17.40733c-1.85117,-8.05016 -1.04279,-17.71331 2.86278,-27.07366c3.90593,-9.36122 10.1736,-16.657 17.14664,-20.88226c6.97304,-4.22526 14.64934,-5.38776 21.3751,-2.47246v0v0v0v0v0v0v0z" fill="#ff0000"/><g fill="#ff0000"><path d="M148.09976,96.69395v0v0v0v0v0v0v0v0v0v0v0c-4.66174,18.37754 -15.96477,33.52684 -28.53851,40.262c-0.85363,-3.71999 -1.66203,-7.33685 -2.33526,-10.38662c-0.18641,0.26088 -0.40098,0.50267 -0.58739,0.76352c-0.57352,-3.32561 -1.03099,-6.69222 -1.43227,-10.07177l-0.00118,-0.00837c-2.67302,-22.59756 -1.36038,-46.43849 4.47147,-70.62188c2.59492,-0.57668 5.201,-0.78433 7.76449,-0.51652c18.03713,1.83214 27.28188,24.48992 20.65866,50.57962z"/></g><g fill="#ff0000"><path d="M237.56571,-34.77043v0v0v0v0v0v0v0v0v0v0v0c-17.75772,-7.69716 -27.63682,-27.80419 -27.69153,-51.33257c34.43114,-24.84704 73.86604,-38.87143 111.03724,-38.62948c1.24328,13.67363 -0.95136,28.88989 -7.15735,43.7636c-15.46204,37.0574 -49.57076,57.73599 -76.18836,46.19845z"/></g><g fill="#f4eb43"><path d="M190.61215,172.07625v0v0v0v0v0v0v0v0v0v0v0c14.482,-34.70858 45.32477,-55.04831 71.05152,-47.99893l-56.27179,133.04279c-22.33803,-14.2784 -29.13304,-50.64374 -14.77974,-85.04386z"/></g></g><path d="M225.17095,78.88836v0v0v0v0v0v0v0v0v0v0v0l-31.31144,3.34654c0,0 -7.74142,-34.48008 3.20539,-76.05522c10.94644,-41.57431 37.78918,-65.76759 52.79118,-61.9688c15.00292,3.79817 7.70594,31.67734 -6.68782,61.52392c-14.39411,29.8474 -17.99733,73.15356 -17.99733,73.15356z" fill="#efff00" stroke="#0084ff" stroke-width="2.32134"/><path d="M335.74089,126.81542c0,0 28.10422,-32.68604 39.21191,-63.958c11.10733,-31.27109 25.74781,-55.96719 38.83865,-47.58799c13.09119,8.37837 14.61461,44.8671 -7.17185,81.74273c-21.78682,36.87648 -51.51699,55.10744 -51.51699,55.10744l-19.36173,-25.30417v0v0v0v0v0v0v0v0v0z" fill="#efff00" stroke="#0084ff" stroke-width="2.32134"/><g stroke="none"><path d="M187.10603,326.563c-69.60339,-30.16991 -101.33143,-102.67833 -73.80053,-168.66079c28.70139,-68.78774 106.82012,-101.0138 174.14494,-71.83156c67.32485,29.18226 98.75342,108.88424 70.04925,177.67866c-27.53091,65.98246 -100.78123,92.98751 -170.39366,62.81367v0v0v0v0v0v0v0v0v0v0z" fill="#74bf44" stroke-width="0.77378"/><path d="M283.4238,95.72122c-62.97842,-27.2983 -137.36862,2.28968 -163.54656,65.02954c-26.17274,62.72736 8.27704,128.8634 71.25544,156.16168c62.97899,27.29853 133.62475,6.70881 159.79471,-56.0119c26.17794,-62.73983 -4.52461,-137.88078 -67.50361,-165.17931M283.4238,95.72122v0v0v0v0v0v0v0v0v0v0v0l8.0533,-19.30112v0c70.94875,30.75307 103.51841,116.06295 72.59431,190.17776c-29.82611,71.48331 -107.63792,101.41141 -180.99206,69.61571c-73.34903,-31.79348 -106.17226,-109.67685 -76.34615,-181.16016c30.9241,-74.11482 113.80025,-109.38417 184.7439,-78.6333z" fill="#0084ff" stroke-width="0.77378"/><path d="M283.49565,95.549c62.97899,27.29853 93.72502,102.66712 67.5471,165.40694c-26.16995,62.72072 -97.00294,83.42726 -159.98192,56.12872c-62.9784,-27.29828 -97.47548,-93.65277 -71.30274,-156.38015c26.17794,-62.73986 100.75915,-92.45383 163.73758,-65.15553" data-paper-data="{&quot;noHover&quot;:false,&quot;origItem&quot;:[&quot;Path&quot;,{&quot;applyMatrix&quot;:true,&quot;segments&quot;:[[[239.99647,178.47314],[0,0],[-26.84723,0]],[[190.75093,211.88934],[0,-18.21445],[0,18.21082]],[[239.99647,242.68871],[-26.84722,0],[26.84747,0]],[[289.24588,211.88934],[0,18.20889],[0,-18.21444]],[[239.99647,178.47314],[26.84747,0],[0,0]]],&quot;fillColor&quot;:[0,0,0,1],&quot;strokeWidth&quot;:0.77378}]}" fill="#efff00" stroke-width="0.38689"/></g><g stroke="none"><path d="M225.87957,117.42445v0v0v0v0v0v0v0v0v0v0v0c12.34032,8.85111 12.2124,34.70181 1.8293,53.82075c-10.37751,19.10562 -30.57434,30.68168 -42.90458,21.81923c-12.33359,-8.85604 -12.13886,-34.82999 -1.77711,-53.9346c10.3803,-19.11231 30.53132,-30.57859 42.85239,-21.7054z" fill="#ffffff" stroke-width="0.77378"/><path d="M211.13789,140.93677c2.84363,1.23259 4.6686,4.15022 5.3186,7.87423c0.6492,3.71479 0.12831,8.23709 -1.72386,12.67614c-1.85253,4.43991 -4.68703,7.95933 -7.76256,10.05965c-3.08224,2.10523 -6.41038,2.79025 -9.25401,1.55766c-2.84308,-1.23235 -4.66769,-4.1508 -5.3186,-7.87423c-0.64861,-3.71454 -0.12775,-8.23686 1.72478,-12.67676c1.85218,-4.43908 4.68668,-7.9585 7.76164,-10.05905c3.08317,-2.10584 6.41095,-2.79 9.25401,-1.55766v0v0v0v0v0v0v0v0z" fill="#231f20" stroke-width="0.77378"/><path d="M234.27675,100.46087v0v0v0v0v0v0v0v0v0v0v0c18.86077,13.54681 20.92561,48.84855 4.63593,78.83847c-16.29125,30.00492 -44.77568,43.32879 -63.62888,29.78626c-18.84775,-13.54115 -20.92526,-48.84937 -4.63888,-78.85544c16.27698,-29.99639 44.77897,-43.31264 63.63182,-29.76929zM227.71163,171.23857v0v0v0v0v0v0v0v0v0v0v0c10.3803,-19.11231 10.50822,-44.96301 -1.8293,-53.82075c-12.31711,-8.87147 -32.47486,2.59974 -42.85239,21.7054c-10.36206,19.10544 -10.56097,45.07661 1.77711,53.9346c12.32628,8.86072 32.52705,-2.71358 42.90458,-21.81923z" fill="#231f20" stroke-width="0.77378"/><path d="M184.71863,193.22061c-12.33808,-8.85799 -12.156,-35.06797 -1.79392,-54.17341c10.37753,-19.10566 30.72894,-30.66371 43.04604,-21.79224c12.33752,8.85774 12.22674,34.94676 1.84639,54.05908v0v0v0v0v0v0v0v0v0v0v0c-10.37753,19.10566 -30.77225,30.76729 -43.09853,21.90657z" data-paper-data="{&quot;noHover&quot;:false,&quot;origItem&quot;:[&quot;Path&quot;,{&quot;applyMatrix&quot;:true,&quot;segments&quot;:[[[462.51834,405.95262],[-1.73698,11.60614],[0,0]],[462.51834,405.95262],[462.51834,405.95262],[462.51834,405.95262],[462.51834,405.95262],[462.51834,405.95262],[462.51834,405.95262],[462.51834,405.95262],[462.51834,405.95262],[462.51834,405.95262],[462.51834,405.95262],[[462.51834,405.95262],[0,0],[1.73698,-11.61]],[[444.98388,379.87854],[11.57618,1.72588],[-11.56558,-1.73698]],[[420.58306,399.68442],[1.73698,-11.60614],[-1.72588,11.60274]],[[438.11414,425.8256],[-11.57666,-1.72588],[11.56896,1.72974]]],&quot;closed&quot;:true,&quot;fillColor&quot;:[0,0,0,1],&quot;strokeWidth&quot;:0.77378}]}" fill="#000000" stroke-width="0.38689"/></g><g stroke="none"><path d="M317.35036,157.0729v0v0v0v0v0v0v0v0v0v0v0c12.34032,8.85111 12.2124,34.70181 1.8293,53.82075c-10.37751,19.10562 -30.57376,30.68192 -42.90458,21.81923c-12.33359,-8.85604 -12.13826,-34.82974 -1.77711,-53.9346c10.38086,-19.11206 30.53132,-30.57859 42.85239,-21.7054z" fill="#ffffff" stroke-width="0.77378"/><path d="M302.60928,180.58548c2.84363,1.23259 4.66802,4.14998 5.3186,7.87423c0.64861,3.71454 0.12775,8.23686 -1.72441,12.67591c-1.85253,4.43991 -4.68703,7.95933 -7.76201,10.0599c-3.08283,2.10499 -6.41038,2.79025 -9.25401,1.55766c-2.84363,-1.23259 -4.66825,-4.15105 -5.3186,-7.87423c-0.6492,-3.71479 -0.12831,-8.23709 1.72422,-12.67701c1.85218,-4.43908 4.68668,-7.9585 7.7622,-10.0588c3.0826,-2.1061 6.41038,-2.79025 9.25401,-1.55766v0v0v0v0v0v0v0z" fill="#231f20" stroke-width="0.77378"/><path d="M325.7476,140.10934v0v0v0v0v0v0v0v0v0v0v0c18.86136,13.54706 20.92618,48.84878 4.63593,78.83847c-16.29125,30.00492 -44.77568,43.32879 -63.6283,29.78651c-18.84831,-13.5414 -20.92583,-48.84961 -4.63943,-78.85567c16.27698,-29.99639 44.77954,-43.3124 63.63182,-29.76929zM319.18246,210.88702v0v0v0v0v0v0v0v0v0v0v0c10.3803,-19.11231 10.50822,-44.96301 -1.8293,-53.82075c-12.31655,-8.87122 -32.4743,2.59999 -42.85239,21.7054c-10.3615,19.10569 -10.56097,45.07661 1.77711,53.9346c12.32628,8.86072 32.52705,-2.71358 42.90458,-21.81923z" fill="#231f20" stroke-width="0.77378"/><path d="M276.18946,232.86907c-12.33808,-8.85799 -12.15542,-35.06772 -1.79392,-54.17341c10.37809,-19.10541 30.72951,-30.66348 43.04604,-21.79224c12.33752,8.85774 12.22674,34.94676 1.84639,54.05908v0v0v0v0v0v0v0v0v0v0v0c-10.37753,19.10566 -30.77225,30.76729 -43.09853,21.90657z" data-paper-data="{&quot;noHover&quot;:false,&quot;origItem&quot;:[&quot;Path&quot;,{&quot;applyMatrix&quot;:true,&quot;segments&quot;:[[[540.505,405.95262],[-1.73698,11.60614],[0,0]],[540.505,405.95262],[540.505,405.95262],[540.505,405.95262],[540.505,405.95262],[540.505,405.95262],[540.505,405.95262],[540.505,405.95262],[540.505,405.95262],[540.505,405.95262],[540.505,405.95262],[[540.505,405.95262],[0,0],[1.73698,-11.61]],[[522.97054,379.87854],[11.57618,1.72588],[-11.5651,-1.73698]],[[498.56972,399.68442],[1.73746,-11.60614],[-1.7254,11.60274]],[[516.1008,425.8256],[-11.57666,-1.72588],[11.56896,1.72974]]],&quot;closed&quot;:true,&quot;fillColor&quot;:[0,0,0,1],&quot;strokeWidth&quot;:0.77378}]}" fill="#000000" stroke-width="0.38689"/></g><path d="M220.52346,244.73383c11.59765,5.02706 20.93171,12.38461 26.6711,20.17026c5.71358,7.84906 7.82283,16.12204 4.9625,22.97726c-2.86032,6.85522 -10.16982,11.0456 -19.67972,12.295c-9.48365,1.18813 -21.15803,-0.56052 -32.75566,-5.58758c-11.59821,-5.02729 -20.93229,-12.38486 -26.67133,-20.17133c-5.71393,-7.84825 -7.82317,-16.1212 -4.96285,-22.97644c2.86032,-6.85522 10.16982,-11.0456 19.68006,-12.29584c9.4833,-1.18729 21.15768,0.56136 32.75589,5.58865v0v0v0v0v0z" fill="#231f20" stroke="none" stroke-width="48.10735"/><path d="M205.15076,173.23642c-6.6998,0.31157 -5.14568,-8.66166 -5.14568,-8.66166l1.96582,-11.35033c0,0 1.55412,-8.97323 8.25389,-9.2848c6.6998,-0.31157 5.14568,8.66166 5.14568,8.66166l-1.96582,11.35033c0,0 -1.55412,8.97323 -8.25389,9.2848z" fill="#ff0000" stroke="none" stroke-width="0.5"/><path d="M297.45175,210.7882c-6.68746,4.29161 -8.29368,-3.59492 -8.29368,-3.59492l-1.8172,-8.92263c0,0 -1.60618,-7.88652 5.08129,-12.17817c6.68746,-4.29161 8.29368,3.59492 8.29368,3.59492l1.8172,8.92263c0,0 1.60618,7.88652 -5.08129,12.17817z" fill="#ff0000" stroke="none" stroke-width="0.5"/><path d="M204.56687,249.26186c-0.06216,-0.02694 -0.12679,-0.05662 -0.19369,-0.08883c-0.842,1.59031 -1.65383,3.45475 -2.62461,4.60098c-3.19568,3.77327 -6.23618,7.19693 -10.61895,5.93177c-1.87942,-0.54252 -2.6966,-4.32313 -3.26753,-8.18429c-1.69944,3.55562 -3.88599,5.92182 -7.83076,4.36785c-1.98468,-0.78184 -3.36168,-4.51808 -5.71212,-5.50227l-1.46495,-2.84318c0,0 -0.54869,-2.6941 1.47922,-4.45772c0.30288,-1.5476 0.57801,-3.12103 1.55795,-4.03801c4.65273,-4.35378 7.72543,-1.00467 10.95499,1.11855c0.26594,-0.51295 0.65923,-1.02959 1.23122,-1.5095c2.55725,-2.14553 3.57157,0.73461 3.57157,0.73461c0.08029,0.23345 0.20423,0.91345 0.35596,1.8519c1.67757,-0.79392 3.3614,-2.83153 5.04576,-3.06498c2.31708,-0.32116 5.28952,1.405 7.80567,2.83373c1.20306,-1.25358 2.47793,-2.05541 3.86688,-1.97677c3.78761,0.2144 4.75747,2.44539 4.749,5.30627c3.31186,0.8399 6.59195,1.46873 9.93513,2.91783c0.71171,0.3085 1.39666,0.63715 2.06181,0.98225c1.46276,-0.9068 2.96851,-1.99924 4.06492,-1.32468c1.30506,0.8029 1.65113,2.65056 1.61687,4.80111c1.32794,0.89412 2.66288,1.81312 4.07746,2.71874c1.10613,0.70818 2.27168,1.24678 3.4486,1.71738l1.27222,-1.43112c0.86226,-1.00207 2.00673,-1.45741 2.94321,-1.0515c1.00691,0.43645 1.47697,1.74024 1.2638,3.19263l-0.17286,1.33442c3.01167,1.36936 5.5587,3.39304 6.65565,8.15706l0.05054,1.11915c0.80755,-0.13111 1.80358,0.10876 2.16311,1.8741c0.64249,3.15464 -2.03252,4.87126 -2.03252,4.87126l-0.94575,0.60692c-3.85717,2.4753 -7.60958,4.27352 -11.43376,6.2173l-1.88904,2.12498c-0.86226,1.00207 -2.00673,1.45741 -2.94321,1.0515c-1.29554,-0.56155 -1.70235,-2.55898 -0.9086,-4.4613l1.3028,-3.12238c0.61306,-2.78211 1.08978,-6.64612 2.11297,-9.98248c-3.62612,3.12349 -7.84305,5.34865 -10.2355,1.58446c-1.04268,-1.64054 -0.6736,-8.00406 -0.32749,-11.47004c-0.3265,-0.19399 -0.65465,-0.38565 -0.98493,-0.57432c-4.11425,4.07508 -10.79433,10.17939 -14.70025,7.51422c-2.12693,-1.45131 -1.50379,-8.39577 -1.50266,-13.08602c-1.2608,-0.37429 -2.52657,-0.81035 -3.79821,-1.36154z" fill="#ffffff" stroke="none" stroke-width="0.5"/></g></g></svg>