<svg version="1.1" xmlns="http://www.w3.org/2000/svg" xmlns:xlink="http://www.w3.org/1999/xlink" width="73.4092" height="110" viewBox="0,0,73.4092,110"><g transform="translate(-203.2954,-125)"><g data-paper-data="{&quot;isPaintingLayer&quot;:true}" fill-rule="nonzero" stroke-linecap="butt" stroke-linejoin="miter" stroke-miterlimit="10" stroke-dasharray="" stroke-dashoffset="0" style="mix-blend-mode: normal"><path d="M275.7046,234v-108h-71.4092v108z" fill="#00ffed" stroke="#ffffff" stroke-width="2"/><path d="M218.99979,181.74579c2.63895,-1.50554 3.13661,-2.33959 5.06058,-4.47802c0,0 0.9764,-1.09387 0.62501,-2.42114c0.0286,-0.20973 0.0286,-0.34663 0.0286,-0.34663l-0.14491,0.01168c-0.0584,-0.13514 -0.13179,-0.27187 -0.22245,-0.40936c3.13675,-2.42704 6.88357,-5.84355 8.96023,-9.288c0.52664,-0.87351 0.40852,-2.09612 0.89262,-3c0.43298,-0.80845 1.35225,-1.19155 1.78523,-2c0.48409,-0.90388 0.37626,-2.11882 0.89262,-3c1.33198,-2.27311 3.63494,-3.63525 5.18317,-5.72936c1.75209,-2.36983 2.61385,-4.72529 3.84066,-7.46694c0,0 0.99797,-2.23607 -0.99797,-3.3541c-1.99595,-1.11803 -2.99392,1.11803 -2.99392,1.11803c-0.94654,2.12676 -1.89863,4.66225 -3.30026,6.53306c-1.0017,1.33702 -4.76893,5.01126 -5.52821,6.27064c-0.52664,0.87351 -0.40852,2.09612 -0.89262,3c-0.43298,0.80845 -1.35225,1.19155 -1.78523,2c-0.48409,0.90388 -0.37626,2.11882 -0.89262,3c-1.79292,3.05972 -5.57535,6.24058 -8.26572,8.2342l-0.96852,3.97674c-2.24044,2.21621 -4.78089,3.22709 -7.07295,5.16871c-0.06524,-0.04781 -0.13003,-0.09625 -0.19424,-0.14545l-0.55251,-0.68764c0,0 -1.57794,-1.76777 -3.15587,0c-1.57794,1.76777 0,3.53553 0,3.53553l1.23272,1.31236c0.03487,0.02517 0.06949,0.05069 0.10386,0.07654c0.2874,0.69984 0.82538,1.03508 1.27485,1.19567c0.95315,1.06475 1.76653,2.32201 2.72053,3.38844c0.947,1.0586 2.23792,1.65705 3.25334,2.63281c1.7765,1.70709 3.13948,3.92179 4.96708,5.55977c0.78107,0.70003 1.80738,1.04203 2.51468,1.83441c0.70729,0.79238 0.99169,1.9614 1.63742,2.81721c4.62084,6.12409 10.44734,12.03645 16.79484,15.6511c0,0 1.99595,1.11803 2.99392,-1.11803c0.99797,-2.23607 -0.99797,-3.3541 -0.99797,-3.3541c-5.77435,-3.17066 -11.17384,-8.82834 -15.3393,-14.3489c-0.73944,-0.98 -1.1231,-2.27542 -1.93304,-3.18279c-0.80994,-0.90738 -1.94659,-1.36397 -2.84101,-2.16559c-1.81008,-1.62227 -3.15461,-3.82194 -4.91511,-5.5113c-0.90554,-0.86895 -2.08942,-1.35051 -2.93153,-2.29613c-0.45587,-0.5119 -0.73679,-1.18502 -1.05234,-1.82599c0.72139,-0.42731 1.49611,-0.77655 2.21634,-1.18744z" fill="#000000" stroke="none" stroke-width="0.5"/><path d="M253.72396,207c2.23154,0 2.23154,-2.5 2.23154,-2.5l-0.6536,-3.76777c-2.13464,-2.39144 -4.27105,-4.78063 -6.41147,-7.16559c-2.94407,-2.14764 -4.30731,-4.86416 -7.19734,-7.19479c-1.15761,-0.93354 -2.37856,-1.77291 -3.4864,-2.77941c-0.80018,-0.72699 -1.4486,-1.64427 -2.222,-2.40678c-0.23589,-0.23256 -1.0757,-0.40958 -0.79493,-0.56764c0.60754,-0.34202 1.49304,0.32661 2.03643,-0.13127c0.99212,-0.836 1.37072,-2.32501 2.15644,-3.40179c2.19605,-3.00954 4.56639,-5.9225 6.42082,-9.27064c0.63624,-1.14871 0.78552,-2.62303 1.55991,-3.65982c0.65957,-0.88308 1.86846,-1.05891 2.58284,-1.88674c0.9157,-1.0611 1.60368,-2.36018 2.21192,-3.66939c0.77328,-1.66445 0.26607,-3.04684 1.84641,-3.97175c0.83395,-0.48808 1.87671,-0.44721 2.67785,-1c0.86224,-0.59495 1.45999,-1.57257 2.18998,-2.35886c0,0 1.57794,-1.76777 0,-3.53553c-1.57794,-1.76777 -3.15587,0 -3.15587,0c-2.16236,2.57064 -4.67084,2.19342 -6.56863,5.45344c-0.55346,0.95072 -0.5634,2.19116 -0.99898,3.21595c-0.82078,1.93105 -2.91175,2.79842 -4.13139,4.44387c-0.92947,1.25398 -1.23567,2.96064 -2.01055,4.34018c-1.31048,2.33309 -2.75216,4.57798 -4.29056,6.72936c-1.08455,1.51669 -1.87257,3.34618 -3.19925,4.59821c-0.94704,0.89375 -2.90256,0.5624 -3.31926,1.86873c-0.55516,1.74037 0.2386,3.78721 0.9903,5.43236c1.88828,4.1326 6.55128,5.2971 9.22124,8.42471c0.74962,0.87811 1.04232,2.17095 1.81046,3.02873c0.81124,0.90591 1.894,1.44373 2.84101,2.16559c2.02479,2.28224 4.05416,4.5591 6.08514,6.83441l-0.6536,0.23223c0,0 0,2.5 2.23154,2.5z" fill="#000000" stroke="none" stroke-width="0.5"/></g></g></svg>