<svg version="1.1" xmlns="http://www.w3.org/2000/svg" xmlns:xlink="http://www.w3.org/1999/xlink" width="225.3189" height="174.89558" viewBox="0,0,225.3189,174.89558"><g transform="translate(-228.6611,-69.75205)"><g data-paper-data="{&quot;isPaintingLayer&quot;:true}" fill-rule="nonzero" stroke-linecap="butt" stroke-linejoin="miter" stroke-miterlimit="10" stroke-dasharray="" stroke-dashoffset="0" style="mix-blend-mode: normal"><path d="M320.92928,92.91913v0v0v0v0v0v0v0v0v0v0v0l-9.51482,4.6251c0,0 -2.15976,-13.40792 -4.19792,-14.56003c-2.03827,-1.15188 -17.49195,1.99657 -20.24756,-4.67257c-2.75036,-6.66668 17.94956,-9.74983 26.51653,-5.33742c8.56801,4.41077 7.44377,19.94492 7.44377,19.94492z" fill="#efff00" stroke="#0084ff" stroke-width="2.32134"/><path d="M296.55365,108.99942v0v0v0v0v0v0v0v0v0v0v0l-9.14855,10.64813c0,0 -6.81094,-15.6972 -9.9803,-17.1868c-3.16937,-1.4896 -16.59304,17.74042 -25.867,10.02799c-9.27374,-7.71231 21.68287,-26.90542 30.04484,-25.09059c8.36259,1.81298 14.951,21.60126 14.951,21.60126z" fill="#efff00" stroke="#0084ff" stroke-width="2.32134"/><path d="M285.88494,141.82882v0v0v0v0v0v0v0v0v0v0v0l3.97014,14.87385l-3.25575,9.26343c0,0 -14.07029,-21.24947 -18.60687,-23.12375c-4.53668,-1.87406 -30.93385,16.41798 -37.42693,5.88493c-6.4934,-10.53294 31.41089,-24.29599 40.69982,-21.63077c9.29068,2.66206 14.61959,14.73232 14.61959,14.73232z" fill="#efff00" stroke="#0084ff" stroke-width="2.32134"/><path d="M416.45895,137.81808c0,0 11.24292,-10.77838 20.10621,-6.99644c8.86061,3.77855 19.69967,21.68503 12.81174,23.82171c-6.89318,2.13422 -14.33067,-11.77309 -16.51821,-12.60735c-2.18766,-0.83403 -13.89245,6.05756 -13.89245,6.05756l-2.50728,-10.27549v0v0v0v0v0v0v0v0v0v0v0z" fill="#efff00" stroke="#0084ff" stroke-width="2.32134"/><path d="M419.63484,166.84757c0,0 19.43651,-7.55657 26.17232,-2.2733c6.73314,5.27988 11.71065,41.36203 -0.14537,39.14334c-11.8558,-2.21857 -5.61628,-24.82514 -8.78565,-26.31474c-3.16958,-1.4897 -19.60132,3.28344 -19.60132,3.28344l2.36002,-13.83874v0v0v0v0v0v0v0v0v0z" fill="#efff00" stroke="#0084ff" stroke-width="2.32134"/><path d="M400.9404,196.49298c0,0 12.69397,-3.59951 20.67194,1.85497c7.97809,5.45026 21.57129,43.41687 9.31829,45.139c-12.2531,1.72235 -15.01484,-30.27438 -19.35262,-32.57105c-4.338,-2.29677 -29.67713,0.43 -29.67713,0.43l5.05452,-8.418l13.985,-6.43493v0v0v0v0v0v0v0v0v0v0v0z" fill="#efff00" stroke="#0084ff" stroke-width="2.32134"/><g stroke="none" stroke-width="0.77378"><g><path d="M352.91789,150.52737l23.20875,-54.38147l2.6581,1.32158c2.62353,1.3032 5.27274,2.84118 7.87245,4.573c4.57923,3.04786 8.86165,6.63927 12.73298,10.67119c7.09958,7.39831 12.7314,16.21596 16.29002,25.50184c2.36407,6.17147 3.77146,12.41552 4.18898,18.5616c0.59808,8.83139 -0.8433,17.0179 -4.28258,24.33553c-0.43852,0.93303 -0.94715,1.90965 -1.5585,2.98229c-2.68825,4.7317 -6.21211,8.8789 -10.47993,12.32546c-3.76622,3.04272 -8.11656,5.55886 -12.93281,7.48076c-1.55138,0.6927 -3.97984,1.50766 -7.15758,2.39374c-0.09888,0.22797 -0.20034,0.45688 -0.30599,0.68167c-0.80794,1.71903 -1.80815,3.33357 -2.97722,4.80232l-0.62842,0.7883l-0.9875,0.20853c-1.29607,0.27207 -2.71384,0.52214 -4.33826,0.75964c-10.50434,1.54943 -21.75331,0.81921 -32.52686,-2.11251c-4.13404,-1.12365 -8.23657,-2.57309 -12.19485,-4.31186l-2.63168,-1.15421l26.05089,-55.42742v0v0v0v0v0v0v0v0v0v0v0z" fill="#a6479a"/><path d="M377.5381,99.97518l-22.08808,51.74229l-24.82813,52.82582c3.90083,1.71177 7.84917,3.09887 11.80384,4.17343c10.68204,2.90739 21.40844,3.51575 31.38235,2.04508c1.40369,-0.20708 2.79836,-0.44321 4.16996,-0.73125c1.02577,-1.28646 1.90874,-2.70432 2.63485,-4.24924c0.28205,-0.6001 0.5247,-1.20831 0.75031,-1.82454c2.58007,-0.69037 6.05635,-1.70205 8.21056,-2.66271c4.47522,-1.7848 8.59167,-4.13242 12.21205,-7.05778c3.91195,-3.15986 7.23349,-7.00369 9.80387,-11.52887c0.51527,-0.90736 1.00756,-1.83164 1.45882,-2.79177c3.33918,-7.10464 4.56455,-14.95926 4.0236,-22.95486c-0.40116,-5.92156 -1.77661,-11.91748 -4.00893,-17.74618c-3.40306,-8.87858 -8.77948,-17.35721 -15.69647,-24.56462c-3.67663,-3.83106 -7.78475,-7.29734 -12.26128,-10.27826c-2.42211,-1.61314 -4.94227,-3.0926 -7.56733,-4.39652M377.5381,99.97518v0v0v0v0v0v0v0v0v0v0v0l-2.82316,-7.65866v0l5.31487,2.64655c2.72931,1.35505 5.48112,2.95166 8.17992,4.74845c4.74678,3.16181 9.18686,6.88307 13.19874,11.06372c7.35604,7.66527 13.19628,16.80784 16.88686,26.4406c2.46312,6.43059 3.93231,12.9472 4.3674,19.37198c0.62985,9.31254 -0.89959,17.96335 -4.54382,25.71702c-0.46871,0.99725 -1.0108,2.03656 -1.65748,3.17528c-2.86042,5.03672 -6.61513,9.45096 -11.154,13.11897c-3.95724,3.19832 -8.51931,5.84432 -13.55937,7.86506c-1.52696,0.67137 -3.63575,1.39921 -6.28993,2.17236c-0.85926,1.74026 -1.89898,3.38156 -3.09463,4.8853l-1.25673,1.58038l-1.97181,0.41482c-1.35333,0.28436 -2.82692,0.54314 -4.50778,0.79119c-10.88495,1.60392 -22.52547,0.8505 -33.66912,-2.18077c-4.26876,-1.16217 -8.5018,-2.65854 -12.58618,-4.45019l-5.26396,-2.3111l2.44622,-5.20473l24.78604,-52.73625l22.04445,-51.64945l2.33033,-5.45923z" fill="#0084ff"/></g><path d="M379.70134,124.94597c1.62772,0.76503 2.77453,2.15432 3.31442,3.78057c0.53989,1.62625 0.47082,3.49039 -0.33476,5.2044c-0.80558,1.71401 -2.19675,2.95676 -3.79337,3.57886c-1.59651,0.62188 -3.39798,0.62548 -5.0257,-0.13955c-1.62794,-0.76513 -2.77453,-2.15432 -3.31453,-3.78035c-0.54011,-1.62636 -0.47082,-3.49039 0.33476,-5.2044c0.80558,-1.71401 2.19653,-2.95686 3.79337,-3.57886c1.59662,-0.6221 3.39787,-0.6258 5.0258,0.13934v0v0v0v0v0v0v0v0z" fill="#ff0000"/><path d="M392.62658,160.94368c1.62794,0.76513 2.77453,2.15432 3.31453,3.78035c0.54011,1.62636 0.47082,3.49039 -0.33476,5.2044c-0.80558,1.71401 -2.19653,2.95686 -3.79337,3.57886c-1.59662,0.6221 -3.39787,0.6258 -5.0258,-0.13934c-1.62772,-0.76503 -2.77453,-2.15432 -3.31442,-3.78057c-0.53989,-1.62625 -0.47082,-3.49039 0.33476,-5.2044c0.80558,-1.71401 2.19675,-2.95676 3.79337,-3.57886c1.59651,-0.62188 3.39798,-0.62548 5.0257,0.13955v0v0v0v0v0v0v0v0z" fill="#ff0000"/><path d="M384.32175,121.74568v0v0v0v0v0v0v0v0v0v0v0c-4.55045,-2.13871 -6.41414,-7.7592 -4.16259,-12.54974c1.06463,-2.26517 2.86862,-3.91241 4.94626,-4.82424c4.4755,2.97857 8.58537,6.44568 12.26128,10.27826c-0.1567,0.77264 -0.37435,1.54329 -0.72632,2.29216c-2.25155,4.79053 -7.76819,6.94228 -12.31864,4.80356z" fill="#ff0000"/><path d="M393.05953,143.92494v0v0v0v0v0v0v0v0v0v0v0c3.05005,-6.48946 11.07212,-9.14155 17.91635,-5.92476c0.74385,0.34961 1.43389,0.76487 2.08657,1.21593c2.23221,5.82892 3.60767,11.82484 4.00883,17.7464c-3.47857,5.46044 -10.80802,7.51337 -17.1402,4.53725c-6.84599,-3.21761 -9.9215,-11.08557 -6.87155,-17.57481z" fill="#ff0000"/><path d="M366.46609,181.13821v0v0v0v0v0v0v0v0v0v0v0c9.95789,4.68021 14.43459,16.12696 9.99823,25.56603c-0.70712,1.50451 -1.6151,2.85246 -2.65358,4.06095c-9.97403,1.47036 -20.70043,0.86199 -31.38235,-2.04508c-3.96071,-5.47951 -4.98592,-12.6644 -2.02407,-18.9662c4.43554,-9.43732 16.10212,-13.29673 26.06177,-8.61569z" fill="#f4eb43"/><path d="M405.70347,175.38834v0v0v0v0v0v0v0v0v0v0v0c3.15254,1.48169 5.24053,4.26256 5.88796,7.31987c-2.57039,4.52519 -5.89192,8.36902 -9.80409,11.52877c-1.49002,-0.01725 -3.01127,-0.34204 -4.4616,-1.0237c-5.19446,-2.44139 -7.52595,-8.40979 -5.21321,-13.33052c2.31428,-4.92401 8.39648,-6.93583 13.59094,-4.49444z" fill="#ff0000"/><path d="M375.40196,143.74464c2.59483,1.21957 4.47479,3.32283 5.41907,5.73552c0.94427,2.41268 0.95027,5.13572 -0.20564,7.59509c-1.15601,2.4596 -3.25626,4.19242 -5.71642,5.00503c-2.46016,0.8126 -5.27918,0.70734 -7.87401,-0.51223c-2.5946,-1.21946 -4.47479,-3.32283 -5.41907,-5.73552c-0.94427,-2.41268 -0.95015,-5.1354 0.20586,-7.59499c1.15591,-2.45938 3.25604,-4.19253 5.7162,-5.00513c2.46016,-0.8126 5.2794,-0.70724 7.87401,0.51223v0v0v0v0v0v0v0v0z" fill="#ff0000"/></g><g stroke="none" stroke-width="0.77378"><g><path d="M322.6558,203.75255c-15.57186,-8.49497 -27.88812,-21.379 -34.68358,-36.27438l-0.45717,-0.99927l0.3458,-1.04276c0.3385,-1.02325 0.6902,-1.92079 1.07554,-2.74066c0.15175,-0.32288 0.31581,-0.65038 0.49826,-0.98976c-0.34833,-0.8529 -0.7025,-1.74162 -1.05052,-2.62131l-0.44301,0.47271l-1.40284,-4.57228c-0.33536,-1.03884 -0.62883,-2.0828 -0.89727,-3.12726c-1.86693,-7.22977 -2.07084,-14.38365 -0.60694,-21.26974c0.70559,-3.32342 1.75364,-6.47546 3.1146,-9.3711c5.22121,-11.10895 14.85869,-19.92993 27.86617,-25.50567c12.64696,-5.42325 27.43122,-7.16951 41.62823,-4.92143c6.45176,1.0221 12.63876,2.83621 18.38904,5.38601l2.71364,1.2034l-27.10485,52.65965l-26.38901,55.12821l-2.5961,-1.41434v0v0v0v0v0v0v0v0v0z" fill="#a6479a"/><path d="M374.89608,98.73743c-5.67846,-2.51818 -11.64888,-4.22222 -17.69308,-5.1808c-13.83705,-2.19226 -28.06341,-0.42543 -40.08457,4.72865c-11.70496,5.01757 -21.31797,13.23716 -26.43435,24.12306c-1.34832,2.86877 -2.2821,5.79982 -2.91041,8.76134c-1.40223,6.59716 -1.13346,13.35425 0.57817,19.98266l0.00093,0.00257c0.25624,0.99152 0.53364,1.98231 0.85237,2.96799c0.06129,-0.06401 0.13344,-0.12105 0.19451,-0.18516c0.34708,0.91232 0.76287,1.9951 1.19844,3.11012c0.63439,1.6272 1.3171,3.34512 1.95009,4.85216c-0.38703,0.64358 -0.75375,1.3007 -1.07554,1.98534c-0.37579,0.79955 -0.68097,1.61175 -0.95201,2.42959c6.34722,13.91284 17.94539,26.50257 33.47755,34.97703l2.34895,-4.90585l16.71246,-34.91264l6.08885,-12.71778l3.17862,-6.17513l7.87667,-15.30103l14.69236,-28.54214M374.89608,98.73743v0v0v0v0v0v0v0v0v0v0v0l7.69793,-2.71375v0l-2.71928,5.27668l-14.69051,28.54274l-7.87677,15.30125l-3.14137,6.10382l-6.05291,12.64585l-16.71234,34.91296l-2.34908,4.90552l-2.55185,5.32844l-5.18552,-2.82926c-16.10024,-8.78492 -28.84714,-22.12712 -35.89147,-37.56889l-0.91093,-2.00068l0.68953,-2.08621c0.25388,-0.7683 0.51575,-1.4747 0.79452,-2.13821l-2.1223,-6.57179c-0.30254,-0.93274 -0.58353,-1.90681 -0.88191,-3.04589l-0.00266,-0.00738l-0.06099,-0.2391c-1.97311,-7.64907 -2.18664,-15.23474 -0.63295,-22.54513c0.75059,-3.53324 1.86726,-6.89255 3.31959,-9.98262c5.51835,-11.74116 15.64811,-21.03864 29.2973,-26.89073c13.125,-5.62772 28.45651,-7.44483 43.16921,-5.1136c6.69177,1.06077 13.11271,2.94348 19.08582,5.59402l5.42689,2.40821z" fill="#0084ff"/></g><path d="M355.96839,123.7287v0v0v0v0v0v0v0v0v0v0v0c1.77147,0.83259 3.19885,2.08116 4.23532,3.55087l-7.87667,15.30103c-1.57624,0.02091 -3.19495,-0.30249 -4.73638,-1.02696c-5.19467,-2.4415 -7.52617,-8.40989 -5.21342,-13.33062c2.31428,-4.92401 8.39648,-6.93583 13.59115,-4.49434z" fill="#ff0000"/><path d="M333.44702,138.20405c1.62794,0.76513 2.77453,2.15432 3.31464,3.78067c0.53999,1.62604 0.4707,3.49007 -0.33498,5.2043c-0.80558,1.71401 -2.19653,2.95686 -3.79305,3.57874c-1.59683,0.62199 -3.39808,0.62569 -5.02602,-0.13944c-1.62772,-0.76503 -2.77453,-2.15432 -3.31442,-3.78057c-0.53999,-1.62604 -0.47092,-3.49018 0.33466,-5.20418c0.80569,-1.71422 2.19685,-2.95698 3.79337,-3.57886c1.59662,-0.6221 3.39808,-0.62569 5.0258,0.13934v0v0v0v0v0v0v0v0z" fill="#ff0000"/><path d="M307.52742,160.37559c1.62794,0.76513 2.77453,2.15432 3.31474,3.78046c0.53989,1.62625 0.4706,3.49029 -0.33498,5.2043c-0.80558,1.71401 -2.19653,2.95686 -3.79315,3.57896c-1.59683,0.62199 -3.39808,0.62569 -5.02602,-0.13944c-1.62772,-0.76503 -2.77431,-2.15422 -3.31442,-3.78057c-0.53989,-1.62625 -0.47082,-3.49039 0.33476,-5.2044c0.80558,-1.71401 2.19675,-2.95676 3.79337,-3.57886c1.59673,-0.62178 3.39798,-0.62548 5.0257,0.13955v0v0v0v0v0v0v0v0z" fill="#f4eb43"/><path d="M317.0191,116.30683c2.5946,1.21946 4.47479,3.32283 5.41907,5.73552c0.94427,2.41268 0.95037,5.1355 -0.20564,7.59509c-1.15591,2.45938 -3.25626,4.19242 -5.71642,5.00503c-2.46016,0.8126 -5.2794,0.70724 -7.87401,-0.51223c-2.59483,-1.21957 -4.47479,-3.32283 -5.41907,-5.73552c-0.94427,-2.41268 -0.95027,-5.13572 0.20564,-7.59509c1.15601,-2.4596 3.25626,-4.19242 5.71642,-5.00503c2.46016,-0.8126 5.27918,-0.70734 7.87401,0.51223v0v0v0v0v0v0v0v0z" fill="#ff0000"/><g fill="#ff0000"><path d="M299.94014,147.1428v0v0v0v0v0v0v0v0v0v0v0c-1.15099,5.00027 -4.87531,8.69613 -9.33951,9.90813c-0.43568,-1.1148 -0.85125,-2.19747 -1.19854,-3.1099c-0.06107,0.06411 -0.13322,0.12115 -0.1943,0.18526c-0.31895,-0.98578 -0.59602,-1.97669 -0.85259,-2.9681l-0.00071,-0.00247c-1.71184,-6.62852 -1.98029,-13.38573 -0.57828,-19.98298c0.94712,-0.01706 1.9101,0.07227 2.87234,0.29542c6.76878,1.55517 10.92751,8.57627 9.29158,15.67463z"/></g><g fill="#ff0000"><path d="M329.0522,114.57816v0v0v0v0v0v0v0v0v0v0v0c-6.85101,-3.21998 -11.16477,-9.54633 -11.93203,-16.29206c12.02117,-5.15408 26.24753,-6.9209 40.08457,-4.72865c0.89662,3.9895 0.56315,8.22474 -1.2736,12.13271c-4.5762,9.7366 -16.60974,13.71453 -26.87894,8.888z"/></g><g fill="#f4eb43"><path d="M318.14964,171.17332v0v0v0v0v0v0v0v0v0v0v0c4.28615,-9.11946 15.11537,-13.1868 24.91065,-9.69734l-16.71224,34.91275c-8.76402,-5.36757 -12.44647,-16.17698 -8.19841,-25.2154z"/></g></g><path d="M328.04885,146.44186v0v0v0v0v0v0v0v0v0v0v0l-11.54303,-0.82922c0,0 -3.97472,-10.3232 -1.22179,-21.61233c2.75281,-11.28892 11.97151,-16.68904 17.67352,-14.74362c5.70233,1.9453 3.87254,9.51798 -0.53512,17.24916c-4.40776,7.7314 -4.37358,19.93601 -4.37358,19.93601z" fill="#efff00" stroke="#0084ff" stroke-width="2.32134"/><path d="M370.70727,166.49132c0,0 9.41843,-7.76187 12.55827,-16.0892c3.13974,-8.32711 7.80269,-14.5682 12.93906,-11.41931c5.13648,3.14868 6.86158,13.69238 -0.07336,23.01569c-6.93504,9.32354 -17.41727,12.8501 -17.41727,12.8501l-8.0067,-8.35728v0v0v0v0v0v0v0v0v0z" fill="#efff00" stroke="#0084ff" stroke-width="2.32134"/><g stroke="none"><path d="M321.74933,215.24487c-26.85332,-12.62106 -40.95933,-35.21208 -32.81119,-52.54856c8.49457,-18.07355 36.53524,-22.84719 62.50948,-10.6393c25.97425,12.2079 40.1972,36.8433 31.70181,54.9186c-8.14815,17.33648 -34.54329,20.89196 -61.4001,8.26926v0v0v0v0v0v0v0v0v0v0z" fill="#74bf44" stroke-width="0.77378"/><path d="M350.25588,154.59263c-24.29738,-11.41977 -51.03461,-7.18919 -58.78233,9.29531c-7.74617,16.48122 7.17016,37.40153 31.46753,48.8213c24.2976,11.41987 49.92738,9.5541 57.67274,-6.92538c7.74771,-16.4845 -6.06033,-39.77137 -30.35793,-51.19124M350.25588,154.59263v0v0v0v0v0v0v0v0v0v0v0l2.38349,-5.07125v0c27.37237,12.86501 42.19788,39.17266 33.04547,58.64587c-8.82744,18.78179 -36.82688,22.91443 -65.12726,9.61325c-28.29841,-13.30025 -42.98251,-37.49414 -34.15507,-56.27594c9.15241,-19.47321 38.86645,-24.84726 66.23685,-11.98318z" fill="#0084ff" stroke-width="0.77378"/><path d="M350.27715,154.54738c24.2976,11.41987 38.12905,34.77446 30.38134,51.25896c-7.74535,16.47948 -33.44109,18.36803 -57.73868,6.94816c-24.29737,-11.41976 -39.23823,-32.40538 -31.49206,-48.88661c7.74772,-16.48451 34.55202,-20.74028 58.8494,-9.32051" data-paper-data="{&quot;noHover&quot;:false,&quot;origItem&quot;:[&quot;Path&quot;,{&quot;applyMatrix&quot;:true,&quot;segments&quot;:[[[239.99647,178.47314],[0,0],[-26.84723,0]],[[190.75093,211.88934],[0,-18.21445],[0,18.21082]],[[239.99647,242.68871],[-26.84722,0],[26.84747,0]],[[289.24588,211.88934],[0,18.20889],[0,-18.21444]],[[239.99647,178.47314],[26.84747,0],[0,0]]],&quot;fillColor&quot;:[0,0,0,1],&quot;strokeWidth&quot;:0.77378}]}" fill="#efff00" stroke-width="0.38689"/></g><g stroke="none"><path d="M329.5358,157.52575v0v0v0v0v0v0v0v0v0v0v0c4.87213,3.24127 5.64516,10.64209 2.3891,15.52807c-3.2544,4.88248 -10.40105,7.0464 -15.26979,3.80246c-4.86978,-3.2423 -5.62187,-10.67462 -2.3733,-15.55771c3.25523,-4.88424 10.38832,-7.01931 15.25399,-3.77282z" fill="#ffffff" stroke-width="0.77378"/><path d="M324.79762,163.42183c1.09709,0.51563 1.86867,1.45597 2.22872,2.5603c0.35946,1.10164 0.30922,2.36786 -0.23895,3.53419c-0.54828,1.16656 -1.49112,2.01325 -2.56868,2.4395c-1.0799,0.42727 -2.29638,0.4335 -3.39346,-0.08213c-1.09687,-0.51553 -1.86836,-1.45609 -2.22872,-2.5603c-0.35923,-1.10153 -0.30901,-2.36776 0.23928,-3.53432c0.54818,-1.16634 1.49102,-2.01303 2.56836,-2.43937c1.08023,-0.42739 2.29659,-0.4334 3.39346,0.08213v0v0v0v0v0v0v0v0z" fill="#231f20" stroke-width="0.77378"/><path d="M332.12143,153.14402v0v0v0v0v0v0v0v0v0v0v0c7.44709,4.95932 9.33595,15.19379 4.22747,22.85777c-5.10859,7.66819 -15.28311,9.85966 -22.72725,4.902c-7.44207,-4.95696 -9.33584,-15.19401 -4.22911,-22.8628c5.10354,-7.66656 15.28485,-9.85485 22.72888,-4.89696zM331.92572,173.05207v0v0v0v0v0v0v0v0v0v0v0c3.25523,-4.88424 2.4822,-12.28506 -2.3891,-15.52807c-4.86414,-3.24578 -11.99958,-1.10968 -15.25399,3.77282c-3.24866,4.88332 -2.49821,12.3146 2.3733,15.55771c4.86721,3.24322 12.01538,1.08003 15.26979,-3.80246z" fill="#231f20" stroke-width="0.77378"/><path d="M316.6282,176.89614c-4.87151,-3.24311 -5.63579,-10.74379 -2.38714,-15.62711c3.2544,-4.88249 10.45914,-7.03242 15.32328,-3.78664c4.8713,3.24301 5.65827,10.7131 2.40303,15.59734v0v0v0v0v0v0v0v0v0v0v0c-3.2544,4.88249 -10.47196,7.05963 -15.33917,3.81641z" data-paper-data="{&quot;noHover&quot;:false,&quot;origItem&quot;:[&quot;Path&quot;,{&quot;applyMatrix&quot;:true,&quot;segments&quot;:[[[462.51834,405.95262],[-1.73698,11.60614],[0,0]],[462.51834,405.95262],[462.51834,405.95262],[462.51834,405.95262],[462.51834,405.95262],[462.51834,405.95262],[462.51834,405.95262],[462.51834,405.95262],[462.51834,405.95262],[462.51834,405.95262],[462.51834,405.95262],[[462.51834,405.95262],[0,0],[1.73698,-11.61]],[[444.98388,379.87854],[11.57618,1.72588],[-11.56558,-1.73698]],[[420.58306,399.68442],[1.73698,-11.60614],[-1.72588,11.60274]],[[438.11414,425.8256],[-11.57666,-1.72588],[11.56896,1.72974]]],&quot;closed&quot;:true,&quot;fillColor&quot;:[0,0,0,1],&quot;strokeWidth&quot;:0.77378}]}" fill="#000000" stroke-width="0.38689"/></g><g stroke="none"><path d="M364.82568,174.11199v0v0v0v0v0v0v0v0v0v0v0c4.87213,3.24127 5.64516,10.64209 2.3891,15.52807c-3.2544,4.88248 -10.40083,7.0465 -15.26979,3.80246c-4.86978,-3.2423 -5.62164,-10.67451 -2.3733,-15.55771c3.25544,-4.88414 10.38832,-7.01931 15.25399,-3.77282z" fill="#ffffff" stroke-width="0.77378"/><path d="M360.08773,180.00818c1.09709,0.51563 1.86846,1.45587 2.22872,2.5603c0.35923,1.10153 0.30901,2.36776 -0.23917,3.53409c-0.54828,1.16656 -1.49112,2.01325 -2.56846,2.4396c-1.08013,0.42717 -2.29638,0.4335 -3.39346,-0.08213c-1.09709,-0.51563 -1.86857,-1.45619 -2.22872,-2.5603c-0.35946,-1.10164 -0.30922,-2.36786 0.23906,-3.53442c0.54818,-1.16634 1.49102,-2.01303 2.56857,-2.43927c1.08001,-0.4275 2.29638,-0.4335 3.39346,0.08213v0v0v0v0v0v0v0v0z" fill="#231f20" stroke-width="0.77378"/><path d="M367.41132,169.73026v0v0v0v0v0v0v0v0v0v0v0c7.44732,4.95943 9.33616,15.19389 4.22747,22.85777c-5.10859,7.66819 -15.28311,9.85966 -22.72703,4.9021c-7.44229,-4.95706 -9.33606,-15.19411 -4.22932,-22.8629c5.10354,-7.66656 15.28506,-9.85474 22.72888,-4.89696zM367.21561,189.63832v0v0v0v0v0v0v0v0v0v0v0c3.25523,-4.88424 2.4822,-12.28506 -2.3891,-15.52807c-4.86392,-3.24568 -11.99936,-1.10958 -15.25399,3.77282c-3.24844,4.88342 -2.49821,12.3146 2.3733,15.55771c4.86721,3.24322 12.01538,1.08003 15.26979,-3.80246z" fill="#231f20" stroke-width="0.77378"/><path d="M351.91809,193.48238c-4.87151,-3.24311 -5.63558,-10.74369 -2.38714,-15.62711c3.25462,-4.88239 10.45936,-7.03232 15.32328,-3.78664c4.8713,3.24301 5.65827,10.7131 2.40303,15.59734v0v0v0v0v0v0v0v0v0v0v0c-3.2544,4.88249 -10.47196,7.05963 -15.33917,3.81641z" data-paper-data="{&quot;noHover&quot;:false,&quot;origItem&quot;:[&quot;Path&quot;,{&quot;applyMatrix&quot;:true,&quot;segments&quot;:[[[540.505,405.95262],[-1.73698,11.60614],[0,0]],[540.505,405.95262],[540.505,405.95262],[540.505,405.95262],[540.505,405.95262],[540.505,405.95262],[540.505,405.95262],[540.505,405.95262],[540.505,405.95262],[540.505,405.95262],[540.505,405.95262],[[540.505,405.95262],[0,0],[1.73698,-11.61]],[[522.97054,379.87854],[11.57618,1.72588],[-11.5651,-1.73698]],[[498.56972,399.68442],[1.73746,-11.60614],[-1.7254,11.60274]],[[516.1008,425.8256],[-11.57666,-1.72588],[11.56896,1.72974]]],&quot;closed&quot;:true,&quot;fillColor&quot;:[0,0,0,1],&quot;strokeWidth&quot;:0.77378}]}" fill="#000000" stroke-width="0.38689"/></g><path d="M331.58448,193.70333c4.47443,2.10298 8.18069,4.74455 10.56315,7.30349c2.37488,2.57565 3.42223,5.06692 2.57568,6.86809c-0.84655,1.80117 -3.43299,2.58456 -6.93144,2.39948c-3.49063,-0.20114 -7.88953,-1.369 -12.36396,-3.47198c-4.47465,-2.10308 -8.1809,-4.74465 -10.56326,-7.30381c-2.37498,-2.57543 -3.42233,-5.0667 -2.57578,-6.86787c0.84655,-1.80117 3.43299,-2.58456 6.93154,-2.3997c3.49053,0.20136 7.88943,1.36922 12.36407,3.4723v0v0v0v0v0z" fill="#231f20" stroke="none" stroke-width="48.10735"/><path d="M323.59549,172.33612c-2.48273,-0.29335 -2.18938,-2.77608 -2.18938,-2.77608l0.37106,-3.14043c0,0 0.29335,-2.48273 2.77608,-2.18938c2.48273,0.29335 2.18938,2.77608 2.18938,2.77608l-0.37106,3.14043c0,0 -0.29335,2.48273 -2.77608,2.18938z" fill="#ff0000" stroke="none" stroke-width="0.5"/><path d="M359.12767,188.36892c-2.3518,0.84793 -3.19974,-1.50388 -3.19974,-1.50388l-0.95933,-2.66077c0,0 -0.84793,-2.3518 1.50388,-3.19974c2.3518,-0.84793 3.19974,1.50388 3.19974,1.50388l0.95933,2.66077c0,0 0.84793,2.3518 -1.50388,3.19974z" fill="#ff0000" stroke="none" stroke-width="0.5"/><path d="M325.79165,194.08964c-0.02398,-0.01127 -0.04897,-0.02347 -0.07488,-0.03652c-0.26278,0.40765 -0.50563,0.89558 -0.83042,1.16862c-1.06915,0.89881 -2.09168,1.70629 -3.76243,1.09342c-0.71645,-0.26281 -1.14049,-1.3929 -1.47548,-2.53201c-0.5194,0.92189 -1.25778,1.4751 -2.77474,0.80448c-0.76321,-0.3374 -1.39412,-1.48675 -2.29983,-1.90303l-0.63528,-0.89845c0,0 -0.28966,-0.80339 0.40883,-1.19299c0.06356,-0.4262 0.11597,-0.86139 0.45144,-1.06821c1.59281,-0.98195 2.84231,0.1533 4.11125,0.9462c0.08266,-0.13181 0.21258,-0.2574 0.41015,-0.36227c0.8833,-0.4688 1.35211,0.4145 1.35211,0.4145c0.03728,0.07149 0.10498,0.27344 0.19122,0.55103c0.59893,-0.13171 1.16071,-0.61947 1.77995,-0.59017c0.85187,0.0403 2.01254,0.70473 2.99401,1.25786c0.4078,-0.29053 0.85665,-0.44751 1.3759,-0.34564c1.41597,0.27776 1.84762,0.97249 1.93529,1.79186c1.25882,0.42984 2.49913,0.79737 3.78894,1.40358c0.27458,0.12905 0.53985,0.26236 0.79827,0.39924c0.51542,-0.17632 1.04095,-0.40339 1.47028,-0.14747c0.51103,0.30462 0.69844,0.85388 0.75396,1.46821c0.52244,0.33207 1.04827,0.67167 1.60331,1.01199c0.43401,0.26612 0.88475,0.48703 1.33755,0.68911l0.42789,-0.33746c0.28899,-0.23792 0.70033,-0.30305 1.06162,-0.13324c0.38847,0.18258 0.60474,0.58306 0.57154,0.9871l-0.02195,0.37254c1.16394,0.56442 2.1758,1.28982 2.73514,2.71771l0.05433,0.32361c0.29628,0.00855 0.67447,0.13417 0.86427,0.66061c0.33917,0.94073 -0.60155,1.27989 -0.60155,1.27989l-0.3326,0.11992c-1.35646,0.48906 -2.69544,0.79008 -4.0565,1.12871l-0.63535,0.50108c-0.28899,0.23792 -0.70033,0.30305 -1.06162,0.13324c-0.49983,-0.23492 -0.71458,-0.83056 -0.47966,-1.33038l0.38558,-0.82039c0.13977,-0.76226 0.19447,-1.84236 0.46923,-2.74004c-1.24993,0.68801 -2.74817,1.08485 -3.75777,-0.1305c-0.44,-0.52969 -0.5047,-2.33222 -0.48595,-3.30571c-0.12763,-0.07424 -0.2558,-0.14791 -0.38467,-0.22084c-1.40133,0.93284 -3.69283,2.30066 -5.23061,1.31382c-0.83738,-0.53738 -0.826,-2.49189 -0.97447,-3.83592c-0.48096,-0.17927 -0.96572,-0.37652 -1.45633,-0.60711z" fill="#ffffff" stroke="none" stroke-width="0.5"/></g></g></svg>