<svg version="1.1" xmlns="http://www.w3.org/2000/svg" xmlns:xlink="http://www.w3.org/1999/xlink" width="415.00001" height="791.00919" viewBox="0,0,415.00001,791.00919"><g transform="translate(-10.99999,31.78849)"><g data-paper-data="{&quot;isPaintingLayer&quot;:true}" fill-rule="nonzero" stroke="none" stroke-linecap="butt" stroke-linejoin="miter" stroke-miterlimit="10" stroke-dasharray="" stroke-dashoffset="0" style="mix-blend-mode: normal"><g stroke-width="1"><path d="M308.80635,523.10365c0,0 9.64436,70.14084 -32.44014,141.74296c-21.04225,35.94718 -22.79578,56.69718 -17.82747,63.41902c4.96831,7.01409 20.75,16.3662 16.95071,20.75c-3.79929,4.3838 -57.57394,6.72184 -69.8486,1.46127c-4.96831,-2.33804 -21.04225,-80.07747 -18.11973,-114.85563c3.21478,-34.48591 8.18309,-46.17605 4.96831,-71.30985c-3.21478,-25.1338 -19.87324,-67.21831 -11.39789,-87.09154c8.47535,-19.87324 34.19365,-52.60564 79.20071,-36.53169c45.00704,16.07395 49.0986,65.17253 48.51409,82.41549z" fill="#8d674a"/><path d="M253.27817,749.30788c-0.58451,-1.16902 -1.75353,-2.33804 -2.63027,-3.79929c-0.87676,-1.46127 -2.04578,-2.92253 -2.92253,-3.79929c-0.29225,-0.29225 -0.58451,-0.87676 -0.87676,-1.16902c-0.29225,-0.29225 -0.29225,-0.58451 -0.29225,-0.58451c0,0 0.87676,0.29225 2.04578,0.87676c1.16902,0.87676 2.63027,2.04578 3.79929,3.50704c0.87676,1.46127 1.75353,2.92253 2.04578,4.3838c0.29225,1.46127 0.29225,2.33804 0.29225,2.33804c0,0 -0.29225,-0.58451 -1.46127,-1.75353z" fill="#59402f"/><path d="M269.05986,748.13886c-0.87676,-1.16902 -2.04578,-2.63027 -3.50704,-4.09155c-1.16902,-1.46127 -2.63027,-2.92253 -3.79929,-3.79929c-0.58451,-0.58451 -1.16902,-0.87676 -1.46127,-1.16902c-0.29225,-0.29225 -0.58451,-0.58451 -0.58451,-0.58451c0,0 0,0.29225 0.58451,0.29225c0.29225,0 1.16902,0.29225 1.75353,0.58451c0.58451,0.29225 1.46127,0.87676 2.33804,1.46127c0.87676,0.58451 1.75353,1.16902 2.33804,2.04578c1.16902,1.75353 2.33804,3.50704 2.92253,4.96831c0.58451,1.46127 0.58451,2.63027 0.58451,2.63027c0,0 -0.87676,-0.87676 -1.16902,-2.33804z" fill="#59402f"/><path d="M247.14084,751.06141c-1.46127,-1.75353 -3.79929,-4.96831 -0.58451,-4.96831c3.21478,-0.29225 5.84507,7.01409 5.84507,8.7676c0,1.16902 -3.79929,-1.75353 -5.26056,-3.79929z" fill="#665a52"/><path d="M262.04578,749.30788c-1.46127,-1.75353 -3.79929,-4.96831 -0.58451,-4.96831c3.21478,-0.29225 5.84507,7.01409 5.84507,8.7676c0,0.87676 -3.50704,-2.04578 -5.26056,-3.79929z" fill="#665a52"/><path d="M271.39789,748.43112c-1.46127,-1.75353 -3.79929,-4.96831 -0.58451,-4.96831c3.21478,-0.29225 5.84507,7.01409 5.84507,8.7676c0,0.87676 -3.50704,-2.04578 -5.26056,-3.79929z" fill="#665a52"/><g><path d="M191.90493,665.72337c-13.73591,-7.01409 -8.7676,-26.01056 -8.7676,-26.01056l-5.55282,9.93662c-3.79929,-11.39789 2.92253,-30.68662 2.92253,-30.68662l-7.30634,4.3838c0,-12.27465 10.52113,-19.87324 10.52113,-19.87324c-3.79929,5.26056 -10.81338,1.75353 -10.81338,1.75353c6.42958,-0.87676 21.04225,-32.7324 21.04225,-32.7324" fill="#8d674a"/><path d="M174.95422,604.05788c0.58451,-0.58451 1.46127,-1.75353 2.33804,-2.92253c2.04578,-2.33804 4.09155,-5.84507 6.13733,-9.35211c2.33804,-3.50704 4.09155,-7.01409 5.84507,-9.64436c1.46127,-2.63027 2.63027,-4.3838 2.63027,-4.3838c0,0 -0.58451,2.04578 -1.75353,4.96831c-0.87676,1.46127 -1.46127,3.21478 -2.33804,4.96831c-0.87676,1.75353 -1.75353,3.50704 -2.92253,5.26056c-2.33804,3.50704 -4.67605,7.01409 -7.01409,9.05985c-1.16902,1.16902 -2.04578,1.75353 -2.92253,2.33804c-0.87676,0.58451 -1.46127,0.58451 -1.46127,0.58451c0,0 0.29225,-0.29225 1.46127,-0.87676z" fill="#59402f"/><path d="M173.20071,619.54732c0,-0.87676 0,-2.04578 0.29225,-3.21478c0.29225,-1.16902 0.58451,-2.33804 1.16902,-3.50704c0.58451,-1.16902 1.16902,-2.33804 1.75353,-3.21478c0.87676,-0.87676 1.75353,-1.75353 2.33804,-2.33804c0.58451,-0.58451 1.16902,-0.87676 1.75353,-1.16902c0.58451,-0.29225 0.87676,-0.29225 0.87676,-0.29225c0,0 -0.29225,0.29225 -0.58451,0.58451c-0.58451,0.29225 -0.87676,1.16902 -1.46127,1.75353c-0.29225,0.87676 -0.87676,1.75353 -1.46127,2.63027c-0.58451,1.16902 -0.87676,2.04578 -1.46127,3.21478c-0.87676,2.04578 -1.46127,4.3838 -2.04578,6.13733c-0.58451,1.75353 -0.87676,2.92253 -0.87676,2.92253c0,0 -0.29225,-1.16902 -0.29225,-3.50704z" fill="#59402f"/><path d="M176.70775,647.60364c-0.29225,-0.58451 -0.87676,-1.75353 -1.16902,-3.21478c-0.29225,-1.46127 -0.58451,-3.21478 -0.58451,-4.96831c0,-1.75353 0,-3.79929 0.29225,-5.55282c0.29225,-2.04578 0.58451,-3.79929 1.16902,-5.55282c0.29225,-1.75353 0.87676,-3.21478 1.46127,-4.67605c0.58451,-1.46127 1.16902,-2.33804 1.46127,-3.21478c0.29225,-0.87676 0.58451,-1.16902 0.58451,-1.16902c0,0 0,0.29225 -0.29225,1.16902c0,0.58451 -0.29225,1.75353 -0.58451,3.21478c-0.29225,1.46127 -0.58451,2.92253 -0.87676,4.67605c-0.29225,1.75353 -0.58451,3.50704 -0.87676,5.26056c-0.29225,1.75353 -0.58451,3.50704 -0.58451,5.26056c0,1.75353 0,3.21478 0,4.67605c0.29225,2.92253 0.87676,4.67605 0.87676,4.67605c0,0 -0.29225,-0.29225 -0.87676,-0.58451z" fill="#59402f"/><path d="M186.93662,662.21633c-0.58451,-0.29225 -1.46127,-1.16902 -2.04578,-2.04578c-0.58451,-0.87676 -1.46127,-2.04578 -1.75353,-3.50704c-0.29225,-1.16902 -0.58451,-2.92253 -0.87676,-4.3838c-0.29225,-0.87676 -0.29225,-1.46127 -0.29225,-2.33804c0,-0.87676 0,-1.75353 0,-2.33804c0,-1.46127 0.29225,-2.63027 0.29225,-3.79929c0.58451,-2.33804 0.87676,-3.79929 0.87676,-3.79929c0,0 0.29225,1.46127 0.29225,3.79929c0,2.33804 0.29225,5.26056 0.58451,8.18309c0.29225,2.92253 0.87676,5.84507 1.75353,7.89084c0.58451,1.16902 1.16902,1.75353 1.46127,2.33804c0.29225,0.58451 0.58451,0.87676 0.58451,0.87676c0,0 -0.29225,0 -0.87676,-0.87676z" fill="#59402f"/></g><path d="M188.9824,665.43112c0.87676,5.26056 1.75353,11.39789 2.63027,17.82747c1.16902,6.42958 2.04578,13.44365 3.21478,20.45775c1.16902,7.01409 2.33804,14.02816 3.50704,20.45775c1.16902,6.42958 2.63027,12.56691 4.09155,17.53522c0.87676,2.63027 1.75353,4.96831 2.63027,6.72184c0.29225,0.29225 0.58451,0.87676 0.87676,1.16902l0.29225,0.58451c0.29225,0 0.29225,0.29225 0.58451,0.29225c0.87676,0.58451 1.46127,0.58451 2.33804,0.87676c2.92253,0.58451 4.67605,0.87676 4.67605,0.87676c0,0 -2.04578,0 -4.96831,-0.58451c-0.87676,0 -1.75353,-0.29225 -2.63027,-0.58451c-0.29225,0 -0.29225,0 -0.58451,-0.29225l-0.58451,-0.58451c-0.29225,-0.58451 -0.58451,-0.87676 -0.87676,-1.46127c-1.16902,-2.04578 -2.04578,-4.09155 -2.92253,-6.72184c-1.75353,-4.96831 -3.21478,-11.10564 -4.67605,-17.53522c-1.46127,-6.42958 -2.63027,-13.44365 -3.79929,-20.45775c-1.16902,-7.01409 -2.04578,-14.02816 -2.92253,-20.45775c-0.87676,-6.42958 -1.46127,-12.56691 -2.04578,-17.82747c-1.16902,-10.52113 -1.46127,-17.53522 -1.46127,-17.53522c0,0 0.87676,7.01409 2.63027,17.24296z" fill="#59402f"/><path d="M301.79226,483.64943c2.63027,7.30634 5.55282,17.82747 7.5986,30.97887c2.04578,13.1514 2.63027,28.64084 1.16902,45.00704c-0.87676,8.18309 -2.04578,16.65845 -3.79929,25.1338c-1.75353,8.47535 -4.09155,16.95071 -6.72184,25.42605c-2.63027,8.18309 -5.55282,16.65845 -9.05985,24.54929c-3.50704,7.89084 -7.01409,15.48944 -10.52113,23.08804c-7.01409,14.90493 -13.44365,28.64084 -18.41196,40.91549c-2.63027,6.13733 -4.67605,11.69014 -5.26056,16.95071c-0.29225,2.63027 -0.58451,4.96831 -0.29225,7.30634c0,2.33804 0.87676,4.3838 1.75353,5.84507c2.33804,3.21478 4.67605,4.96831 6.42958,6.13733c1.75353,1.16902 2.63027,1.75353 2.63027,1.75353c0,0 -0.87676,-0.58451 -2.63027,-1.75353c-1.75353,-1.16902 -4.3838,-2.92253 -6.72184,-6.13733c-0.87676,-1.75353 -1.75353,-3.79929 -2.04578,-6.13733c-0.29225,-2.33804 -0.29225,-4.96831 0,-7.5986c0.58451,-5.55282 2.63027,-11.39789 4.96831,-17.53522c4.67605,-12.27465 11.39789,-26.30282 18.11973,-41.20774c3.50704,-7.5986 7.01409,-15.19718 10.52113,-23.08804c3.21478,-7.89084 6.42958,-16.07395 9.05985,-24.54929c2.63027,-8.18309 4.96831,-16.65845 6.72184,-25.1338c1.75353,-8.47535 2.92253,-16.95071 3.79929,-25.1338c1.75353,-16.3662 1.16902,-31.56338 -0.58451,-44.71478c-1.46127,-13.1514 -4.3838,-23.67253 -7.01409,-30.97887c-2.63027,-7.30634 -4.67605,-11.10564 -4.67605,-11.10564c0,0 2.04578,3.79929 4.96831,11.9824z" fill="#59402f"/></g><g stroke-width="1"><g fill="#8d674a"><path d="M311.72887,236.98747c19.58098,54.94365 15.78169,71.30985 22.50353,87.67605c6.72184,16.3662 43.83804,41.20774 62.54225,59.61973c11.69014,11.39789 20.75,19.58098 26.59507,26.30282c5.84507,6.72184 1.16902,30.39436 -50.2676,25.42605c-16.3662,-1.46127 -128.29929,-55.23591 -156.35563,-111.3486c-39.16196,-124.20774 67.80282,-164.83098 94.9824,-87.67605z"/><path d="M236.32748,353.59661c-15.19718,-2.04578 -17.24296,-21.62676 -17.24296,-21.62676l-1.75353,11.39789c-7.30634,-9.35211 -7.5986,-29.80985 -7.5986,-29.80985l-5.26056,6.72184c-4.09155,-11.69014 3.21478,-22.50353 3.21478,-22.50353c-1.75353,6.13733 -9.64436,5.26056 -9.64436,5.26056c5.84507,-3.21478 11.10564,-41.20774 11.10564,-41.20774"/></g><path d="M198.91902,301.28323c0.58451,-0.87676 1.16902,-2.33804 1.75353,-3.79929c0.87676,-3.50704 2.33804,-7.89084 3.21478,-12.27465c1.16902,-4.3838 2.04578,-8.7676 2.63027,-12.27465c0.58451,-3.21478 1.16902,-5.55282 1.16902,-5.55282c0,0 0,0.58451 0,1.46127c0,0.87676 0,2.33804 0,4.09155c0,1.75353 -0.29225,3.79929 -0.58451,5.84507c-0.29225,0.87676 -0.29225,2.04578 -0.58451,3.21478c0,1.16902 -0.29225,2.33804 -0.58451,3.50704c-0.87676,4.67605 -2.33804,9.05985 -4.09155,12.27465c-0.87676,1.46127 -1.75353,2.63027 -2.33804,3.50704c-0.58451,0.87676 -1.16902,1.16902 -1.16902,1.16902c0,0 0.29225,-0.29225 0.58451,-1.16902z" fill="#59402f"/><path d="M203.59508,316.77267c-0.29225,-0.87676 -0.58451,-2.04578 -0.87676,-3.21478c-0.29225,-1.16902 -0.29225,-2.63027 -0.29225,-3.79929c0,-1.46127 0.29225,-2.63027 0.58451,-3.79929c0.29225,-1.16902 0.58451,-2.04578 1.16902,-2.92253c0.58451,-0.87676 1.16902,-1.46127 1.46127,-1.75353c0.29225,-0.29225 0.58451,-0.58451 0.58451,-0.58451c0,0 0,0.29225 -0.29225,0.87676c-0.29225,0.58451 -0.29225,1.16902 -0.58451,2.04578c-0.29225,0.87676 -0.29225,1.75353 -0.58451,2.92253c0,1.16902 -0.29225,2.33804 -0.29225,3.50704c-0.29225,2.33804 0,4.67605 0,6.42958c0.29225,1.75353 0.29225,2.92253 0.29225,2.92253c0,0 -0.58451,-0.87676 -1.16902,-2.63027z" fill="#59402f"/><path d="M216.16197,340.73747c-0.58451,-0.58451 -1.46127,-1.46127 -2.33804,-2.63027c-0.87676,-1.16902 -1.75353,-2.63027 -2.33804,-4.3838c-0.58451,-1.46127 -1.16902,-3.50704 -1.46127,-5.26056c-0.58451,-1.75353 -0.87676,-3.79929 -0.87676,-5.55282c0,-1.75353 0,-3.50704 0,-4.96831c0,-1.46127 0.29225,-2.63027 0.29225,-3.50704c0.29225,-0.58451 0.29225,-1.16902 0.29225,-1.16902c0,0 0.29225,0.29225 0.29225,1.16902c0.29225,0.87676 0.29225,2.04578 0.58451,3.50704c0,1.46127 0.29225,2.92253 0.58451,4.67605c0.29225,1.75353 0.58451,3.50704 0.87676,5.26056c0.29225,1.75353 0.58451,3.50704 1.16902,5.26056c0.29225,1.75353 0.87676,3.21478 1.46127,4.3838c1.16902,2.63027 2.33804,4.09155 2.33804,4.09155c0,0 -0.29225,0 -0.87676,-0.87676z" fill="#59402f"/><path d="M234.28169,353.30436c-0.87676,0 -2.04578,-0.29225 -3.21478,-0.87676c-0.87676,-0.29225 -1.46127,-0.87676 -2.04578,-1.16902c-0.58451,-0.29225 -1.16902,-0.87676 -1.75353,-1.46127c-1.16902,-1.16902 -2.33804,-2.63027 -3.21478,-4.09155c-0.29225,-0.87676 -0.87676,-1.46127 -1.16902,-2.33804c-0.29225,-0.87676 -0.58451,-1.46127 -0.87676,-2.33804c-0.87676,-1.75353 -1.16902,-3.21478 -1.46127,-4.3838c-0.29225,-1.46127 -0.58451,-2.33804 -0.58451,-3.21478c-0.29225,-0.87676 -0.29225,-1.16902 -0.29225,-1.16902c0,0 0.29225,0.58451 0.58451,1.16902c0.29225,0.87676 0.58451,1.75353 1.16902,2.92253c0.58451,1.16902 0.87676,2.63027 1.75353,4.09155c0.29225,0.58451 0.87676,1.46127 1.16902,2.04578c0.29225,0.58451 0.58451,1.46127 1.16902,2.04578c0.87676,1.16902 1.75353,2.63027 2.92253,3.79929c1.16902,1.16902 2.04578,2.33804 3.21478,2.92253c2.04578,1.46127 3.79929,1.75353 3.79929,1.75353c0,0 -0.58451,0 -1.16902,0.29225z" fill="#59402f"/><path d="M405.54225,432.21281c-0.58451,-1.16902 -1.75353,-2.33804 -2.63027,-3.79929c-0.87676,-1.46127 -2.04578,-2.92253 -2.92253,-3.79929c-0.29225,-0.29225 -0.58451,-0.87676 -0.87676,-1.16902c-0.29225,-0.29225 -0.29225,-0.58451 -0.29225,-0.58451c0,0 0.87676,0.29225 2.04578,0.87676c1.16902,0.58451 2.63027,1.75353 3.79929,3.21478c0.87676,1.46127 1.75353,2.92253 2.04578,4.3838c0.29225,1.46127 0.29225,2.33804 0.29225,2.33804c0,0 -0.29225,-0.58451 -1.46127,-1.46127z" fill="#59402f"/><path d="M416.94015,425.49098c-0.87676,-1.16902 -2.04578,-2.63027 -3.50704,-4.09155c-1.16902,-1.46127 -2.63027,-2.92253 -3.79929,-3.79929c-0.58451,-0.58451 -1.16902,-0.87676 -1.46127,-1.16902c-0.29225,-0.29225 -0.58451,-0.58451 -0.58451,-0.58451c0,0 0,0.29225 0.58451,0.29225c0.29225,0 1.16902,0.29225 1.75353,0.58451c0.58451,0.29225 1.46127,0.87676 2.33804,1.46127c0.87676,0.58451 1.75353,1.16902 2.33804,2.04578c1.46127,1.75353 2.63027,3.50704 3.21478,4.96831c0.58451,1.46127 0.58451,2.63027 0.58451,2.63027c0,0 -0.58451,-0.87676 -1.46127,-2.33804z" fill="#59402f"/><g fill="#59402f"><path d="M401.15845,435.71985c-5.84507,1.16902 -14.32042,1.75353 -24.25704,0.58451c-4.96831,-0.58451 -10.22887,-1.75353 -15.78169,-3.50704c-5.55282,-1.75353 -11.39789,-4.3838 -16.95071,-7.01409c-5.84507,-2.63027 -11.69014,-5.55282 -17.53522,-8.47535c-6.13733,-2.92253 -11.9824,-6.13733 -17.82747,-9.35211c-5.84507,-3.50704 -11.69014,-7.01409 -17.24296,-10.52113c-5.55282,-3.50704 -11.10564,-7.30634 -16.07395,-11.10564c-9.93662,-7.5986 -19.28873,-14.90493 -26.59507,-21.91902c-7.30634,-7.01409 -12.85916,-13.44365 -16.3662,-18.11973c-3.50704,-4.67605 -4.96831,-7.89084 -4.96831,-7.89084c0,0 0.29225,0.87676 1.16902,2.04578c0.87676,1.16902 2.33804,2.92253 4.09155,5.26056c1.75353,2.33804 4.09155,4.96831 7.01409,7.89084c2.92253,2.92253 6.13733,6.13733 9.93662,9.35211c3.79929,3.21478 7.89084,6.72184 12.56691,10.22887c4.3838,3.50704 9.35211,7.01409 14.32042,10.81338c10.22887,7.01409 21.62676,14.61267 33.02465,21.33451c5.84507,3.21478 11.69014,6.42958 17.53522,9.64436c5.84507,3.21478 11.69014,6.13733 17.24296,9.05985c5.26056,2.92253 10.81338,5.26056 16.3662,7.30634c5.55282,1.75353 10.81338,3.21478 15.78169,3.79929c4.96831,0.58451 9.64436,0.87676 13.73591,0.87676c4.09155,0 7.5986,-0.29225 10.52113,-0.87676c5.84507,-0.87676 9.05985,-2.04578 9.05985,-2.04578c0,0 -3.21478,1.16902 -8.7676,2.63027z"/><path d="M423.66196,424.02972c0.58451,-1.16902 1.75353,-3.21478 1.75353,-5.84507c0,-2.63027 -0.87676,-5.84507 -2.92253,-8.7676c-2.04578,-2.92253 -4.96831,-5.84507 -8.47535,-8.7676c-1.75353,-1.46127 -3.79929,-2.63027 -5.55282,-4.3838c-2.04578,-1.46127 -3.79929,-3.21478 -5.84507,-4.96831c-3.79929,-3.50704 -7.89084,-7.30634 -11.9824,-11.10564c-4.09155,-4.09155 -8.18309,-8.18309 -12.85916,-11.9824c-4.67605,-3.79929 -9.35211,-7.5986 -14.32042,-11.10564c-4.96831,-3.50704 -9.93662,-7.30634 -14.32042,-11.39789c-4.3838,-4.09155 -8.47535,-8.47535 -11.39789,-13.73591c-1.46127,-2.63027 -2.63027,-5.26056 -3.50704,-7.89084c-1.16902,-2.63027 -1.75353,-5.26056 -2.33804,-7.89084c-1.46127,-4.96831 -2.33804,-9.93662 -3.21478,-14.32042c-1.75353,-9.05985 -2.92253,-16.3662 -4.09155,-21.62676c-1.46127,-5.26056 -2.04578,-8.18309 -2.04578,-8.18309c0,0 0.29225,0.58451 0.87676,2.04578c0.58451,1.46127 1.16902,3.21478 2.04578,5.84507c0.87676,2.63027 1.75353,5.84507 2.63027,9.35211c0.87676,3.79929 1.75353,7.89084 2.63027,12.27465c0.87676,4.67605 2.04578,9.35211 3.50704,14.32042c1.46127,4.96831 2.92253,10.22887 5.84507,14.90493c2.92253,4.67605 6.42958,9.05985 10.81338,13.1514c4.09155,3.79929 9.05985,7.5986 13.73591,11.39789c4.96831,3.79929 9.64436,7.5986 14.02816,11.69014c4.3838,4.09155 8.47535,8.18309 12.56691,12.27465c3.79929,4.09155 7.89084,7.89084 11.69014,11.39789c1.75353,1.75353 3.79929,3.50704 5.55282,4.96831c1.75353,1.46127 3.79929,2.92253 5.55282,4.3838c3.50704,3.21478 6.42958,6.13733 8.47535,9.35211c2.04578,3.21478 2.92253,6.42958 2.63027,9.05985c-0.29225,2.92253 -1.16902,4.67605 -2.04578,5.84507c-0.87676,1.16902 -1.46127,1.75353 -1.46127,1.75353c0,0 0.58451,-0.58451 2.04578,-2.04578z"/></g><path d="M394.72887,433.38183c-1.46127,-1.75353 -3.79929,-4.67605 -0.58451,-4.96831c3.21478,-0.29225 5.84507,7.01409 5.84507,8.7676c0,1.16902 -3.79929,-2.04578 -5.26056,-3.79929z" fill="#6c5f57"/><path d="M411.38733,431.6283c-1.46127,-1.75353 -3.79929,-4.96831 -0.58451,-4.96831c3.21478,-0.29225 5.84507,7.01409 5.84507,8.7676c0,1.16902 -3.79929,-2.04578 -5.26056,-3.79929z" fill="#6c5f57"/><path d="M420.73944,423.73747c-1.46127,-1.75353 -3.79929,-4.67605 -0.58451,-4.96831c3.21478,-0.29225 5.84507,7.01409 5.84507,8.7676c0,1.16902 -3.50704,-1.75353 -5.26056,-3.79929z" fill="#6c5f57"/></g><g stroke-width="1"><path d="M267.89084,160.70929c37.99296,32.44014 36.53169,131.51409 36.53169,131.51409c64.00353,170.67605 -44.42253,291.66901 -108.42605,307.74296c-68.09507,16.95071 -156.94014,0 -169.50703,-93.81338c-19.28873,-145.25 63.12676,-277.34859 63.12676,-277.34859c3.50704,-42.66902 23.08804,-92.35211 23.08804,-92.35211" data-paper-data="{&quot;origPos&quot;:null}" fill="#8d674a"/><path d="M41.97888,343.36774c-1.75353,5.84507 -4.09155,14.02816 -6.42958,24.25704c-1.16902,4.96831 -2.33804,10.52113 -3.50704,16.3662c-1.16902,5.84507 -2.33804,11.9824 -3.21478,18.41196c-1.16902,6.42958 -2.04578,13.1514 -2.63027,19.87324c-0.58451,6.72184 -1.16902,13.44365 -1.46127,20.45775c-0.29225,7.01409 -0.58451,14.02816 -0.29225,20.75c0.29225,3.50704 0.29225,7.01409 0.58451,10.22887c0.29225,3.50704 0.58451,6.72184 0.87676,9.93662c0.29225,3.21478 0.58451,6.13733 1.16902,9.35211c0.29225,3.21478 0.87676,6.13733 1.46127,9.05985c0.58451,2.92253 1.16902,5.84507 1.75353,8.47535c0.58451,2.63027 1.16902,5.26056 2.04578,7.89084c1.16902,4.96831 2.63027,9.35211 4.09155,13.44365c1.16902,4.09155 2.63027,7.30634 3.79929,10.22887c2.63027,5.55282 4.09155,8.7676 4.09155,8.7676c0,0 -1.75353,-2.92253 -4.3838,-8.47535c-1.16902,-2.92253 -2.92253,-6.13733 -4.3838,-10.22887c-0.87676,-2.04578 -1.46127,-4.09155 -2.33804,-6.42958c-0.87676,-2.04578 -1.46127,-4.3838 -2.33804,-7.01409c-0.58451,-2.63027 -1.46127,-5.26056 -2.04578,-7.89084c-0.87676,-2.63027 -1.46127,-5.55282 -2.04578,-8.47535c-0.58451,-2.92253 -1.46127,-5.84507 -1.75353,-9.05985c-0.29225,-3.21478 -0.87676,-6.42958 -1.16902,-9.64436c-0.29225,-3.21478 -0.58451,-6.72184 -0.87676,-9.93662c-0.29225,-3.50704 -0.58451,-6.72184 -0.58451,-10.22887c-0.29225,-6.72184 -0.29225,-13.73591 0,-20.75c0.29225,-7.01409 0.58451,-14.02816 1.46127,-20.75c0.58451,-6.72184 1.46127,-13.44365 2.63027,-19.87324c2.04578,-12.85916 4.67605,-24.54929 7.30634,-34.77816c5.26056,-20.16549 10.52113,-33.02465 10.52113,-33.02465c0,0 -1.16902,3.21478 -2.33804,9.05985z" data-paper-data="{&quot;origPos&quot;:null}" fill="#59402f"/><path d="M319.61973,348.04379c2.04578,10.52113 3.79929,23.08804 4.67605,36.53169c0.87676,13.44365 0.87676,28.05634 -0.87676,42.37676c-0.87676,7.30634 -2.04578,14.32042 -3.79929,21.33451c-0.87676,3.50704 -1.75353,7.01409 -2.92253,10.22887c-0.87676,3.21478 -2.04578,6.42958 -3.21478,9.64436c-1.16902,3.21478 -2.33804,6.42958 -3.50704,9.35211c-1.16902,2.92253 -2.33804,5.84507 -3.50704,8.7676c-2.63027,5.55282 -5.26056,10.81338 -7.5986,15.78169c-2.63027,4.67605 -4.96831,9.05985 -7.30634,12.85916c-2.04578,3.79929 -4.3838,7.01409 -6.13733,9.64436c-3.79929,5.26056 -6.13733,7.89084 -6.13733,7.89084c0,0 2.04578,-2.92253 5.55282,-8.18309c1.75353,-2.63027 3.79929,-5.84507 5.84507,-9.64436c2.33804,-3.79929 4.67605,-8.18309 7.01409,-12.85916c2.33804,-4.67605 4.67605,-9.93662 7.01409,-15.78169c2.33804,-5.55282 4.67605,-11.69014 6.72184,-18.11973c1.16902,-2.92253 2.33804,-6.42958 3.21478,-9.64436c1.16902,-3.21478 2.04578,-6.42958 2.92253,-9.93662c1.75353,-7.01409 2.92253,-14.02816 3.79929,-21.04225c1.75353,-14.32042 2.04578,-28.64084 1.16902,-42.08451c-0.58451,-13.44365 -2.33804,-26.01056 -4.09155,-36.53169c-3.50704,-21.33451 -7.89084,-35.07042 -7.89084,-35.07042c0,0 4.67605,13.73591 9.05985,34.48591z" data-paper-data="{&quot;origPos&quot;:null}" fill="#59402f"/><path d="M216.16197,592.36774c-4.3838,1.75353 -10.81338,4.3838 -18.99647,6.72184c-4.09155,1.16902 -8.47535,2.33804 -13.1514,3.21478c-4.67605,0.87676 -9.64436,1.75353 -14.90493,2.33804c-5.26056,0.58451 -10.52113,0.87676 -16.07395,0.87676c-5.55282,0.29225 -11.10564,0 -16.65845,-0.58451c-2.92253,-0.29225 -5.84507,-0.87676 -8.47535,-1.16902c-2.63027,-0.58451 -5.55282,-1.16902 -8.18309,-1.75353c-5.26056,-1.16902 -10.52113,-2.63027 -15.48944,-4.3838c-4.96831,-1.75353 -9.64436,-3.79929 -14.02816,-5.84507c-2.04578,-1.16902 -4.09155,-2.04578 -6.13733,-3.21478c-1.75353,-0.87676 -3.79929,-2.04578 -5.55282,-3.21478c-3.50704,-2.04578 -6.72184,-4.3838 -9.35211,-6.42958c-2.63027,-2.04578 -4.96831,-3.79929 -6.72184,-5.55282c-3.79929,-3.50704 -5.84507,-5.26056 -5.84507,-5.26056c0,0 2.04578,1.75353 5.84507,4.96831c1.75353,1.46127 4.3838,3.21478 7.01409,5.26056c1.16902,0.87676 2.92253,1.75353 4.3838,2.92253c1.46127,0.87676 3.21478,2.33804 4.96831,3.21478c1.75353,1.16902 3.50704,2.04578 5.55282,3.21478c1.75353,1.16902 4.09155,2.04578 6.13733,3.21478c4.09155,2.04578 8.7676,3.79929 13.73591,5.55282c4.96831,1.75353 10.22887,3.21478 15.48944,4.3838c2.63027,0.58451 5.55282,0.87676 8.18309,1.46127c2.63027,0.29225 5.55282,0.58451 8.18309,0.87676c5.26056,0.58451 10.81338,0.87676 16.3662,0.87676c5.55282,0 10.81338,-0.29225 16.07395,-0.87676c10.52113,-1.16902 19.87324,-2.92253 28.05634,-4.96831c8.18309,-2.33804 14.61267,-4.3838 19.28873,-6.13733c4.3838,-1.75353 7.01409,-2.92253 7.01409,-2.92253c0,0 -2.33804,1.46127 -6.72184,3.21478z" data-paper-data="{&quot;origPos&quot;:null}" fill="#59402f"/><path d="M279.87324,171.52267c1.46127,2.04578 3.50704,5.26056 5.55282,9.35211c1.16902,2.04578 2.33804,4.3838 3.21478,6.72184c0.87676,2.33804 2.04578,4.96831 2.92253,7.5986c0.87676,2.63027 1.75353,5.26056 2.63027,8.18309c0.87676,2.92253 1.75353,5.84507 2.33804,8.7676c0.58451,2.92253 1.16902,5.84507 1.75353,8.7676c0.58451,2.92253 1.16902,5.55282 1.46127,8.47535c0.29225,2.92253 0.58451,5.55282 0.87676,8.18309c0.29225,2.63027 0.29225,4.96831 0.58451,7.30634c0.29225,4.3838 0.29225,8.18309 0.29225,10.81338c0,2.63027 0,4.09155 0,4.09155c0,0 0,-1.46127 -0.29225,-4.09155c-0.29225,-2.63027 -0.58451,-6.42958 -1.16902,-10.81338c-0.29225,-2.33804 -0.58451,-4.67605 -0.87676,-7.30634c-0.29225,-2.33804 -0.58451,-5.26056 -1.16902,-7.89084c-0.29225,-2.92253 -0.87676,-5.55282 -1.46127,-8.47535c-0.58451,-2.92253 -1.46127,-5.84507 -2.04578,-8.7676c-0.58451,-2.92253 -1.75353,-5.55282 -2.33804,-8.47535c-0.87676,-2.92253 -1.75353,-5.55282 -2.63027,-8.18309c-1.16902,-2.63027 -2.04578,-5.26056 -2.92253,-7.5986c-0.87676,-2.33804 -2.04578,-4.67605 -2.92253,-6.72184c-2.04578,-4.09155 -3.50704,-7.30634 -4.96831,-9.64436c-1.46127,-2.33804 -2.33804,-3.50704 -2.33804,-3.50704c0,0 1.16902,1.16902 3.50704,3.21478z" data-paper-data="{&quot;origPos&quot;:null}" fill="#59402f"/></g><g stroke-width="1"><path d="M233.11268,217.69872c0,0 21.04225,15.48944 23.67253,25.42605l-8.47535,-3.50704c0,0 15.48944,14.61267 15.19718,27.47184l-5.84507,-4.96831c0,0 15.48944,18.41196 8.18309,36.23944l-3.50704,-6.42958c0,0 -4.67605,23.08804 1.75353,29.5176l-6.13733,-1.46127c0,0 -1.46127,24.25704 -10.81338,26.30282" fill="#8d674a"/><path d="M239.25,221.79029c2.63027,1.75353 5.84507,4.3838 8.7676,7.30634c1.46127,1.46127 2.92253,3.21478 4.09155,4.67605c0.58451,0.87676 0.87676,1.46127 1.46127,2.33804c0.58451,0.87676 0.87676,1.75353 1.16902,2.33804c0.58451,0.87676 0.58451,1.46127 0.87676,2.04578c0.29225,0.58451 0.58451,0.87676 0.58451,1.46127c0.29225,0.87676 0.29225,1.46127 0.29225,1.46127c0,0 -0.29225,-0.29225 -0.58451,-1.16902c-0.29225,-0.58451 -0.58451,-0.87676 -0.87676,-1.46127c-0.29225,-0.58451 -0.58451,-1.16902 -1.16902,-1.75353c-1.75353,-2.63027 -4.3838,-5.55282 -7.30634,-8.47535c-2.63027,-2.92253 -5.55282,-5.84507 -7.89084,-7.89084c-2.33804,-2.04578 -3.79929,-3.50704 -3.79929,-3.50704c0,0 1.75353,1.16902 4.3838,2.63027z" fill="#59402f"/><path d="M251.52466,243.12478c2.04578,2.33804 4.67605,5.26056 6.72184,8.47535c1.16902,1.46127 2.04578,3.21478 2.92253,4.96831c0.87676,1.46127 1.46127,3.21478 1.75353,4.67605c0.29225,0.87676 0.29225,1.46127 0.29225,2.04578c0,0.58451 0,1.16902 0,1.46127c-0.29225,0.87676 -0.29225,1.46127 -0.29225,1.46127c0,0 0,-0.58451 0,-1.46127c0,-0.29225 -0.29225,-0.87676 -0.29225,-1.46127c0,-0.58451 -0.29225,-1.16902 -0.58451,-1.75353c-0.29225,-1.46127 -1.16902,-2.92253 -2.04578,-4.3838c-0.87676,-1.46127 -1.75353,-3.21478 -2.92253,-4.67605c-2.04578,-3.21478 -4.09155,-6.42958 -5.84507,-8.7676c-1.46127,-2.63027 -2.63027,-4.09155 -2.63027,-4.09155c0,0 1.46127,1.16902 2.92253,3.50704z" fill="#59402f"/><path d="M261.46128,267.38183c1.16902,1.75353 2.33804,3.50704 3.21478,5.55282c1.16902,2.04578 2.04578,4.3838 2.63027,6.72184c0.29225,1.16902 0.58451,2.33804 0.87676,3.50704c0,1.16902 0.29225,2.33804 0.29225,3.50704c0,1.16902 0.29225,2.33804 0,3.50704c0,0.87676 0,2.04578 -0.29225,2.92253c-0.29225,0.87676 -0.29225,1.46127 -0.58451,2.33804c-0.29225,0.58451 -0.58451,1.16902 -0.87676,1.75353c-0.29225,0.87676 -0.58451,1.46127 -0.58451,1.46127c0,0 0,-0.58451 0.29225,-1.75353c0,-0.29225 0,-1.16902 0.29225,-1.75353c0,-0.58451 0.29225,-1.46127 0.29225,-2.33804c0,-0.87676 0,-2.04578 0,-2.92253c0,-1.16902 -0.29225,-2.04578 -0.29225,-3.21478c0,-1.16902 -0.29225,-2.33804 -0.58451,-3.50704c-0.29225,-1.16902 -0.58451,-2.33804 -0.87676,-3.50704c-1.16902,-4.67605 -3.21478,-9.05985 -4.96831,-12.27465c-1.46127,-3.21478 -2.92253,-5.26056 -2.92253,-5.26056c0,0 1.75353,1.46127 4.09155,5.26056z" fill="#59402f"/><path d="M262.04578,296.89943c0,1.16902 -0.29225,2.92253 -0.29225,4.67605c-0.29225,1.75353 -0.29225,3.79929 -0.29225,5.55282c0,2.04578 0,3.79929 0.29225,5.55282c0,0.58451 0.29225,1.46127 0.29225,2.33804c0.29225,0.87676 0.58451,1.75353 0.58451,2.33804c0.29225,0.58451 0.29225,1.16902 0.58451,1.75353c0.29225,0.58451 0.58451,1.16902 0.58451,1.46127c0.29225,0.58451 0.58451,1.16902 0.58451,1.16902c0,0 -0.29225,-0.58451 -0.87676,-1.16902c-0.29225,-0.29225 -0.58451,-0.58451 -0.87676,-1.16902c-0.29225,-0.58451 -0.58451,-1.16902 -0.87676,-1.75353c-0.58451,-1.16902 -1.16902,-2.92253 -1.46127,-4.67605c-0.29225,-1.75353 -0.58451,-3.50704 -0.58451,-5.55282c0,-1.75353 0,-3.79929 0.29225,-5.55282c0.29225,-2.04578 0.58451,-3.50704 0.87676,-4.96831c0.58451,-2.92253 1.46127,-4.67605 1.46127,-4.67605c0,0 -0.29225,2.04578 -0.29225,4.67605z" fill="#59402f"/><path d="M258.24648,325.83254c0,1.46127 -0.29225,3.21478 -0.58451,4.96831c-0.29225,1.75353 -0.87676,3.79929 -1.46127,5.55282c-0.58451,1.75353 -1.46127,3.50704 -2.33804,5.26056c-0.87676,1.46127 -2.04578,2.92253 -2.92253,4.09155c-0.58451,0.58451 -1.16902,1.16902 -1.46127,1.46127c-0.29225,0.29225 -0.87676,0.58451 -1.16902,0.87676c-0.87676,0.58451 -1.16902,0.87676 -1.16902,0.87676c0,0 0.29225,-0.58451 0.87676,-1.16902c0.29225,-0.29225 0.58451,-0.58451 0.87676,-1.16902c0.29225,-0.58451 0.87676,-1.16902 1.16902,-1.75353c0.29225,-0.58451 0.87676,-1.46127 1.16902,-2.04578c0.29225,-0.87676 0.87676,-1.46127 1.16902,-2.33804c0.87676,-1.75353 1.46127,-3.50704 2.04578,-5.26056c0.58451,-1.75353 1.16902,-3.50704 1.46127,-5.26056c0.58451,-1.75353 0.87676,-3.21478 1.16902,-4.67605c0.58451,-2.63027 0.87676,-4.67605 0.87676,-4.67605c0,0 0.29225,1.75353 0.29225,5.26056z" fill="#59402f"/></g><g stroke-width="1"><path d="M154.49648,534.50154c0,0 5.55282,64.58803 -42.37676,132.68309c-23.96478,33.9014 -29.22535,60.49647 -24.84155,67.80282c4.3838,7.30634 19.28873,13.44365 15.19718,17.53522c-4.3838,4.09155 -57.8662,6.72184 -69.55634,0.29225c-4.96831,-2.63027 -14.61267,-81.53873 -8.47535,-115.7324c5.84507,-34.19365 11.9824,-45.29929 10.81338,-70.43309c-1.16902,-25.1338 -14.32042,-68.67958 -4.09155,-87.67605c9.93662,-18.99647 38.57747,-49.68309 82.12324,-29.80985c43.54578,19.87324 42.96127,68.38733 41.20774,85.33803z" fill="#8d674a"/><path d="M79.09508,753.39942c-0.87676,-1.16902 -1.75353,-2.63027 -2.92253,-3.79929c-0.87676,-1.16902 -2.04578,-2.63027 -2.92253,-3.50704c-0.58451,-0.58451 -0.87676,-0.87676 -1.16902,-1.16902c-0.29225,-0.29225 -0.29225,-0.58451 -0.29225,-0.58451c0,0 0.87676,0.29225 2.04578,0.87676c1.16902,0.58451 2.63027,1.75353 3.79929,3.21478c1.16902,1.46127 2.04578,2.92253 2.33804,4.3838c0.29225,1.46127 0.29225,2.33804 0.29225,2.33804c0,0 -0.29225,-0.87676 -1.16902,-1.75353z" fill="#59402f"/><path d="M94.00001,752.23041c-0.87676,-1.16902 -2.04578,-2.63027 -3.50704,-4.09155c-1.46127,-1.46127 -2.92253,-2.92253 -4.09155,-3.79929c-0.58451,-0.58451 -1.16902,-0.87676 -1.46127,-1.16902c-0.29225,-0.29225 -0.58451,-0.58451 -0.58451,-0.58451c0,0 0,0 0.58451,0c0.29225,0 0.87676,0.29225 1.75353,0.58451c0.58451,0.29225 1.46127,0.58451 2.33804,1.16902c0.87676,0.58451 1.46127,1.16902 2.33804,2.04578c1.46127,1.75353 2.63027,3.50704 3.21478,4.96831c0.87676,1.46127 0.87676,2.63027 0.87676,2.63027c0,0 -0.58451,-0.87676 -1.46127,-1.75353z" fill="#59402f"/><path d="M72.6655,755.44521c-1.75353,-1.75353 -3.79929,-4.67605 -0.87676,-4.96831c3.21478,-0.29225 6.13733,6.72184 6.13733,8.47535c0.29225,1.16902 -3.50704,-1.75353 -5.26056,-3.50704z" fill="#6c5f57"/><path d="M87.57042,753.10717c-1.75353,-1.75353 -3.79929,-4.67605 -0.87676,-4.96831c3.21478,-0.29225 6.13733,6.72184 6.13733,8.47535c0.29225,1.16902 -3.50704,-1.75353 -5.26056,-3.50704z" fill="#6c5f57"/><path d="M96.92253,751.93815c-1.75353,-1.75353 -3.79929,-4.67605 -0.87676,-4.96831c3.21478,-0.29225 6.13733,6.72184 6.13733,8.47535c0.29225,0.87676 -3.50704,-1.75353 -5.26056,-3.50704z" fill="#6c5f57"/><g><path d="M25.90493,667.4769c-12.85916,-8.18309 -6.42958,-26.88733 -6.42958,-26.88733l-6.42958,9.64436c-2.92253,-11.69014 5.55282,-30.39436 5.55282,-30.39436l-7.5986,3.79929c1.16902,-12.27465 12.27465,-18.99647 12.27465,-18.99647c-4.3838,4.96831 -11.10564,0.87676 -11.10564,0.87676c6.42958,-0.58451 23.67253,-30.97887 23.67253,-30.97887" fill="#8d674a"/><path d="M13.92253,604.64239c0.58451,-0.58451 1.75353,-1.46127 2.63027,-2.63027c2.04578,-2.04578 4.3838,-5.55282 6.72184,-8.7676c2.33804,-3.21478 4.67605,-6.42958 6.42958,-9.05985c2.04578,-2.33804 3.21478,-4.09155 3.21478,-4.09155c0,0 -0.58451,1.75353 -2.04578,4.67605c-0.87676,1.46127 -1.75353,2.92253 -2.63027,4.67605c-0.87676,1.46127 -2.04578,3.21478 -3.21478,4.96831c-2.33804,3.21478 -5.26056,6.42958 -7.5986,8.47535c-1.16902,0.87676 -2.33804,1.75353 -3.21478,2.04578c-0.87676,0.29225 -1.46127,0.29225 -1.46127,0.29225c0,0 0.58451,-0.29225 1.16902,-0.58451z" fill="#59402f"/><path d="M11.58452,620.71633c0,-0.87676 0.29225,-2.04578 0.58451,-3.21478c0.29225,-1.16902 0.87676,-2.33804 1.46127,-3.50704c0.58451,-1.16902 1.16902,-2.33804 2.04578,-3.21478c0.58451,-1.16902 1.46127,-1.75353 2.33804,-2.33804c0.87676,-0.58451 1.46127,-0.87676 2.04578,-1.16902c0.58451,-0.29225 0.87676,-0.29225 0.87676,-0.29225c0,0 -0.29225,0.29225 -0.58451,0.58451c-0.29225,0.58451 -0.87676,1.16902 -1.46127,1.75353c-0.58451,0.58451 -1.16902,1.46127 -1.75353,2.33804c-0.58451,0.87676 -1.16902,1.75353 -1.75353,2.92253c-1.16902,2.04578 -2.04578,4.09155 -2.63027,5.84507c-0.87676,1.75353 -1.16902,2.92253 -1.16902,2.92253c0,0 -0.29225,-1.16902 0,-2.63027z" fill="#59402f"/><path d="M12.46128,647.31141c-0.29225,-0.58451 -0.58451,-1.75353 -0.87676,-3.21478c-0.29225,-1.46127 -0.29225,-3.21478 -0.29225,-4.96831c0,-1.75353 0.58451,-3.79929 0.87676,-5.55282c0.58451,-1.75353 1.16902,-3.50704 1.75353,-5.26056c0.58451,-1.75353 1.46127,-3.21478 2.04578,-4.3838c0.58451,-1.16902 1.46127,-2.33804 1.75353,-2.92253c0.29225,-0.87676 0.58451,-1.16902 0.58451,-1.16902c0,0 0,0.29225 -0.29225,1.16902c0,0.87676 -0.58451,1.75353 -0.87676,3.21478c-0.58451,1.46127 -0.87676,2.92253 -1.46127,4.67605c-0.58451,1.75353 -1.16902,3.50704 -1.46127,5.26056c-0.29225,1.75353 -0.58451,3.50704 -0.87676,5.26056c-0.29225,1.75353 -0.29225,3.21478 -0.29225,4.67605c-0.29225,2.92253 0.29225,4.67605 0.29225,4.67605c0,0 -0.29225,-0.58451 -0.87676,-1.46127z" fill="#59402f"/><path d="M21.22888,664.2621c-0.29225,-0.58451 -1.16902,-1.16902 -1.75353,-2.33804c-0.58451,-1.16902 -1.16902,-2.33804 -1.46127,-3.79929c-0.29225,-1.46127 -0.58451,-3.21478 -0.58451,-4.67605c0,-0.87676 0,-1.46127 0,-2.33804c0,-0.87676 0.29225,-1.75353 0.29225,-2.33804c0,-1.46127 0.29225,-2.63027 0.58451,-3.79929c0.58451,-2.33804 1.16902,-3.79929 1.16902,-3.79929c0,0 0,1.46127 0,3.79929c0,2.33804 0,5.26056 0,8.18309c0,2.92253 0.58451,5.84507 1.16902,7.89084c0.29225,0.87676 0.87676,1.75353 1.16902,2.33804c0.29225,0.58451 0.58451,0.87676 0.58451,0.87676c0,0 -0.29225,-0.29225 -1.16902,0z" fill="#59402f"/></g><path d="M22.69015,667.4769c0.58451,5.26056 0.87676,11.39789 1.16902,18.11973c0.58451,6.72184 0.87676,13.73591 1.46127,20.75c0.29225,7.01409 0.87676,14.02816 1.75353,20.45775c0.58451,6.72184 1.46127,12.56691 2.63027,17.82747c0.58451,2.33804 1.16902,4.67605 2.04578,6.72184c0,0.58451 0.29225,1.16902 0.58451,1.46127l0.29225,0.58451c0.29225,0 0.29225,0.29225 0.58451,0.29225c0.87676,0.29225 1.75353,0.58451 2.33804,0.87676c2.92253,0.87676 4.67605,1.16902 4.67605,1.16902c0,0 -1.75353,0 -4.67605,-0.87676c-0.58451,-0.29225 -1.46127,-0.58451 -2.33804,-0.87676c-0.29225,-0.29225 -0.29225,-0.29225 -0.58451,-0.58451l-0.29225,-0.58451c-0.29225,-0.58451 -0.58451,-0.87676 -0.87676,-1.46127c-0.87676,-2.04578 -1.75353,-4.3838 -2.33804,-7.01409c-1.16902,-5.26056 -2.33804,-11.39789 -3.21478,-17.82747c-0.87676,-6.72184 -1.46127,-13.73591 -2.04578,-20.75c-0.58451,-7.01409 -0.87676,-14.02816 -1.16902,-20.75c-0.29225,-6.72184 -0.58451,-12.85916 -0.58451,-18.11973c-0.29225,-10.52113 0,-17.53522 0,-17.53522c0,0 0.29225,7.01409 0.58451,18.11973z" fill="#59402f"/><path d="M152.74297,572.20225c-1.16902,5.26056 -2.92253,12.85916 -5.55282,21.62676c-1.46127,4.3838 -2.92253,9.35211 -4.3838,14.32042c-1.75353,4.96831 -3.50704,10.52113 -5.55282,15.78169c-2.04578,5.55282 -4.3838,11.10564 -7.30634,16.3662c-1.46127,2.92253 -3.21478,5.55282 -4.96831,7.89084c-1.75353,2.33804 -3.50704,4.96831 -4.96831,7.5986c-6.42958,10.52113 -12.56691,21.04225 -17.82747,31.27113c-4.96831,10.22887 -9.93662,19.87324 -13.1514,28.3486c-0.87676,2.04578 -1.16902,4.09155 -1.75353,6.13733c-0.58451,2.04578 -0.87676,4.09155 -1.16902,5.84507c-0.29225,1.75353 -0.29225,3.50704 0.29225,4.96831c0.58451,1.46127 1.46127,2.92253 2.33804,3.79929c1.75353,2.04578 3.21478,3.50704 4.3838,4.3838c1.16902,0.87676 1.75353,1.46127 1.75353,1.46127c0,0 -0.58451,-0.29225 -1.75353,-1.16902c-0.87676,-0.87676 -2.92253,-2.04578 -4.67605,-4.09155c-0.87676,-1.16902 -2.04578,-2.33804 -2.63027,-3.79929c-0.87676,-1.46127 -0.87676,-3.21478 -0.87676,-5.26056c0,-1.75353 0.58451,-3.79929 0.87676,-5.84507c0.58451,-2.04578 0.87676,-4.3838 1.75353,-6.42958c1.46127,-4.3838 3.50704,-9.05985 5.55282,-14.02816c2.04578,-4.96831 4.3838,-9.93662 7.01409,-15.19718c5.26056,-10.22887 11.10564,-21.04225 17.53522,-31.56338c1.75353,-2.33804 3.50704,-4.96831 5.26056,-7.5986c1.75353,-2.63027 3.50704,-4.96831 4.96831,-7.5986c2.92253,-4.96831 4.96831,-10.52113 7.30634,-15.78169c4.3838,-10.52113 7.89084,-20.75 10.52113,-29.5176c2.63027,-8.7676 4.96831,-16.07395 6.42958,-21.33451c1.46127,-5.26056 2.33804,-8.18309 2.33804,-8.18309c0,0 -0.58451,2.92253 -1.75353,7.5986z" fill="#59402f"/></g><path d="M105.9824,156.32549c-1.46127,4.96831 -3.50704,11.69014 -5.55282,18.11973c-0.87676,3.21478 -2.04578,6.42958 -2.92253,9.64436c-0.87676,3.21478 -1.75353,5.84507 -2.33804,8.47535c-0.29225,1.46127 -0.58451,2.63027 -0.87676,3.50704c-0.29225,0.87676 -0.58451,1.75353 -0.58451,2.63027c-0.29225,1.46127 -0.29225,2.33804 -0.29225,2.33804c0,0 0,-0.87676 0,-2.33804c0.29225,-1.46127 0.29225,-3.50704 0.87676,-6.13733c0.29225,-2.63027 0.87676,-5.55282 1.75353,-8.7676c0.87676,-2.92253 2.04578,-6.42958 2.92253,-9.64436c1.16902,-3.21478 2.04578,-6.72184 3.21478,-9.64436c1.16902,-2.92253 2.33804,-5.84507 3.21478,-8.18309c2.04578,-4.67605 3.50704,-7.89084 3.50704,-7.89084c0,0 -0.87676,3.50704 -2.92253,7.89084z" fill="#59402f" stroke-width="1"/><g stroke-width="1"><g><g fill="#8d674a"><path d="M165.30986,239.32549c-0.58451,58.45071 -9.93662,72.47887 -9.05985,90.01409c0.87676,17.53522 26.88733,54.06691 37.99296,77.44718c7.01409,14.61267 12.56691,25.42605 16.07395,33.9014c3.50704,8.47535 -9.64436,28.93309 -56.11267,6.42958c-14.90493,-7.30634 -101.41196,-96.1514 -108.1338,-158.69365c5.84507,-129.76056 120.40845,-130.92958 119.23943,-49.0986z"/><path d="M54.54579,322.61774c-13.73591,-7.30634 -8.7676,-26.30282 -8.7676,-26.30282l-5.55282,9.93662c-3.50704,-11.39789 3.21478,-30.68662 3.21478,-30.68662l-7.30634,4.3838c0,-12.27465 10.52113,-19.87324 10.52113,-19.87324c-3.79929,5.26056 -10.81338,1.75353 -10.81338,1.75353c6.42958,-0.87676 24.54929,-34.77816 24.54929,-34.77816"/></g><path d="M37.30282,260.95225c0.87676,-0.58451 1.75353,-1.75353 2.92253,-2.92253c2.04578,-2.63027 4.96831,-6.42958 7.30634,-10.22887c2.63027,-3.79929 4.96831,-7.89084 6.72184,-10.81338c2.04578,-2.92253 3.21478,-4.96831 3.21478,-4.96831c0,0 -0.29225,0.58451 -0.58451,1.46127c-0.29225,0.87676 -0.87676,2.33804 -1.46127,3.79929c-0.87676,1.46127 -1.46127,3.21478 -2.63027,5.26056c-0.58451,0.87676 -1.16902,2.04578 -1.75353,2.92253c-0.58451,0.87676 -1.16902,2.04578 -1.75353,2.92253c-2.63027,3.79929 -5.55282,7.5986 -8.18309,9.93662c-1.46127,1.16902 -2.63027,2.04578 -3.50704,2.63027c-0.87676,0.29225 -1.46127,0.58451 -1.46127,0.58451c0,0 0.58451,-0.29225 1.16902,-0.58451z" fill="#59402f"/><path d="M36.13381,276.14943c0,-0.87676 0,-2.04578 0.29225,-3.21478c0.29225,-1.16902 0.58451,-2.33804 1.16902,-3.50704c0.58451,-1.16902 1.16902,-2.33804 1.75353,-3.21478c0.87676,-0.87676 1.75353,-1.75353 2.33804,-2.33804c0.58451,-0.58451 1.16902,-0.87676 1.75353,-1.16902c0.58451,-0.29225 0.87676,-0.29225 0.87676,-0.29225c0,0 -0.29225,0.29225 -0.58451,0.58451c-0.58451,0.29225 -0.87676,1.16902 -1.46127,1.75353c-0.29225,0.87676 -0.87676,1.75353 -1.46127,2.63027c-0.58451,1.16902 -0.87676,2.04578 -1.46127,3.21478c-0.87676,2.04578 -1.46127,4.3838 -2.04578,6.13733c-0.58451,1.75353 -0.87676,2.92253 -0.87676,2.92253c0,0 -0.29225,-1.16902 -0.29225,-3.50704z" fill="#59402f"/><path d="M39.34861,304.20578c-0.29225,-0.58451 -0.87676,-1.75353 -1.16902,-3.21478c-0.29225,-1.46127 -0.58451,-3.21478 -0.58451,-4.96831c0,-1.75353 0,-3.79929 0.29225,-5.55282c0.29225,-2.04578 0.58451,-3.79929 1.16902,-5.55282c0.29225,-1.75353 0.87676,-3.21478 1.46127,-4.67605c0.58451,-1.46127 1.16902,-2.33804 1.46127,-3.21478c0.29225,-0.87676 0.58451,-1.16902 0.58451,-1.16902c0,0 0,0.29225 -0.29225,1.16902c0,0.58451 -0.29225,1.75353 -0.58451,3.21478c-0.29225,1.46127 -0.58451,2.92253 -0.87676,4.67605c-0.29225,1.75353 -0.58451,3.50704 -0.87676,5.26056c-0.29225,1.75353 -0.58451,3.50704 -0.58451,5.26056c0,1.75353 0,3.21478 0,4.67605c0.29225,2.92253 0.87676,4.67605 0.87676,4.67605c0,0 -0.29225,-0.29225 -0.87676,-0.58451z" fill="#59402f"/><path d="M52.20775,321.44872c-0.58451,-0.29225 -1.75353,-0.87676 -2.63027,-1.75353c-0.58451,-0.58451 -0.87676,-1.16902 -1.46127,-1.75353c-0.29225,-0.58451 -0.87676,-1.16902 -1.16902,-2.04578c-0.87676,-1.46127 -1.46127,-3.21478 -1.75353,-4.96831c0,-0.87676 -0.29225,-1.75353 -0.29225,-2.63027c0,-0.87676 0,-1.75353 0,-2.63027c0,-1.46127 0.29225,-3.21478 0.29225,-4.3838c0.29225,-1.46127 0.58451,-2.33804 0.58451,-3.21478c0.29225,-0.87676 0.29225,-1.16902 0.29225,-1.16902c0,0 0,0.29225 0,1.16902c0,0.87676 0,2.04578 0,3.21478c0,1.16902 0,2.92253 0.29225,4.3838c0,0.58451 0.29225,1.46127 0.29225,2.33804c0,0.58451 0,1.46127 0.29225,2.33804c0.29225,1.75353 0.87676,3.21478 1.46127,4.67605c0.58451,1.46127 1.16902,2.92253 2.04578,3.79929c1.46127,2.04578 2.92253,2.92253 2.92253,2.92253c0,0 -0.29225,0 -1.16902,-0.29225z" fill="#59402f"/><path d="M186.05986,454.42408c-0.29225,-1.16902 -0.58451,-2.92253 -1.16902,-4.3838c-0.58451,-1.46127 -1.16902,-3.21478 -1.46127,-4.3838c-0.29225,-0.58451 -0.58451,-1.16902 -0.58451,-1.46127c-0.29225,-0.29225 -0.29225,-0.58451 -0.29225,-0.58451c0,0 0.87676,0.58451 1.75353,1.75353c0.87676,0.87676 1.75353,2.63027 2.33804,4.3838c0.58451,1.75353 0.87676,3.50704 0.58451,4.96831c-0.29225,1.46127 -0.58451,2.33804 -0.58451,2.33804c0,0 -0.29225,-0.87676 -0.58451,-2.63027z" fill="#59402f"/><path d="M198.33451,453.54732c-0.29225,-1.46127 -0.87676,-3.50704 -1.75353,-5.26056c-0.58451,-1.75353 -1.46127,-3.50704 -2.33804,-4.96831c-0.29225,-0.87676 -0.58451,-1.46127 -0.87676,-1.75353c-0.29225,-0.29225 -0.29225,-0.58451 -0.29225,-0.58451c0,0 0.29225,0 0.58451,0.29225c0.29225,0.29225 0.87676,0.58451 1.46127,1.16902c0.58451,0.58451 1.16902,1.16902 1.75353,2.04578c0.58451,0.58451 1.16902,1.75353 1.46127,2.63027c0.87676,1.75353 1.16902,4.09155 1.16902,5.55282c0,1.46127 -0.29225,2.63027 -0.29225,2.63027c0,0 -0.29225,-0.87676 -0.87676,-1.75353z" fill="#59402f"/><g fill="#59402f"><path d="M180.7993,456.17759c-5.84507,-0.87676 -14.02816,-3.21478 -23.08804,-7.89084c-4.3838,-2.33804 -9.05985,-5.26056 -13.73591,-8.7676c-4.67605,-3.50704 -9.05985,-7.89084 -13.44365,-12.27465c-4.3838,-4.67605 -9.05985,-9.05985 -13.44365,-14.02816c-4.67605,-4.67605 -9.05985,-9.64436 -13.44365,-14.90493c-4.3838,-5.26056 -8.47535,-10.52113 -12.56691,-15.78169c-4.09155,-5.55282 -7.5986,-10.81338 -11.10564,-16.07395c-7.01409,-10.52113 -13.1514,-20.75 -17.53522,-29.80985c-4.67605,-9.05985 -7.5986,-17.24296 -9.05985,-22.79578c-1.75353,-5.55282 -2.04578,-9.05985 -2.04578,-9.05985c0,0 0.29225,0.87676 0.58451,2.33804c0.29225,1.46127 1.16902,3.79929 2.04578,6.42958c1.16902,2.63027 2.33804,5.84507 4.09155,9.64436c1.75353,3.79929 3.79929,7.89084 6.13733,12.27465c2.33804,4.3838 4.96831,9.05985 8.18309,14.02816c3.21478,4.96831 6.42958,9.93662 9.93662,15.19718c7.01409,10.52113 14.90493,21.33451 23.38027,31.56338c4.09155,5.26056 8.47535,10.22887 12.85916,15.19718c4.3838,4.96831 8.7676,9.64436 12.85916,14.32042c4.09155,4.67605 8.47535,8.7676 12.85916,12.56691c4.67605,3.50704 9.05985,6.72184 13.44365,9.05985c4.3838,2.33804 8.7676,4.3838 12.56691,5.55282c3.79929,1.46127 7.30634,2.33804 10.22887,2.92253c5.55282,1.16902 9.05985,1.16902 9.05985,1.16902c0,0 -3.50704,0.29225 -8.7676,-0.87676z"/><path d="M205.05635,453.83957c1.16902,-0.87676 2.92253,-2.33804 3.79929,-4.67605c0.87676,-2.33804 1.16902,-5.84507 0.29225,-9.35211c-0.87676,-3.79929 -2.63027,-7.5986 -4.96831,-11.39789c-1.16902,-2.04578 -2.63027,-4.09155 -3.79929,-6.13733c-1.46127,-2.04578 -2.63027,-4.3838 -3.79929,-6.72184c-2.33804,-4.67605 -4.67605,-9.64436 -7.30634,-14.61267c-2.63027,-4.96831 -4.96831,-10.22887 -7.89084,-15.48944c-2.92253,-4.96831 -6.42958,-10.22887 -9.64436,-15.19718c-3.21478,-5.26056 -6.72184,-10.52113 -9.35211,-15.78169c-2.63027,-5.55282 -4.96831,-11.10564 -5.84507,-16.95071c-0.29225,-2.63027 -0.58451,-5.55282 -0.58451,-8.47535c0,-2.92253 0.29225,-5.55282 0.58451,-8.18309c0.58451,-5.26056 1.16902,-10.22887 2.04578,-14.61267c1.75353,-9.05985 3.21478,-16.3662 3.79929,-21.62676c0.58451,-5.26056 0.87676,-8.18309 0.87676,-8.18309c0,0 0,0.58451 0,2.04578c0,1.46127 -0.29225,3.50704 -0.29225,6.13733c-0.29225,2.63027 -0.58451,5.84507 -0.87676,9.64436c-0.58451,3.50704 -1.16902,7.89084 -1.75353,12.27465c-0.58451,4.67605 -0.87676,9.35211 -1.46127,14.61267c-0.58451,5.26056 -0.87676,10.52113 0.29225,16.07395c0.87676,5.26056 2.92253,10.81338 5.55282,16.07395c2.63027,5.26056 5.84507,10.22887 9.05985,15.48944c3.21478,5.26056 6.42958,10.52113 9.05985,15.78169c2.63027,5.26056 5.26056,10.52113 7.5986,15.78169c2.63027,4.96831 4.96831,9.93662 7.30634,14.61267c1.16902,2.33804 2.33804,4.67605 3.50704,6.72184c1.16902,2.04578 2.33804,4.09155 3.50704,6.13733c2.33804,4.09155 3.79929,7.89084 4.67605,11.69014c0.87676,3.79929 0.58451,7.30634 -0.58451,9.64436c-0.87676,2.33804 -2.63027,3.79929 -3.79929,4.67605c-1.16902,0.58451 -2.04578,0.87676 -2.04578,0.87676c0,0 0.58451,-0.29225 2.04578,-0.87676z"/></g><path d="M175.24648,452.3783c-0.87676,-2.33804 -1.75353,-5.84507 1.16902,-4.96831c2.92253,0.87676 2.92253,8.7676 2.33804,10.22887c-0.29225,1.16902 -2.92253,-2.92253 -3.50704,-5.26056z" fill="#6c5f57"/><path d="M191.61268,456.46985c-0.87676,-2.33804 -1.75353,-5.84507 1.16902,-4.96831c2.92253,0.87676 2.92253,8.7676 2.33804,10.22887c-0.29225,1.16902 -2.92253,-2.92253 -3.50704,-5.26056z" fill="#6c5f57"/><path d="M203.01057,452.3783c-0.87676,-2.33804 -1.75353,-5.84507 1.16902,-4.96831c2.92253,0.87676 2.92253,8.7676 2.33804,10.22887c-0.29225,1.16902 -2.63027,-2.92253 -3.50704,-5.26056z" fill="#6c5f57"/></g><path d="M111.53522,186.4276c-1.46127,0.29225 -3.50704,0.58451 -5.84507,0.87676c-1.16902,0.29225 -2.63027,0.58451 -3.79929,0.87676c-1.46127,0.29225 -2.63027,0.87676 -4.09155,1.16902c-1.46127,0.58451 -2.92253,1.16902 -4.3838,1.75353c-1.46127,0.58451 -2.63027,1.16902 -4.09155,2.04578c-1.46127,0.58451 -2.92253,1.46127 -4.09155,2.33804c-1.16902,0.58451 -2.33804,1.75353 -3.50704,2.63027c-1.16902,0.87676 -2.33804,2.04578 -3.21478,2.92253c-1.16902,0.87676 -1.75353,2.04578 -2.63027,2.92253c-0.87676,1.16902 -1.46127,1.75353 -2.04578,2.63027c-0.58451,0.87676 -1.16902,1.46127 -1.46127,2.04578c-0.58451,1.16902 -1.16902,1.75353 -1.16902,1.75353c0,0 0.29225,-0.87676 0.87676,-2.04578c0.29225,-0.58451 0.87676,-1.46127 1.16902,-2.33804c0.29225,-1.16902 1.16902,-2.04578 1.75353,-2.92253c0.58451,-1.16902 1.46127,-2.33804 2.33804,-3.21478c0.87676,-1.16902 1.75353,-2.33804 2.92253,-3.21478c1.16902,-0.87676 2.04578,-2.04578 3.50704,-2.92253c1.16902,-0.87676 2.63027,-1.75353 4.09155,-2.63027c1.46127,-0.87676 2.92253,-1.46127 4.3838,-2.04578c1.46127,-0.58451 2.92253,-0.87676 4.3838,-1.46127c1.46127,-0.29225 2.92253,-0.58451 4.3838,-0.87676c1.16902,-0.29225 2.63027,-0.58451 3.79929,-0.58451c2.33804,-0.29225 4.3838,0 5.84507,0c1.46127,0 2.33804,0.29225 2.33804,0.29225c0,0 -0.87676,0 -1.46127,0z" fill="#59402f"/></g><g stroke-width="1"><g><path d="M155.95775,177.17281c-31.85564,-2.63027 -34.48591,-19.58098 -34.48591,-19.58098l-0.87676,9.05985c-18.11973,-12.85916 -18.11973,-31.85564 -18.11973,-31.85564l-3.50704,7.01409c-7.01409,-13.1514 -3.50704,-28.05634 -3.50704,-28.05634l-4.09155,7.01409c-4.96831,-20.75 2.04578,-26.88733 2.04578,-26.88733c-2.33804,3.79929 -9.35211,4.3838 -9.35211,4.3838c8.47535,-9.05985 15.48944,-34.48591 15.48944,-34.48591" fill="#8d674a"/><path d="M306.76057,63.77845c0,0 7.01409,25.42605 15.48944,34.48591c0,0 -7.01409,-0.58451 -9.35211,-4.3838c0,0 7.01409,6.13733 2.04578,26.88733l-4.09155,-7.01409c0,0 3.50704,14.90493 -3.50704,28.05634l-3.50704,-7.01409c0,0 0,18.99647 -18.11973,31.85564l-0.87676,-9.05985c0,0 -2.63027,16.95071 -34.48591,19.58098" fill="#8d674a"/><path d="M151.8662,177.17281c-32.44014,-10.52113 -81.53873,-53.19014 -45.8838,-133.55985c35.65493,-80.36973 111.64084,-70.14084 146.12676,-54.35916c26.01056,11.69014 49.0986,56.40493 56.40493,80.36973c7.30634,23.96478 3.21478,75.98591 -26.01056,95.85916c-33.31691,22.50353 -98.19718,22.21127 -130.63732,11.69014z" fill="#8d674a"/><path d="M172.12229,63.29039c0.84753,1.32098 1.37066,3.14757 1.37066,5.16412c0,2.01655 -0.52314,3.84314 -1.37066,5.16412c-0.84753,1.3239 -2.01655,2.14223 -3.30539,2.14223c-1.28884,0 -2.45785,-0.81831 -3.30539,-2.14223c-0.84753,-1.32098 -1.37066,-3.14757 -1.37066,-5.16412c0,-2.01655 0.52314,-3.84314 1.37066,-5.16412c0.84753,-1.3239 2.01655,-2.14223 3.30539,-2.14223c1.28884,0 2.45785,0.81831 3.30539,2.14223z" fill="#332010"/><path d="M243.1399,63.29039c0.84753,1.32098 1.37066,3.14757 1.37066,5.16412c0,2.01655 -0.52314,3.84314 -1.37066,5.16412c-0.84753,1.3239 -2.01655,2.14223 -3.30539,2.14223c-1.28884,0 -2.45785,-0.81831 -3.30539,-2.14223c-0.84753,-1.32098 -1.37066,-3.14757 -1.37066,-5.16412c0,-2.01655 0.52314,-3.84314 1.37066,-5.16412c0.84753,-1.3239 2.01655,-2.14223 3.30539,-2.14223c1.28884,0 2.45785,0.81831 3.30539,2.14223z" fill="#332010"/><path d="M233.40493,154.96154c0,0 -17.82747,22.21127 -35.94718,0.87676c0,0 -18.70422,-2.63027 -18.70422,-20.45775c0,-17.82747 9.35211,-66.6338 32.44014,-65.75704c14.61267,0.58451 35.94718,39.16196 35.94718,62.25c0,23.08804 -13.73591,23.08804 -13.73591,23.08804z" fill="#9e7b5c"/><path d="M216.16197,136.54958c0,1.46127 0.29225,3.50704 0.29225,5.55282c0,2.04578 0,4.09155 -0.29225,5.55282c-0.29225,1.75353 -0.58451,2.63027 -0.58451,2.63027c0,0 -0.29225,-1.16902 -0.58451,-2.63027c0,-1.46127 -0.29225,-3.50704 -0.29225,-5.55282c0,-2.04578 0,-4.09155 0.29225,-5.55282c0.29225,-1.75353 0.58451,-2.63027 0.58451,-2.63027c0,0 0.29225,0.87676 0.58451,2.63027z" fill="#59402f"/><path d="M224.05282,151.16225c-2.33804,-0.29225 -5.55282,-0.58451 -8.7676,-0.58451c-3.21478,0 -6.42958,0.29225 -8.7676,0.58451c-1.16902,0.29225 -2.33804,0.29225 -2.92253,0.58451c-0.87676,0.29225 -1.16902,0.29225 -1.16902,0.29225c0,0 0.29225,-0.29225 0.87676,-0.58451c0.87676,-0.29225 1.75353,-0.87676 2.92253,-1.16902c1.16902,-0.29225 2.63027,-0.58451 4.09155,-0.87676c1.46127,-0.29225 3.21478,-0.29225 4.96831,-0.29225c1.75353,0.29225 3.50704,0.29225 4.96831,0.58451c1.46127,0.29225 2.92253,0.58451 4.09155,0.87676c2.33804,0.58451 3.79929,1.46127 3.79929,1.46127c0,0 -1.75353,-0.29225 -4.09155,-0.87676z" fill="#59402f"/><path d="M232.23591,124.27492c0,2.92253 -3.50704,6.72184 -6.13733,6.72184c-2.63027,0 -3.50704,7.01409 -8.18309,7.30634c-8.18309,0.29225 -8.18309,-4.96831 -10.52113,-7.01409c-2.63027,-2.04578 -10.22887,-0.29225 -9.35211,-7.30634c0.87676,-7.01409 10.52113,-7.89084 16.95071,-8.18309c12.56691,-0.58451 16.95071,5.84507 17.24296,8.47535z" fill="#332721"/><path d="M199.21128,65.23972c0.58451,-0.29225 1.16902,-0.87676 2.04578,-1.16902c0.87676,-0.29225 2.04578,-0.58451 3.21478,-0.87676c1.16902,-0.29225 2.63027,-0.29225 3.79929,-0.29225c2.63027,0 5.26056,0.58451 7.01409,1.16902c1.75353,0.58451 2.92253,1.16902 2.92253,1.16902c0,0 -1.16902,0 -3.21478,0c-1.75353,-0.29225 -4.3838,-0.29225 -6.72184,-0.29225c-2.63027,0 -4.96831,0.29225 -6.72184,0.58451c-0.87676,0.29225 -1.75353,0.29225 -2.33804,0.58451c-0.58451,0.29225 -0.87676,0.29225 -0.87676,0.29225c0,0 0.29225,-0.29225 0.87676,-1.16902z" fill="#59402f"/><path d="M214.1162,61.14816c-1.46127,0 -2.92253,0 -4.67605,0c-1.75353,0 -3.50704,0 -4.67605,0c-0.58451,0 -1.16902,0 -1.46127,0c-0.29225,0 -0.58451,0 -0.58451,0c0,0 0.87676,-0.58451 2.04578,-1.16902c1.16902,-0.58451 2.92253,-0.87676 4.67605,-0.87676c1.75353,0 3.50704,0.29225 4.67605,0.58451c1.16902,0.29225 2.04578,0.87676 2.04578,0.87676c0,0 -0.87676,0 -2.04578,0.58451z" fill="#59402f"/><path d="M125.27113,108.49323c0,3.79929 0.29225,7.30634 0.58451,9.93662c0,1.16902 0.29225,2.33804 0.29225,3.21478c0,0.58451 0,1.16902 0,1.16902c0,0 -0.29225,-0.29225 -0.58451,-1.16902c-0.29225,-0.87676 -0.87676,-1.75353 -1.16902,-3.21478c-0.29225,-0.58451 -0.58451,-1.16902 -0.58451,-2.04578c0,-0.58451 -0.29225,-1.46127 -0.29225,-2.33804c0,-0.87676 -0.29225,-1.75353 -0.29225,-2.63027c0,-0.87676 0,-1.75353 0,-2.63027c0,-3.50704 0.58451,-7.30634 1.16902,-9.93662c0.58451,-2.63027 1.46127,-4.3838 1.46127,-4.3838c0,0 -0.87676,7.30634 -0.58451,14.02816z" fill="#59402f"/><path d="M139.8838,140.64112c0.58451,0.87676 1.16902,2.04578 2.04578,3.21478c0.87676,1.16902 1.75353,2.33804 2.63027,3.50704c2.04578,2.33804 4.09155,4.67605 5.84507,6.13733c0.87676,0.58451 1.46127,1.46127 2.04578,1.75353c0.58451,0.58451 0.87676,0.87676 0.87676,0.87676c0,0 -0.29225,0 -0.87676,-0.29225c-0.58451,-0.29225 -1.75353,-0.87676 -2.63027,-1.46127c-0.87676,-0.58451 -2.04578,-1.46127 -3.21478,-2.33804c-1.16902,-1.16902 -2.33804,-2.33804 -3.21478,-3.50704c-2.04578,-2.33804 -3.50704,-5.26056 -4.3838,-7.5986c-0.87676,-2.33804 -0.87676,-3.79929 -0.87676,-3.79929c0,0 0.58451,1.16902 1.75353,3.50704z" fill="#59402f"/><path d="M278.41197,92.41929c0.87676,1.75353 1.46127,4.09155 1.75353,6.42958c0.29225,1.16902 0.29225,2.33804 0.29225,3.50704c0,1.16902 0,2.33804 -0.29225,3.21478c-0.29225,1.75353 -0.87676,2.92253 -0.87676,2.92253c0,0 0,-0.29225 0,-0.87676c0,-0.29225 -0.29225,-1.16902 -0.29225,-2.04578c0,-1.75353 -0.29225,-4.09155 -0.58451,-6.42958c-0.29225,-2.33804 -0.58451,-4.67605 -0.87676,-6.42958c-0.29225,-1.75353 -0.29225,-2.92253 -0.29225,-2.92253c0,0 0.87676,1.16902 1.16902,2.63027z" fill="#59402f"/><g fill="#59402f"><path d="M129.65493,125.15168c0.29225,0.87676 0.87676,1.75353 0.87676,2.63027c0,0.87676 0,2.04578 0,2.63027c0,0.58451 -0.29225,1.16902 -0.29225,1.16902c0,0 -0.29225,-0.58451 -0.58451,-1.16902c-0.29225,-0.87676 -0.87676,-1.75353 -0.87676,-2.63027c0,-0.87676 0,-2.04578 0,-2.63027c0,-0.58451 0.29225,-1.16902 0.29225,-1.16902c0,0 0.29225,0.29225 0.58451,1.16902z"/><path d="M134.62324,131.28901c0.29225,0.58451 0.58451,1.46127 0.87676,2.33804c0.29225,0.87676 0.29225,1.75353 0.29225,2.33804c-0.29225,0.58451 -0.29225,1.16902 -0.29225,1.16902c0,0 -0.29225,-0.29225 -0.58451,-0.87676c-0.29225,-0.58451 -0.58451,-1.46127 -0.87676,-2.33804c-0.29225,-0.87676 -0.29225,-1.75353 -0.29225,-2.33804c0.29225,-0.58451 0.29225,-1.16902 0.29225,-1.16902c0,0 0.29225,0.29225 0.58451,0.87676z"/><path d="M277.53522,110.83127c0.29225,0.58451 0.58451,1.46127 0.87676,2.33804c0.29225,0.87676 0.29225,1.75353 0.29225,2.33804c-0.29225,0.58451 -0.29225,1.16902 -0.29225,1.16902c0,0 -0.29225,-0.29225 -0.58451,-0.87676c-0.29225,-0.58451 -0.58451,-1.46127 -0.87676,-2.33804c-0.29225,-0.87676 -0.29225,-1.75353 -0.29225,-2.33804c0.29225,-0.58451 0.29225,-1.16902 0.29225,-1.16902c0,0 0.29225,0.29225 0.58451,0.87676z"/></g><path d="M275.48944,122.81367c0.29225,1.16902 0.29225,2.63027 0.29225,4.3838c0,1.75353 -0.29225,3.50704 -0.58451,5.26056c-0.29225,1.75353 -0.87676,3.50704 -1.46127,4.96831c-0.29225,0.58451 -0.87676,1.46127 -1.16902,2.04578c-0.29225,0.58451 -0.87676,1.16902 -1.16902,1.75353c-0.58451,0.87676 -1.46127,1.75353 -2.04578,2.33804c-0.58451,0.58451 -0.87676,0.87676 -0.87676,0.87676c0,0 0.29225,-0.58451 0.58451,-1.16902c0.29225,-0.58451 0.87676,-1.46127 1.46127,-2.63027c1.16902,-2.33804 2.33804,-5.55282 2.92253,-8.7676c0.58451,-1.75353 0.58451,-3.50704 0.87676,-4.96831c0.29225,-1.75353 0.29225,-3.21478 0.29225,-4.3838c0,-2.63027 0,-4.3838 0,-4.3838c0,0 0.87676,1.46127 0.87676,4.67605z" fill="#59402f"/><g><path d="M123.22535,17.31014c-26.01056,-33.60916 3.21478,-49.0986 16.07395,-48.51409c12.85916,0.58451 19.87324,23.08804 19.87324,23.08804" fill="#8d674a"/><path d="M137.83804,-19.5138c0,1.46127 -0.29225,2.92253 -0.29225,4.67605c-0.29225,1.75353 0,3.50704 0,5.26056c0.29225,1.75353 0.58451,3.50704 0.87676,4.96831c0.29225,0.87676 0.58451,1.75353 0.87676,2.33804c0.29225,0.87676 0.58451,1.46127 0.87676,2.04578c0.29225,0.29225 0.58451,0.87676 0.87676,1.46127c0.29225,0.58451 0.58451,0.87676 0.87676,1.16902c0.58451,0.87676 0.87676,1.16902 0.87676,1.16902c0,0 -0.29225,-0.29225 -0.87676,-0.87676c-0.58451,-0.29225 -1.46127,-1.16902 -2.33804,-2.33804c-0.29225,-0.58451 -0.87676,-1.46127 -1.16902,-2.04578c-0.58451,-0.58451 -0.87676,-1.46127 -1.16902,-2.33804c-0.58451,-0.87676 -0.58451,-1.75353 -0.87676,-2.63027c0,-1.16902 -0.29225,-2.04578 -0.29225,-2.92253c0,-2.04578 0,-3.79929 0.29225,-5.55282c0,-1.75353 0.58451,-3.21478 0.87676,-4.67605c0.87676,-2.63027 1.75353,-4.3838 1.75353,-4.3838c0,0 -0.29225,1.75353 -1.16902,4.67605z" fill="#59402f"/><g fill="#59402f"><path d="M136.08451,2.11296c0.58451,0.29225 1.16902,0.58451 1.75353,1.16902c0.58451,0.58451 1.16902,1.16902 1.46127,1.75353c0.29225,0.58451 0.29225,0.87676 0.29225,0.87676c0,0 -0.29225,0 -0.87676,-0.29225c-0.58451,-0.29225 -1.16902,-0.58451 -1.75353,-1.16902c-0.58451,-0.58451 -1.16902,-1.16902 -1.46127,-1.75353c-0.29225,-0.58451 -0.29225,-0.87676 -0.29225,-0.87676c0,0 0.29225,0 0.87676,0.29225z"/><path d="M134.33099,6.78901c0.87676,0.58451 1.16902,2.04578 1.16902,2.04578c-0.29225,0 -1.46127,0 -2.33804,-0.87676c-0.87676,-0.58451 -1.16902,-2.04578 -1.16902,-2.04578c0,0 1.46127,0 2.33804,0.87676z"/></g></g><g><path d="M243.34155,-8.11591c0,0 7.01409,-22.50353 19.87324,-23.08804c12.85916,-0.58451 42.08451,14.90493 16.07395,48.51409" fill="#8d674a"/><path d="M264.67606,-19.80606c0.29225,1.46127 0.58451,2.92253 0.87676,4.67605c0.29225,1.75353 0.29225,3.79929 0.29225,5.55282c0,1.16902 -0.29225,2.04578 -0.29225,2.92253c-0.29225,0.87676 -0.58451,1.75353 -0.87676,2.63027c-0.58451,0.87676 -0.58451,1.75353 -1.16902,2.33804c-0.29225,0.87676 -0.58451,1.46127 -1.16902,2.04578c-0.87676,1.16902 -1.75353,1.75353 -2.33804,2.33804c-0.58451,0.58451 -0.87676,0.87676 -0.87676,0.87676c0,0 0.29225,-0.58451 0.87676,-1.16902c0.29225,-0.29225 0.58451,-0.58451 0.87676,-1.16902c0.29225,-0.29225 0.58451,-0.87676 0.87676,-1.46127c0.29225,-0.58451 0.58451,-1.46127 0.87676,-2.04578c0.58451,-0.87676 0.58451,-1.46127 0.87676,-2.33804c0.58451,-1.46127 0.87676,-3.21478 0.87676,-4.96831c0,-1.75353 0,-3.50704 0,-5.26056c0,-1.75353 -0.29225,-3.21478 -0.29225,-4.67605c-0.29225,-2.92253 -0.58451,-4.67605 -0.58451,-4.67605c0,0 0.87676,1.75353 1.16902,4.3838z" fill="#59402f"/><g fill="#59402f"><path d="M267.01409,2.69747c-0.29225,0.58451 -0.87676,1.16902 -1.46127,1.75353c-0.58451,0.58451 -1.16902,0.87676 -1.75353,1.16902c-0.58451,0.29225 -0.87676,0.29225 -0.87676,0.29225c0,0 0,-0.29225 0.29225,-0.87676c0.29225,-0.58451 0.87676,-1.16902 1.46127,-1.75353c0.58451,-0.58451 1.16902,-0.87676 1.75353,-1.16902c0.58451,-0.29225 0.87676,-0.29225 0.87676,-0.29225c0,0 0,0.58451 -0.29225,0.87676z"/><path d="M269.35211,7.95803c-0.87676,0.58451 -2.33804,0.87676 -2.33804,0.87676c0,0 0.29225,-1.46127 1.16902,-2.04578c0.87676,-0.58451 2.33804,-0.87676 2.33804,-0.87676c0,0 -0.58451,1.16902 -1.16902,2.04578z"/></g></g><path d="M120.01057,18.77141c-1.75353,2.04578 -3.79929,4.96831 -5.84507,8.47535c-0.87676,2.04578 -2.04578,4.09155 -3.21478,6.13733c-1.16902,2.33804 -2.04578,4.67605 -3.21478,7.01409c-0.87676,2.33804 -2.04578,4.96831 -2.92253,7.5986c-0.87676,2.63027 -1.75353,5.55282 -2.63027,8.18309c-0.58451,2.63027 -1.46127,5.55282 -2.33804,8.18309c-0.87676,2.63027 -1.75353,5.26056 -2.63027,7.89084c-1.75353,5.26056 -3.50704,9.93662 -5.26056,13.73591c-1.75353,3.79929 -3.50704,7.01409 -4.96831,9.05985c-0.87676,0.87676 -1.46127,1.75353 -2.04578,2.04578c-0.58451,0.58451 -0.87676,0.58451 -0.87676,0.58451c0,0 0.29225,0 0.87676,-0.58451c0.58451,-0.58451 1.16902,-1.16902 1.75353,-2.33804c1.46127,-2.04578 2.92253,-5.26056 4.3838,-9.35211c1.46127,-3.79929 2.92253,-8.7676 4.67605,-13.73591c0.87676,-2.63027 1.46127,-5.26056 2.33804,-7.89084c0.87676,-2.63027 1.46127,-5.55282 2.33804,-8.18309c0.58451,-2.92253 1.75353,-5.55282 2.63027,-8.18309c1.16902,-2.63027 2.04578,-5.26056 3.21478,-7.5986c1.16902,-2.63027 2.33804,-4.96831 3.50704,-7.01409c1.16902,-2.04578 2.33804,-4.09155 3.50704,-5.84507c2.33804,-3.50704 4.67605,-6.42958 6.42958,-8.18309c1.75353,-1.75353 2.92253,-2.63027 2.92253,-2.63027c0,0 -0.87676,0.87676 -2.63027,2.63027z" fill="#59402f"/><path d="M91.66197,99.43338c-0.29225,2.33804 -0.87676,5.55282 -0.87676,8.7676c0,1.46127 0,3.21478 0,4.67605c0,1.46127 0.29225,2.92253 0.29225,4.09155c0,1.16902 0.29225,2.33804 0.29225,2.92253c0,0.87676 0,1.16902 0,1.16902c0,0 0,-0.58451 -0.29225,-1.16902c0,-0.87676 -0.58451,-1.75353 -0.87676,-2.92253c-0.29225,-1.16902 -0.58451,-2.63027 -0.87676,-4.09155c-0.29225,-1.75353 -0.29225,-3.21478 -0.29225,-4.96831c0,-1.75353 0.29225,-3.50704 0.58451,-4.96831c0.29225,-1.46127 0.58451,-2.92253 1.16902,-4.09155c1.16902,-2.33804 2.04578,-3.79929 2.04578,-3.79929c0,0 -0.58451,1.75353 -1.16902,4.3838z" fill="#59402f"/><path d="M96.04579,118.13759c0,2.63027 0.29225,5.84507 0.58451,9.35211c0.29225,3.50704 0.58451,7.01409 1.16902,9.35211c0.29225,1.16902 0.58451,2.33804 0.87676,2.92253c0.29225,0.87676 0.29225,1.16902 0.29225,1.16902c0,0 -0.29225,-0.29225 -0.58451,-0.87676c-0.29225,-0.87676 -0.87676,-1.75353 -1.46127,-2.92253c-0.87676,-2.33804 -1.75353,-5.84507 -2.04578,-9.35211c-0.29225,-3.50704 -0.29225,-7.01409 0,-9.64436c0.58451,-2.63027 0.87676,-4.3838 0.87676,-4.3838c0,0 0.29225,1.75353 0.29225,4.3838z" fill="#59402f"/><path d="M104.81339,140.64112c0.58451,1.75353 1.16902,3.50704 2.04578,5.55282c0.29225,0.87676 0.87676,1.75353 1.16902,2.92253c0.58451,1.16902 0.87676,2.04578 1.46127,3.21478c0.87676,2.04578 2.04578,4.09155 3.21478,5.84507c0.58451,0.58451 1.16902,1.46127 1.75353,2.33804c0.58451,0.58451 1.16902,1.46127 1.75353,2.04578c0.58451,0.58451 1.16902,1.16902 1.75353,1.75353c0.58451,0.58451 1.16902,0.87676 1.46127,1.16902c0.58451,0.58451 1.16902,0.87676 1.16902,0.87676c0,0 -0.58451,-0.29225 -1.46127,-0.58451c-0.58451,-0.29225 -1.16902,-0.58451 -1.75353,-0.87676c-0.58451,-0.58451 -1.46127,-0.87676 -2.04578,-1.46127c-0.58451,-0.58451 -1.16902,-1.46127 -2.04578,-2.04578c-0.58451,-0.58451 -1.46127,-1.46127 -2.04578,-2.33804c-0.87676,-0.87676 -1.46127,-2.04578 -2.04578,-2.92253c-0.58451,-1.16902 -1.16902,-2.04578 -1.75353,-3.21478c-1.16902,-2.04578 -2.04578,-4.3838 -2.63027,-6.42958c-0.58451,-2.04578 -1.16902,-4.09155 -1.46127,-5.84507c-0.58451,-3.50704 -0.58451,-5.84507 -0.58451,-5.84507c0,0 0.58451,2.33804 2.04578,5.84507z" fill="#59402f"/><path d="M282.21127,18.47916c1.75353,1.75353 4.09155,4.67605 6.72184,8.18309c1.46127,1.75353 2.63027,3.79929 4.09155,5.84507c1.46127,2.04578 2.63027,4.3838 4.09155,6.72184c1.16902,2.33804 2.63027,4.96831 3.79929,7.5986c1.16902,2.63027 2.33804,5.55282 3.50704,8.18309c2.33804,5.26056 4.09155,10.81338 5.84507,16.07395c1.75353,4.96831 3.50704,9.93662 4.96831,14.02816c1.46127,4.09155 2.92253,7.30634 4.09155,9.64436c0.58451,1.16902 1.16902,1.75353 1.75353,2.33804c0.58451,0.58451 0.87676,0.58451 0.87676,0.58451c0,0 -0.29225,-0.29225 -0.87676,-0.58451c-0.58451,-0.58451 -1.46127,-1.16902 -2.04578,-2.33804c-1.16902,-2.33804 -2.92253,-5.55282 -4.67605,-9.64436c-1.75353,-4.09155 -3.79929,-8.7676 -5.55282,-14.02816c-1.75353,-4.96831 -3.79929,-10.52113 -5.84507,-16.07395c-1.16902,-2.63027 -2.33804,-5.26056 -3.50704,-7.89084c-0.87676,-2.63027 -2.33804,-5.26056 -3.50704,-7.5986c-2.33804,-4.67605 -4.96831,-9.05985 -7.30634,-12.85916c-2.33804,-3.50704 -4.3838,-6.42958 -6.13733,-8.47535c-1.75353,-1.75353 -2.63027,-2.92253 -2.63027,-2.92253c0,0 1.16902,0.87676 2.33804,3.21478z" fill="#59402f"/><path d="M315.82042,98.55661c0.29225,1.16902 0.87676,2.63027 1.16902,4.09155c0.29225,1.75353 0.58451,3.21478 0.58451,4.96831c0,1.75353 0,3.50704 -0.29225,4.96831c-0.29225,1.46127 -0.58451,2.92253 -0.87676,4.09155c-0.29225,1.16902 -0.58451,2.33804 -0.87676,2.92253c0,0.87676 -0.29225,1.16902 -0.29225,1.16902c0,0 0,-0.58451 0,-1.16902c0,-0.58451 0.29225,-1.75353 0.29225,-2.92253c0,-1.16902 0.29225,-2.63027 0.29225,-4.09155c0,-1.46127 0,-3.21478 0,-4.67605c0,-3.21478 -0.58451,-6.42958 -0.87676,-8.7676c-0.29225,-2.63027 -0.87676,-4.09155 -0.87676,-4.09155c0,0 0.87676,1.46127 1.75353,3.50704z" fill="#59402f"/><path d="M311.72887,118.13759c0.29225,2.63027 0.29225,6.13733 0,9.64436c-0.29225,3.50704 -0.87676,7.01409 -2.04578,9.35211c-0.58451,1.46127 -0.87676,2.33804 -1.46127,2.92253c-0.29225,0.58451 -0.58451,0.87676 -0.58451,0.87676c0,0 0,-0.58451 0.29225,-1.16902c0.29225,-0.58451 0.58451,-1.75353 0.87676,-2.92253c0.58451,-2.63027 0.87676,-5.84507 1.16902,-9.35211c0.29225,-3.50704 0.29225,-6.72184 0.58451,-9.35211c0.29225,-2.63027 0.29225,-4.3838 0.29225,-4.3838c0,0 0.58451,1.75353 0.87676,4.3838z" fill="#59402f"/><path d="M303.83804,140.34887c-0.29225,1.75353 -0.87676,3.79929 -1.46127,5.84507c-0.58451,2.04578 -1.75353,4.3838 -2.63027,6.42958c-0.58451,1.16902 -1.16902,2.33804 -1.75353,3.21478c-0.87676,1.16902 -1.46127,2.04578 -2.04578,2.92253c-0.58451,0.87676 -1.16902,1.75353 -2.04578,2.33804c-0.58451,0.87676 -1.46127,1.46127 -2.04578,2.04578c-0.87676,0.58451 -1.46127,1.16902 -2.04578,1.46127c-0.58451,0.29225 -1.16902,0.58451 -1.75353,0.87676c-0.87676,0.29225 -1.46127,0.58451 -1.46127,0.58451c0,0 0.29225,-0.29225 1.16902,-0.87676c0.58451,-0.29225 0.87676,-0.58451 1.46127,-1.16902c0.58451,-0.58451 1.16902,-1.16902 1.75353,-1.75353c0.58451,-0.58451 1.16902,-1.46127 1.75353,-2.04578c0.58451,-0.58451 1.16902,-1.46127 1.75353,-2.33804c1.16902,-1.75353 2.33804,-3.79929 3.21478,-5.84507c0.58451,-1.16902 1.16902,-2.04578 1.46127,-3.21478c0.29225,-0.87676 0.87676,-2.04578 1.16902,-2.92253c0.87676,-2.04578 1.46127,-3.79929 2.04578,-5.55282c1.16902,-3.21478 1.75353,-5.55282 1.75353,-5.55282c0,0 0,2.33804 -0.29225,5.55282z" fill="#59402f"/><path d="M155.37324,-13.66873c-0.87676,-2.33804 -2.04578,-4.67605 -3.79929,-7.30634c-1.75353,-2.63027 -3.79929,-4.96831 -6.42958,-6.72184c-1.16902,-0.87676 -2.63027,-1.46127 -4.09155,-2.04578c-1.46127,-0.29225 -2.92253,-0.58451 -4.3838,-0.58451c-1.46127,0 -2.63027,0.29225 -4.09155,0.58451c-1.46127,0.29225 -2.63027,0.58451 -3.79929,1.16902c-2.04578,0.87676 -4.09155,1.75353 -5.26056,2.63027c-1.46127,0.87676 -2.04578,1.16902 -2.04578,1.16902c0,0 0.58451,-0.58451 1.75353,-1.46127c0.58451,-0.29225 1.16902,-0.87676 2.04578,-1.46127c0.87676,-0.58451 1.75353,-1.16902 2.92253,-1.75353c1.16902,-0.58451 2.33804,-1.16902 3.79929,-1.46127c1.46127,-0.58451 2.92253,-0.87676 4.67605,-0.87676c1.75353,0 3.21478,0.29225 4.96831,0.58451c1.75353,0.29225 3.21478,1.16902 4.67605,2.04578c2.92253,2.04578 4.96831,4.67605 6.72184,7.30634c1.75353,2.92253 2.63027,5.55282 3.50704,7.89084c1.46127,4.96831 1.75353,8.18309 1.75353,8.18309c0,0 -0.87676,-3.21478 -2.92253,-7.89084z" fill="#59402f"/><path d="M279.87324,-25.65113c-1.46127,-0.87676 -3.21478,-1.75353 -5.55282,-2.63027c-0.58451,-0.29225 -1.16902,-0.29225 -1.75353,-0.58451c-0.58451,-0.29225 -1.46127,-0.29225 -2.04578,-0.58451c-0.58451,-0.29225 -1.46127,-0.29225 -2.04578,-0.29225c-0.87676,-0.29225 -1.46127,-0.29225 -2.33804,-0.29225c-0.87676,0 -1.46127,0 -2.33804,0c-0.87676,0.29225 -1.46127,0.29225 -2.33804,0.58451c-0.87676,0.29225 -1.75353,0.58451 -2.33804,0.87676c-0.58451,0.58451 -1.46127,0.58451 -2.04578,1.16902c-1.46127,0.87676 -2.92253,1.75353 -3.79929,2.92253c-0.87676,1.16902 -2.04578,2.04578 -2.92253,3.50704c-0.58451,1.46127 -1.75353,2.63027 -2.33804,3.79929c-0.58451,1.16902 -1.16902,2.33804 -1.75353,3.50704c-0.58451,1.16902 -1.16902,2.33804 -1.46127,3.21478c-0.58451,0.87676 -0.87676,1.75353 -1.16902,2.33804c-0.58451,1.16902 -0.87676,2.04578 -0.87676,2.04578c0,0 0.29225,-0.87676 0.58451,-2.33804c0,-0.87676 0.29225,-1.75353 0.58451,-2.63027c0.29225,-0.87676 0.58451,-2.04578 1.16902,-3.21478c0.58451,-1.16902 1.16902,-2.33804 1.75353,-3.79929c0.58451,-1.46127 1.46127,-2.63027 2.33804,-4.09155c0.87676,-1.46127 2.04578,-2.63027 3.21478,-3.79929c1.16902,-1.16902 2.63027,-2.04578 4.09155,-3.21478c0.58451,-0.58451 1.46127,-0.87676 2.33804,-1.16902c0.58451,-0.29225 1.46127,-0.87676 2.33804,-0.87676c0.87676,-0.29225 1.75353,-0.58451 2.63027,-0.58451c0.87676,0 1.75353,0 2.63027,0c0.87676,0 1.46127,0.29225 2.33804,0.29225c0.87676,0.29225 1.75353,0.29225 2.33804,0.58451c0.58451,0.29225 1.46127,0.29225 2.04578,0.58451c0.58451,0.29225 1.16902,0.58451 1.75353,0.87676c1.16902,0.58451 2.04578,1.16902 2.92253,1.75353c0.58451,0.58451 1.46127,0.87676 2.04578,1.46127c1.16902,0.87676 1.75353,1.46127 1.75353,1.46127c0,0 -0.58451,-0.58451 -1.75353,-0.87676z" fill="#59402f"/><path d="M242.17253,-14.83775c-2.33804,-0.87676 -5.84507,-1.75353 -9.93662,-2.63027c-2.04578,-0.29225 -4.3838,-0.87676 -6.72184,-1.16902c-2.33804,-0.58451 -4.96831,-0.87676 -7.5986,-1.16902c-2.63027,-0.29225 -5.55282,-0.58451 -8.18309,-0.87676c-2.92253,-0.29225 -5.55282,-0.29225 -8.47535,-0.29225h-4.09155c-1.16902,0 -2.63027,0.29225 -4.09155,0.29225c-1.46127,0 -2.63027,0.29225 -4.09155,0.29225c-1.46127,0.29225 -2.92253,0.29225 -4.09155,0.58451c-1.16902,0.29225 -2.63027,0.29225 -3.79929,0.58451c-1.46127,0.29225 -2.63027,0.58451 -3.79929,0.87676c-1.16902,0 -2.33804,0.29225 -3.50704,0.58451c-1.16902,0.29225 -2.33804,0.58451 -3.21478,0.87676c-2.04578,0.58451 -3.79929,1.16902 -5.55282,1.75353c-1.46127,0.58451 -2.92253,0.87676 -4.09155,1.46127c-2.33804,0.87676 -3.79929,1.46127 -3.79929,1.46127c0,0 1.16902,-0.58451 3.50704,-1.75353c1.16902,-0.58451 2.63027,-1.16902 4.09155,-2.04578c1.75353,-0.58451 3.50704,-1.46127 5.55282,-2.04578c1.16902,-0.58451 2.04578,-0.87676 3.21478,-1.16902c1.16902,-0.29225 2.33804,-0.58451 3.50704,-0.87676c1.46127,-0.29225 2.63027,-0.58451 3.79929,-0.87676c1.16902,-0.29225 2.33804,-0.29225 3.79929,-0.58451c1.46127,-0.29225 2.63027,-0.29225 4.09155,-0.58451c1.16902,0 2.63027,-0.29225 4.09155,-0.29225c1.46127,0 2.92253,-0.29225 4.3838,-0.29225h4.3838c2.92253,0 5.55282,0.29225 8.47535,0.29225c2.63027,0.29225 5.55282,0.58451 8.18309,0.87676c2.63027,0.58451 5.26056,0.87676 7.5986,1.46127c2.33804,0.58451 4.67605,1.16902 6.72184,1.75353c4.3838,1.16902 7.5986,2.33804 9.93662,3.21478c2.33804,0.87676 3.50704,1.46127 3.50704,1.46127c0,0 -1.46127,-0.58451 -3.79929,-1.16902z" fill="#59402f"/><path d="M222.29929,163.72916c-2.04578,1.16902 -4.96831,2.04578 -7.89084,2.04578c-1.46127,0.29225 -2.92253,0 -4.3838,-0.29225c-0.87676,0 -1.46127,-0.29225 -2.04578,-0.58451c-0.58451,-0.29225 -0.87676,-0.58451 -1.46127,-0.87676c-0.87676,-0.58451 -1.75353,-1.16902 -2.04578,-1.75353c-0.29225,-0.58451 -0.58451,-0.87676 -0.58451,-0.87676c0,0 0.29225,0.29225 0.87676,0.58451c0.58451,0.29225 1.46127,0.87676 2.33804,1.16902c0.29225,0.29225 0.87676,0.29225 1.46127,0.58451c0.58451,0 1.16902,0 1.75353,0.29225c1.16902,0.29225 2.33804,0.29225 3.79929,0.29225c1.46127,0 2.92253,0 4.09155,-0.29225c1.16902,0 2.33804,-0.29225 3.50704,-0.58451c2.04578,-0.58451 3.50704,-0.87676 3.50704,-0.87676c0,0 -1.16902,0.87676 -2.92253,1.16902z" fill="#59402f"/><path d="M170.57042,43.3207c4.09155,0 7.30634,2.63027 7.30634,5.55282c0,3.21478 -3.50704,5.55282 -7.30634,5.55282c-3.79929,0 -12.85916,-1.46127 -12.85916,-4.3838c0,-2.92253 8.7676,-6.72184 12.85916,-6.72184z" fill="#9e7b5c"/><path d="M248.0176,50.04254c0,2.92253 -9.05985,4.3838 -12.85916,4.3838c-3.79929,0 -7.30634,-2.33804 -7.30634,-5.55282c0,-2.92253 3.21478,-5.55282 7.30634,-5.55282c4.09155,0 12.85916,3.79929 12.85916,6.72184z" fill="#9e7b5c"/></g><path d="M273.73591,171.91225c-2.33804,1.46127 -4.96831,2.92253 -8.18309,4.09155c-3.21478,1.16902 -6.42958,2.63027 -9.93662,3.50704c-1.75353,0.58451 -3.50704,0.87676 -5.26056,1.16902c-1.75353,0.29225 -3.50704,0.58451 -5.26056,0.87676c-1.75353,0.29225 -3.50704,0.29225 -4.96831,0.58451c-1.46127,0.29225 -2.92253,0.29225 -4.3838,0.29225c-2.63027,0 -4.96831,-0.29225 -6.42958,-0.29225c-1.46127,-0.29225 -2.33804,-0.29225 -2.33804,-0.29225c0,0 0.87676,-0.29225 2.33804,-0.29225c0.87676,-0.29225 1.75353,-0.29225 2.92253,-0.29225c0.87676,0 2.04578,-0.29225 3.50704,-0.29225c1.46127,-0.29225 2.92253,-0.29225 4.3838,-0.58451c1.46127,-0.29225 2.92253,-0.58451 4.67605,-0.87676c1.46127,-0.29225 3.21478,-0.29225 4.96831,-0.87676c1.46127,-0.58451 3.21478,-0.87676 4.96831,-1.46127c3.50704,-0.87676 6.72184,-2.04578 9.93662,-3.21478c3.21478,-1.16902 6.13733,-2.33804 8.47535,-3.50704c4.67605,-2.33804 7.89084,-4.09155 7.89084,-4.09155c0,0 -2.63027,2.04578 -7.30634,5.55282z" fill="#59402f"/></g><path d="M163.02636,78.07557c-7.0882,-1.77205 -5.31615,-8.86025 -5.31615,-8.86025c2.90053,-8.24605 5.14102,-30.53423 23.94467,-15.08446c4.16066,3.41855 1.21764,10.70081 1.82647,16.05124l-1.6116,1.47025l0.69803,0.46536l-5.7822,8.67333c-1.30094,2.01435 -3.56578,3.3478 -6.14208,3.3478c-3.57678,0 -6.55324,-2.57013 -7.18336,-5.96434c-0.14233,-0.02925 -0.28691,-0.06217 -0.43376,-0.09887z" fill="#000000" stroke-width="0.5"/><path d="M237.9301,52.3436c-1.98441,1.31003 -4.11936,3.23727 -6.08147,4.67307c0.98579,-0.37166 1.88525,-0.76632 2.41334,-1.15486c1.36877,-1.00705 2.54435,-2.23322 3.66811,-3.5182zM213.02846,59.64353c-0.66005,-4.79991 4.24889,-8.96032 7.78014,-12.27772c9.80038,-9.20693 21.92701,-15.98912 34.50226,-4.25512c3.25453,3.03684 1.32029,8.81848 1.54746,13.26401c0.3373,6.60078 0.66648,25.8312 -12.43148,24.80598c-2.126,-0.1664 -3.78488,-1.23874 -5.19273,-2.79801l-0.69357,0.69357l-5.84507,-5.84507c-0.39988,-0.39988 -0.75363,-0.84593 -1.05258,-1.32943c-8.2777,1.54243 -16.97154,-0.31149 -18.61439,-12.25826z" fill="#000000" stroke-width="0.5"/><path d="M166.25969,65.14231c0,-4.03517 3.27116,-7.30634 7.30634,-7.30634c4.03517,0 7.30634,3.27116 7.30634,7.30634c0,4.03517 -3.27116,7.30634 -7.30634,7.30634c-4.03517,0 -7.30634,-3.27116 -7.30634,-7.30634z" fill="#ff0000" stroke-width="0.5"/><path d="M236.40054,53.45217c0,-4.03517 3.27116,-7.30634 7.30634,-7.30634c4.03517,0 7.30634,3.27116 7.30634,7.30634c0,4.03517 -3.27116,7.30634 -7.30634,7.30634c-4.03517,0 -7.30634,-3.27116 -7.30634,-7.30634z" fill="#ff0000" stroke-width="0.5"/><path d="M252.47447,119.20921c-7.30634,0 -7.30634,-7.30634 -7.30634,-7.30634l0.0112,-9.17165c0.65857,-5.97676 1.31943,-11.95328 1.98198,-17.9296c-0.04582,-0.06154 -0.09233,-0.12269 -0.1395,-0.18343c-4.04063,-5.20106 -14.55904,-5.5557 -19.36048,-6.46637c0,0 -7.16445,-1.4329 -5.73155,-8.59733c1.4329,-7.16445 8.59733,-5.73155 8.59733,-5.73155c8.63075,1.80022 15.41097,2.0046 21.81714,6.20013c1.02324,-0.4243 2.2908,-0.6266 3.85965,-0.45227c7.26166,0.80685 6.4548,8.06851 6.4548,8.06851c-0.12684,1.14142 -0.25371,2.28285 -0.38064,3.42427c2.28781,3.87414 4.30043,7.96189 7.28173,11.29969c5.69512,6.37612 13.84712,11.72442 16.08744,19.97488c1.49417,5.50258 0.29094,11.39997 0.43639,17.09992l-3.69389,9.11256c0,0 -3.26748,6.535 -9.80247,3.26748c-6.535,-3.26748 -3.26748,-9.80247 -3.26748,-9.80247l2.15118,-2.57759c0.14545,-4.04181 1.30318,-8.17498 0.43639,-12.12542c-0.41024,-1.86966 -2.74418,-2.67543 -4.0008,-4.11931c-2.58299,-2.96789 -5.41133,-5.74331 -8.13548,-8.59836l0.00977,7.30786c0,0 0,7.30634 -7.30634,7.30634z" fill="#ff0000" stroke-width="0.5"/><path d="M148.75286,119.06731c-7.16445,-1.4329 -5.73155,-8.59733 -5.73155,-8.59733l0.05675,-0.28379c1.77951,-8.51329 4.49673,-17.08727 9.03487,-24.50907c-0.62334,-1.34735 -0.83029,-3.09215 -0.09098,-5.31008c2.31047,-6.93141 9.24188,-4.62094 9.24188,-4.62094c3.93931,1.62987 9.14397,1.56931 11.81797,4.88963c5.98462,7.43122 4.8304,19.6916 4.86803,28.34455v14.61267c0,0 0,7.30634 -7.30634,7.30634c-7.30634,0 -7.30634,-7.30634 -7.30634,-7.30634v-14.61267c0.00155,-0.30418 0.28411,-8.14669 -0.0709,-13.55469c-3.00421,5.39168 -4.71384,11.56821 -5.85931,17.62633l-0.05675,0.28379c0,0 -1.4329,7.16445 -8.59733,5.73155z" fill="#ff0000" stroke-width="0.5"/></g></g></svg>