<svg version="1.1" xmlns="http://www.w3.org/2000/svg" xmlns:xlink="http://www.w3.org/1999/xlink" width="246" height="468.88736" viewBox="0,0,246,468.88736"><g transform="translate(-110,12.66667)"><g data-paper-data="{&quot;isPaintingLayer&quot;:true}" fill-rule="nonzero" stroke="none" stroke-linecap="butt" stroke-linejoin="miter" stroke-miterlimit="10" stroke-dasharray="" stroke-dashoffset="0" style="mix-blend-mode: normal"><g stroke-width="1"><path d="M286.53099,316.25733c0,0 5.7169,41.57746 -19.22958,84.02113c-12.47324,21.30845 -13.51268,33.60845 -10.56761,37.59296c2.94507,4.15775 12.3,9.70141 10.04789,12.3c-2.25211,2.59859 -34.12817,3.98451 -41.40423,0.8662c-2.94507,-1.38592 -12.47324,-47.46761 -10.74085,-68.0831c1.90563,-20.44225 4.8507,-27.37183 2.94507,-42.27042c-1.90563,-14.89859 -11.78028,-39.84507 -6.75634,-51.62535c5.02394,-11.78028 20.26901,-31.1831 46.94789,-21.65493c26.67887,9.52817 29.10423,38.63239 28.75775,48.85352z" fill="#8d674a"/><path d="M253.61549,450.34466c-0.34648,-0.69296 -1.03944,-1.38592 -1.55915,-2.25211c-0.51972,-0.8662 -1.21268,-1.73239 -1.73239,-2.25211c-0.17324,-0.17324 -0.34648,-0.51972 -0.51972,-0.69296c-0.17324,-0.17324 -0.17324,-0.34648 -0.17324,-0.34648c0,0 0.51972,0.17324 1.21268,0.51972c0.69296,0.51972 1.55915,1.21268 2.25211,2.07887c0.51972,0.8662 1.03944,1.73239 1.21268,2.59859c0.17324,0.8662 0.17324,1.38592 0.17324,1.38592c0,0 -0.17324,-0.34648 -0.8662,-1.03944z" fill="#59402f"/><path d="M262.97042,449.6517c-0.51972,-0.69296 -1.21268,-1.55915 -2.07887,-2.42535c-0.69296,-0.8662 -1.55915,-1.73239 -2.25211,-2.25211c-0.34648,-0.34648 -0.69296,-0.51972 -0.8662,-0.69296c-0.17324,-0.17324 -0.34648,-0.34648 -0.34648,-0.34648c0,0 0,0.17324 0.34648,0.17324c0.17324,0 0.69296,0.17324 1.03944,0.34648c0.34648,0.17324 0.8662,0.51972 1.38592,0.8662c0.51972,0.34648 1.03944,0.69296 1.38592,1.21268c0.69296,1.03944 1.38592,2.07887 1.73239,2.94507c0.34648,0.8662 0.34648,1.55915 0.34648,1.55915c0,0 -0.51972,-0.51972 -0.69296,-1.38592z" fill="#59402f"/><path d="M249.97746,451.3841c-0.8662,-1.03944 -2.25211,-2.94507 -0.34648,-2.94507c1.90563,-0.17324 3.46479,4.15775 3.46479,5.19718c0,0.69296 -2.25211,-1.03944 -3.11831,-2.25211z" fill="#665a52"/><path d="M258.81268,450.34466c-0.8662,-1.03944 -2.25211,-2.94507 -0.34648,-2.94507c1.90563,-0.17324 3.46479,4.15775 3.46479,5.19718c0,0.51972 -2.07887,-1.21268 -3.11831,-2.25211z" fill="#665a52"/><path d="M264.35634,449.82494c-0.8662,-1.03944 -2.25211,-2.94507 -0.34648,-2.94507c1.90563,-0.17324 3.46479,4.15775 3.46479,5.19718c0,0.51972 -2.07887,-1.21268 -3.11831,-2.25211z" fill="#665a52"/><g><path d="M217.23521,400.79818c-8.14225,-4.15775 -5.19718,-15.41831 -5.19718,-15.41831l-3.29155,5.89014c-2.25211,-6.75634 1.73239,-18.19014 1.73239,-18.19014l-4.33099,2.59859c0,-7.27606 6.23662,-11.78028 6.23662,-11.78028c-2.25211,3.11831 -6.40986,1.03944 -6.40986,1.03944c3.81127,-0.51972 12.47324,-19.40282 12.47324,-19.40282" fill="#8d674a"/><path d="M207.18732,364.24466c0.34648,-0.34648 0.8662,-1.03944 1.38592,-1.73239c1.21268,-1.38592 2.42535,-3.46479 3.63803,-5.54366c1.38592,-2.07887 2.42535,-4.15775 3.46479,-5.7169c0.8662,-1.55915 1.55915,-2.59859 1.55915,-2.59859c0,0 -0.34648,1.21268 -1.03944,2.94507c-0.51972,0.8662 -0.8662,1.90563 -1.38592,2.94507c-0.51972,1.03944 -1.03944,2.07887 -1.73239,3.11831c-1.38592,2.07887 -2.77183,4.15775 -4.15775,5.37042c-0.69296,0.69296 -1.21268,1.03944 -1.73239,1.38592c-0.51972,0.34648 -0.8662,0.34648 -0.8662,0.34648c0,0 0.17324,-0.17324 0.8662,-0.51972z" fill="#59402f"/><path d="M206.14789,373.42635c0,-0.51972 0,-1.21268 0.17324,-1.90563c0.17324,-0.69296 0.34648,-1.38592 0.69296,-2.07887c0.34648,-0.69296 0.69296,-1.38592 1.03944,-1.90563c0.51972,-0.51972 1.03944,-1.03944 1.38592,-1.38592c0.34648,-0.34648 0.69296,-0.51972 1.03944,-0.69296c0.34648,-0.17324 0.51972,-0.17324 0.51972,-0.17324c0,0 -0.17324,0.17324 -0.34648,0.34648c-0.34648,0.17324 -0.51972,0.69296 -0.8662,1.03944c-0.17324,0.51972 -0.51972,1.03944 -0.8662,1.55915c-0.34648,0.69296 -0.51972,1.21268 -0.8662,1.90563c-0.51972,1.21268 -0.8662,2.59859 -1.21268,3.63803c-0.34648,1.03944 -0.51972,1.73239 -0.51972,1.73239c0,0 -0.17324,-0.69296 -0.17324,-2.07887z" fill="#59402f"/><path d="M208.22676,390.05733c-0.17324,-0.34648 -0.51972,-1.03944 -0.69296,-1.90563c-0.17324,-0.8662 -0.34648,-1.90563 -0.34648,-2.94507c0,-1.03944 0,-2.25211 0.17324,-3.29155c0.17324,-1.21268 0.34648,-2.25211 0.69296,-3.29155c0.17324,-1.03944 0.51972,-1.90563 0.8662,-2.77183c0.34648,-0.8662 0.69296,-1.38592 0.8662,-1.90563c0.17324,-0.51972 0.34648,-0.69296 0.34648,-0.69296c0,0 0,0.17324 -0.17324,0.69296c0,0.34648 -0.17324,1.03944 -0.34648,1.90563c-0.17324,0.8662 -0.34648,1.73239 -0.51972,2.77183c-0.17324,1.03944 -0.34648,2.07887 -0.51972,3.11831c-0.17324,1.03944 -0.34648,2.07887 -0.34648,3.11831c0,1.03944 0,1.90563 0,2.77183c0.17324,1.73239 0.51972,2.77183 0.51972,2.77183c0,0 -0.17324,-0.17324 -0.51972,-0.34648z" fill="#59402f"/><path d="M214.29014,398.71931c-0.34648,-0.17324 -0.8662,-0.69296 -1.21268,-1.21268c-0.34648,-0.51972 -0.8662,-1.21268 -1.03944,-2.07887c-0.17324,-0.69296 -0.34648,-1.73239 -0.51972,-2.59859c-0.17324,-0.51972 -0.17324,-0.8662 -0.17324,-1.38592c0,-0.51972 0,-1.03944 0,-1.38592c0,-0.8662 0.17324,-1.55915 0.17324,-2.25211c0.34648,-1.38592 0.51972,-2.25211 0.51972,-2.25211c0,0 0.17324,0.8662 0.17324,2.25211c0,1.38592 0.17324,3.11831 0.34648,4.8507c0.17324,1.73239 0.51972,3.46479 1.03944,4.67746c0.34648,0.69296 0.69296,1.03944 0.8662,1.38592c0.17324,0.34648 0.34648,0.51972 0.34648,0.51972c0,0 -0.17324,0 -0.51972,-0.51972z" fill="#59402f"/></g><path d="M215.50282,400.62494c0.51972,3.11831 1.03944,6.75634 1.55915,10.56761c0.69296,3.81127 1.21268,7.96901 1.90563,12.12676c0.69296,4.15775 1.38592,8.31549 2.07887,12.12676c0.69296,3.81127 1.55915,7.4493 2.42535,10.39437c0.51972,1.55915 1.03944,2.94507 1.55915,3.98451c0.17324,0.17324 0.34648,0.51972 0.51972,0.69296l0.17324,0.34648c0.17324,0 0.17324,0.17324 0.34648,0.17324c0.51972,0.34648 0.8662,0.34648 1.38592,0.51972c1.73239,0.34648 2.77183,0.51972 2.77183,0.51972c0,0 -1.21268,0 -2.94507,-0.34648c-0.51972,0 -1.03944,-0.17324 -1.55915,-0.34648c-0.17324,0 -0.17324,0 -0.34648,-0.17324l-0.34648,-0.34648c-0.17324,-0.34648 -0.34648,-0.51972 -0.51972,-0.8662c-0.69296,-1.21268 -1.21268,-2.42535 -1.73239,-3.98451c-1.03944,-2.94507 -1.90563,-6.5831 -2.77183,-10.39437c-0.8662,-3.81127 -1.55915,-7.96901 -2.25211,-12.12676c-0.69296,-4.15775 -1.21268,-8.31549 -1.73239,-12.12676c-0.51972,-3.81127 -0.8662,-7.4493 -1.21268,-10.56761c-0.69296,-6.23662 -0.8662,-10.39437 -0.8662,-10.39437c0,0 0.51972,4.15775 1.55915,10.22113z" fill="#59402f"/><path d="M282.37324,292.87001c1.55915,4.33099 3.29155,10.56761 4.50423,18.36338c1.21268,7.79577 1.55915,16.97746 0.69296,26.67887c-0.51972,4.8507 -1.21268,9.87465 -2.25211,14.89859c-1.03944,5.02394 -2.42535,10.04789 -3.98451,15.07183c-1.55915,4.8507 -3.29155,9.87465 -5.37042,14.55211c-2.07887,4.67746 -4.15775,9.18169 -6.23662,13.68592c-4.15775,8.83521 -7.96901,16.97746 -10.91408,24.25352c-1.55915,3.63803 -2.77183,6.92958 -3.11831,10.04789c-0.17324,1.55915 -0.34648,2.94507 -0.17324,4.33099c0,1.38592 0.51972,2.59859 1.03944,3.46479c1.38592,1.90563 2.77183,2.94507 3.81127,3.63803c1.03944,0.69296 1.55915,1.03944 1.55915,1.03944c0,0 -0.51972,-0.34648 -1.55915,-1.03944c-1.03944,-0.69296 -2.59859,-1.73239 -3.98451,-3.63803c-0.51972,-1.03944 -1.03944,-2.25211 -1.21268,-3.63803c-0.17324,-1.38592 -0.17324,-2.94507 0,-4.50423c0.34648,-3.29155 1.55915,-6.75634 2.94507,-10.39437c2.77183,-7.27606 6.75634,-15.59155 10.74085,-24.42676c2.07887,-4.50423 4.15775,-9.00845 6.23662,-13.68592c1.90563,-4.67746 3.81127,-9.52817 5.37042,-14.55211c1.55915,-4.8507 2.94507,-9.87465 3.98451,-14.89859c1.03944,-5.02394 1.73239,-10.04789 2.25211,-14.89859c1.03944,-9.70141 0.69296,-18.70986 -0.34648,-26.50563c-0.8662,-7.79577 -2.59859,-14.03239 -4.15775,-18.36338c-1.55915,-4.33099 -2.77183,-6.5831 -2.77183,-6.5831c0,0 1.21268,2.25211 2.94507,7.10282z" fill="#59402f"/></g><g stroke-width="1"><g fill="#8d674a"><path d="M288.26338,146.65593c11.60704,32.56901 9.35493,42.27042 13.33944,51.97183c3.98451,9.70141 25.98592,24.42676 37.07324,35.34085c6.92958,6.75634 12.3,11.60704 15.76479,15.59155c3.46479,3.98451 0.69296,18.0169 -29.79718,15.07183c-9.70141,-0.8662 -76.05211,-32.74225 -92.6831,-66.00423c-23.21408,-73.62676 40.19155,-97.70704 56.30282,-51.97183z"/><path d="M243.56761,215.77846c-9.00845,-1.21268 -10.22113,-12.81972 -10.22113,-12.81972l-1.03944,6.75634c-4.33099,-5.54366 -4.50423,-17.67042 -4.50423,-17.67042l-3.11831,3.98451c-2.42535,-6.92958 1.90563,-13.33944 1.90563,-13.33944c-1.03944,3.63803 -5.7169,3.11831 -5.7169,3.11831c3.46479,-1.90563 6.5831,-24.42676 6.5831,-24.42676"/></g><path d="M221.39296,184.7686c0.34648,-0.51972 0.69296,-1.38592 1.03944,-2.25211c0.51972,-2.07887 1.38592,-4.67746 1.90563,-7.27606c0.69296,-2.59859 1.21268,-5.19718 1.55915,-7.27606c0.34648,-1.90563 0.69296,-3.29155 0.69296,-3.29155c0,0 0,0.34648 0,0.8662c0,0.51972 0,1.38592 0,2.42535c0,1.03944 -0.17324,2.25211 -0.34648,3.46479c-0.17324,0.51972 -0.17324,1.21268 -0.34648,1.90563c0,0.69296 -0.17324,1.38592 -0.34648,2.07887c-0.51972,2.77183 -1.38592,5.37042 -2.42535,7.27606c-0.51972,0.8662 -1.03944,1.55915 -1.38592,2.07887c-0.34648,0.51972 -0.69296,0.69296 -0.69296,0.69296c0,0 0.17324,-0.17324 0.34648,-0.69296z" fill="#59402f"/><path d="M224.16479,193.95029c-0.17324,-0.51972 -0.34648,-1.21268 -0.51972,-1.90563c-0.17324,-0.69296 -0.17324,-1.55915 -0.17324,-2.25211c0,-0.8662 0.17324,-1.55915 0.34648,-2.25211c0.17324,-0.69296 0.34648,-1.21268 0.69296,-1.73239c0.34648,-0.51972 0.69296,-0.8662 0.8662,-1.03944c0.17324,-0.17324 0.34648,-0.34648 0.34648,-0.34648c0,0 0,0.17324 -0.17324,0.51972c-0.17324,0.34648 -0.17324,0.69296 -0.34648,1.21268c-0.17324,0.51972 -0.17324,1.03944 -0.34648,1.73239c0,0.69296 -0.17324,1.38592 -0.17324,2.07887c-0.17324,1.38592 0,2.77183 0,3.81127c0.17324,1.03944 0.17324,1.73239 0.17324,1.73239c0,0 -0.34648,-0.51972 -0.69296,-1.55915z" fill="#59402f"/><path d="M231.61408,208.15593c-0.34648,-0.34648 -0.8662,-0.8662 -1.38592,-1.55915c-0.51972,-0.69296 -1.03944,-1.55915 -1.38592,-2.59859c-0.34648,-0.8662 -0.69296,-2.07887 -0.8662,-3.11831c-0.34648,-1.03944 -0.51972,-2.25211 -0.51972,-3.29155c0,-1.03944 0,-2.07887 0,-2.94507c0,-0.8662 0.17324,-1.55915 0.17324,-2.07887c0.17324,-0.34648 0.17324,-0.69296 0.17324,-0.69296c0,0 0.17324,0.17324 0.17324,0.69296c0.17324,0.51972 0.17324,1.21268 0.34648,2.07887c0,0.8662 0.17324,1.73239 0.34648,2.77183c0.17324,1.03944 0.34648,2.07887 0.51972,3.11831c0.17324,1.03944 0.34648,2.07887 0.69296,3.11831c0.17324,1.03944 0.51972,1.90563 0.8662,2.59859c0.69296,1.55915 1.38592,2.42535 1.38592,2.42535c0,0 -0.17324,0 -0.51972,-0.51972z" fill="#59402f"/><path d="M242.35493,215.60522c-0.51972,0 -1.21268,-0.17324 -1.90563,-0.51972c-0.51972,-0.17324 -0.8662,-0.51972 -1.21268,-0.69296c-0.34648,-0.17324 -0.69296,-0.51972 -1.03944,-0.8662c-0.69296,-0.69296 -1.38592,-1.55915 -1.90563,-2.42535c-0.17324,-0.51972 -0.51972,-0.8662 -0.69296,-1.38592c-0.17324,-0.51972 -0.34648,-0.8662 -0.51972,-1.38592c-0.51972,-1.03944 -0.69296,-1.90563 -0.8662,-2.59859c-0.17324,-0.8662 -0.34648,-1.38592 -0.34648,-1.90563c-0.17324,-0.51972 -0.17324,-0.69296 -0.17324,-0.69296c0,0 0.17324,0.34648 0.34648,0.69296c0.17324,0.51972 0.34648,1.03944 0.69296,1.73239c0.34648,0.69296 0.51972,1.55915 1.03944,2.42535c0.17324,0.34648 0.51972,0.8662 0.69296,1.21268c0.17324,0.34648 0.34648,0.8662 0.69296,1.21268c0.51972,0.69296 1.03944,1.55915 1.73239,2.25211c0.69296,0.69296 1.21268,1.38592 1.90563,1.73239c1.21268,0.8662 2.25211,1.03944 2.25211,1.03944c0,0 -0.34648,0 -0.69296,0.17324z" fill="#59402f"/><path d="M343.87324,262.37987c-0.34648,-0.69296 -1.03944,-1.38592 -1.55915,-2.25211c-0.51972,-0.8662 -1.21268,-1.73239 -1.73239,-2.25211c-0.17324,-0.17324 -0.34648,-0.51972 -0.51972,-0.69296c-0.17324,-0.17324 -0.17324,-0.34648 -0.17324,-0.34648c0,0 0.51972,0.17324 1.21268,0.51972c0.69296,0.34648 1.55915,1.03944 2.25211,1.90563c0.51972,0.8662 1.03944,1.73239 1.21268,2.59859c0.17324,0.8662 0.17324,1.38592 0.17324,1.38592c0,0 -0.17324,-0.34648 -0.8662,-0.8662z" fill="#59402f"/><path d="M350.62958,258.39536c-0.51972,-0.69296 -1.21268,-1.55915 -2.07887,-2.42535c-0.69296,-0.8662 -1.55915,-1.73239 -2.25211,-2.25211c-0.34648,-0.34648 -0.69296,-0.51972 -0.8662,-0.69296c-0.17324,-0.17324 -0.34648,-0.34648 -0.34648,-0.34648c0,0 0,0.17324 0.34648,0.17324c0.17324,0 0.69296,0.17324 1.03944,0.34648c0.34648,0.17324 0.8662,0.51972 1.38592,0.8662c0.51972,0.34648 1.03944,0.69296 1.38592,1.21268c0.8662,1.03944 1.55915,2.07887 1.90563,2.94507c0.34648,0.8662 0.34648,1.55915 0.34648,1.55915c0,0 -0.34648,-0.51972 -0.8662,-1.38592z" fill="#59402f"/><g fill="#59402f"><path d="M341.27465,264.45874c-3.46479,0.69296 -8.48873,1.03944 -14.37887,0.34648c-2.94507,-0.34648 -6.06338,-1.03944 -9.35493,-2.07887c-3.29155,-1.03944 -6.75634,-2.59859 -10.04789,-4.15775c-3.46479,-1.55915 -6.92958,-3.29155 -10.39437,-5.02394c-3.63803,-1.73239 -7.10282,-3.63803 -10.56761,-5.54366c-3.46479,-2.07887 -6.92958,-4.15775 -10.22113,-6.23662c-3.29155,-2.07887 -6.5831,-4.33099 -9.52817,-6.5831c-5.89014,-4.50423 -11.4338,-8.83521 -15.76479,-12.99296c-4.33099,-4.15775 -7.62254,-7.96901 -9.70141,-10.74085c-2.07887,-2.77183 -2.94507,-4.67746 -2.94507,-4.67746c0,0 0.17324,0.51972 0.69296,1.21268c0.51972,0.69296 1.38592,1.73239 2.42535,3.11831c1.03944,1.38592 2.42535,2.94507 4.15775,4.67746c1.73239,1.73239 3.63803,3.63803 5.89014,5.54366c2.25211,1.90563 4.67746,3.98451 7.4493,6.06338c2.59859,2.07887 5.54366,4.15775 8.48873,6.40986c6.06338,4.15775 12.81972,8.66197 19.57606,12.64648c3.46479,1.90563 6.92958,3.81127 10.39437,5.7169c3.46479,1.90563 6.92958,3.63803 10.22113,5.37042c3.11831,1.73239 6.40986,3.11831 9.70141,4.33099c3.29155,1.03944 6.40986,1.90563 9.35493,2.25211c2.94507,0.34648 5.7169,0.51972 8.14225,0.51972c2.42535,0 4.50423,-0.17324 6.23662,-0.51972c3.46479,-0.51972 5.37042,-1.21268 5.37042,-1.21268c0,0 -1.90563,0.69296 -5.19718,1.55915z"/><path d="M354.61408,257.52917c0.34648,-0.69296 1.03944,-1.90563 1.03944,-3.46479c0,-1.55915 -0.51972,-3.46479 -1.73239,-5.19718c-1.21268,-1.73239 -2.94507,-3.46479 -5.02394,-5.19718c-1.03944,-0.8662 -2.25211,-1.55915 -3.29155,-2.59859c-1.21268,-0.8662 -2.25211,-1.90563 -3.46479,-2.94507c-2.25211,-2.07887 -4.67746,-4.33099 -7.10282,-6.5831c-2.42535,-2.42535 -4.8507,-4.8507 -7.62254,-7.10282c-2.77183,-2.25211 -5.54366,-4.50423 -8.48873,-6.5831c-2.94507,-2.07887 -5.89014,-4.33099 -8.48873,-6.75634c-2.59859,-2.42535 -5.02394,-5.02394 -6.75634,-8.14225c-0.8662,-1.55915 -1.55915,-3.11831 -2.07887,-4.67746c-0.69296,-1.55915 -1.03944,-3.11831 -1.38592,-4.67746c-0.8662,-2.94507 -1.38592,-5.89014 -1.90563,-8.48873c-1.03944,-5.37042 -1.73239,-9.70141 -2.42535,-12.81972c-0.8662,-3.11831 -1.21268,-4.8507 -1.21268,-4.8507c0,0 0.17324,0.34648 0.51972,1.21268c0.34648,0.8662 0.69296,1.90563 1.21268,3.46479c0.51972,1.55915 1.03944,3.46479 1.55915,5.54366c0.51972,2.25211 1.03944,4.67746 1.55915,7.27606c0.51972,2.77183 1.21268,5.54366 2.07887,8.48873c0.8662,2.94507 1.73239,6.06338 3.46479,8.83521c1.73239,2.77183 3.81127,5.37042 6.40986,7.79577c2.42535,2.25211 5.37042,4.50423 8.14225,6.75634c2.94507,2.25211 5.7169,4.50423 8.31549,6.92958c2.59859,2.42535 5.02394,4.8507 7.4493,7.27606c2.25211,2.42535 4.67746,4.67746 6.92958,6.75634c1.03944,1.03944 2.25211,2.07887 3.29155,2.94507c1.03944,0.8662 2.25211,1.73239 3.29155,2.59859c2.07887,1.90563 3.81127,3.63803 5.02394,5.54366c1.21268,1.90563 1.73239,3.81127 1.55915,5.37042c-0.17324,1.73239 -0.69296,2.77183 -1.21268,3.46479c-0.51972,0.69296 -0.8662,1.03944 -0.8662,1.03944c0,0 0.34648,-0.34648 1.21268,-1.21268z"/></g><path d="M337.46338,263.07283c-0.8662,-1.03944 -2.25211,-2.77183 -0.34648,-2.94507c1.90563,-0.17324 3.46479,4.15775 3.46479,5.19718c0,0.69296 -2.25211,-1.21268 -3.11831,-2.25211z" fill="#6c5f57"/><path d="M347.33803,262.03339c-0.8662,-1.03944 -2.25211,-2.94507 -0.34648,-2.94507c1.90563,-0.17324 3.46479,4.15775 3.46479,5.19718c0,0.69296 -2.25211,-1.21268 -3.11831,-2.25211z" fill="#6c5f57"/><path d="M352.88169,257.35593c-0.8662,-1.03944 -2.25211,-2.77183 -0.34648,-2.94507c1.90563,-0.17324 3.46479,4.15775 3.46479,5.19718c0,0.69296 -2.07887,-1.03944 -3.11831,-2.25211z" fill="#6c5f57"/></g><g stroke-width="1"><path d="M262.27746,101.44043c22.52113,19.22958 21.65493,77.95775 21.65493,77.95775c37.93944,101.17183 -26.33239,172.89296 -64.27183,182.42113c-40.36479,10.04789 -93.02958,0 -100.47887,-55.60986c-11.4338,-86.1 37.41972,-164.40423 37.41972,-164.40423c2.07887,-25.29296 13.68592,-54.74366 13.68592,-54.74366" data-paper-data="{&quot;origPos&quot;:null}" fill="#8d674a"/><path d="M128.36338,209.71508c-1.03944,3.46479 -2.42535,8.31549 -3.81127,14.37887c-0.69296,2.94507 -1.38592,6.23662 -2.07887,9.70141c-0.69296,3.46479 -1.38592,7.10282 -1.90563,10.91408c-0.69296,3.81127 -1.21268,7.79577 -1.55915,11.78028c-0.34648,3.98451 -0.69296,7.96901 -0.8662,12.12676c-0.17324,4.15775 -0.34648,8.31549 -0.17324,12.3c0.17324,2.07887 0.17324,4.15775 0.34648,6.06338c0.17324,2.07887 0.34648,3.98451 0.51972,5.89014c0.17324,1.90563 0.34648,3.63803 0.69296,5.54366c0.17324,1.90563 0.51972,3.63803 0.8662,5.37042c0.34648,1.73239 0.69296,3.46479 1.03944,5.02394c0.34648,1.55915 0.69296,3.11831 1.21268,4.67746c0.69296,2.94507 1.55915,5.54366 2.42535,7.96901c0.69296,2.42535 1.55915,4.33099 2.25211,6.06338c1.55915,3.29155 2.42535,5.19718 2.42535,5.19718c0,0 -1.03944,-1.73239 -2.59859,-5.02394c-0.69296,-1.73239 -1.73239,-3.63803 -2.59859,-6.06338c-0.51972,-1.21268 -0.8662,-2.42535 -1.38592,-3.81127c-0.51972,-1.21268 -0.8662,-2.59859 -1.38592,-4.15775c-0.34648,-1.55915 -0.8662,-3.11831 -1.21268,-4.67746c-0.51972,-1.55915 -0.8662,-3.29155 -1.21268,-5.02394c-0.34648,-1.73239 -0.8662,-3.46479 -1.03944,-5.37042c-0.17324,-1.90563 -0.51972,-3.81127 -0.69296,-5.7169c-0.17324,-1.90563 -0.34648,-3.98451 -0.51972,-5.89014c-0.17324,-2.07887 -0.34648,-3.98451 -0.34648,-6.06338c-0.17324,-3.98451 -0.17324,-8.14225 0,-12.3c0.17324,-4.15775 0.34648,-8.31549 0.8662,-12.3c0.34648,-3.98451 0.8662,-7.96901 1.55915,-11.78028c1.21268,-7.62254 2.77183,-14.55211 4.33099,-20.61549c3.11831,-11.95352 6.23662,-19.57606 6.23662,-19.57606c0,0 -0.69296,1.90563 -1.38592,5.37042z" data-paper-data="{&quot;origPos&quot;:null}" fill="#59402f"/><path d="M292.94085,212.48691c1.21268,6.23662 2.25211,13.68592 2.77183,21.65493c0.51972,7.96901 0.51972,16.63099 -0.51972,25.11972c-0.51972,4.33099 -1.21268,8.48873 -2.25211,12.64648c-0.51972,2.07887 -1.03944,4.15775 -1.73239,6.06338c-0.51972,1.90563 -1.21268,3.81127 -1.90563,5.7169c-0.69296,1.90563 -1.38592,3.81127 -2.07887,5.54366c-0.69296,1.73239 -1.38592,3.46479 -2.07887,5.19718c-1.55915,3.29155 -3.11831,6.40986 -4.50423,9.35493c-1.55915,2.77183 -2.94507,5.37042 -4.33099,7.62254c-1.21268,2.25211 -2.59859,4.15775 -3.63803,5.7169c-2.25211,3.11831 -3.63803,4.67746 -3.63803,4.67746c0,0 1.21268,-1.73239 3.29155,-4.8507c1.03944,-1.55915 2.25211,-3.46479 3.46479,-5.7169c1.38592,-2.25211 2.77183,-4.8507 4.15775,-7.62254c1.38592,-2.77183 2.77183,-5.89014 4.15775,-9.35493c1.38592,-3.29155 2.77183,-6.92958 3.98451,-10.74085c0.69296,-1.73239 1.38592,-3.81127 1.90563,-5.7169c0.69296,-1.90563 1.21268,-3.81127 1.73239,-5.89014c1.03944,-4.15775 1.73239,-8.31549 2.25211,-12.47324c1.03944,-8.48873 1.21268,-16.97746 0.69296,-24.94648c-0.34648,-7.96901 -1.38592,-15.41831 -2.42535,-21.65493c-2.07887,-12.64648 -4.67746,-20.78873 -4.67746,-20.78873c0,0 2.77183,8.14225 5.37042,20.44225z" data-paper-data="{&quot;origPos&quot;:null}" fill="#59402f"/><path d="M231.61408,357.31508c-2.59859,1.03944 -6.40986,2.59859 -11.26056,3.98451c-2.42535,0.69296 -5.02394,1.38592 -7.79577,1.90563c-2.77183,0.51972 -5.7169,1.03944 -8.83521,1.38592c-3.11831,0.34648 -6.23662,0.51972 -9.52817,0.51972c-3.29155,0.17324 -6.5831,0 -9.87465,-0.34648c-1.73239,-0.17324 -3.46479,-0.51972 -5.02394,-0.69296c-1.55915,-0.34648 -3.29155,-0.69296 -4.8507,-1.03944c-3.11831,-0.69296 -6.23662,-1.55915 -9.18169,-2.59859c-2.94507,-1.03944 -5.7169,-2.25211 -8.31549,-3.46479c-1.21268,-0.69296 -2.42535,-1.21268 -3.63803,-1.90563c-1.03944,-0.51972 -2.25211,-1.21268 -3.29155,-1.90563c-2.07887,-1.21268 -3.98451,-2.59859 -5.54366,-3.81127c-1.55915,-1.21268 -2.94507,-2.25211 -3.98451,-3.29155c-2.25211,-2.07887 -3.46479,-3.11831 -3.46479,-3.11831c0,0 1.21268,1.03944 3.46479,2.94507c1.03944,0.8662 2.59859,1.90563 4.15775,3.11831c0.69296,0.51972 1.73239,1.03944 2.59859,1.73239c0.8662,0.51972 1.90563,1.38592 2.94507,1.90563c1.03944,0.69296 2.07887,1.21268 3.29155,1.90563c1.03944,0.69296 2.42535,1.21268 3.63803,1.90563c2.42535,1.21268 5.19718,2.25211 8.14225,3.29155c2.94507,1.03944 6.06338,1.90563 9.18169,2.59859c1.55915,0.34648 3.29155,0.51972 4.8507,0.8662c1.55915,0.17324 3.29155,0.34648 4.8507,0.51972c3.11831,0.34648 6.40986,0.51972 9.70141,0.51972c3.29155,0 6.40986,-0.17324 9.52817,-0.51972c6.23662,-0.69296 11.78028,-1.73239 16.63099,-2.94507c4.8507,-1.38592 8.66197,-2.59859 11.4338,-3.63803c2.59859,-1.03944 4.15775,-1.73239 4.15775,-1.73239c0,0 -1.38592,0.8662 -3.98451,1.90563z" data-paper-data="{&quot;origPos&quot;:null}" fill="#59402f"/><path d="M269.38028,107.85029c0.8662,1.21268 2.07887,3.11831 3.29155,5.54366c0.69296,1.21268 1.38592,2.59859 1.90563,3.98451c0.51972,1.38592 1.21268,2.94507 1.73239,4.50423c0.51972,1.55915 1.03944,3.11831 1.55915,4.8507c0.51972,1.73239 1.03944,3.46479 1.38592,5.19718c0.34648,1.73239 0.69296,3.46479 1.03944,5.19718c0.34648,1.73239 0.69296,3.29155 0.8662,5.02394c0.17324,1.73239 0.34648,3.29155 0.51972,4.8507c0.17324,1.55915 0.17324,2.94507 0.34648,4.33099c0.17324,2.59859 0.17324,4.8507 0.17324,6.40986c0,1.55915 0,2.42535 0,2.42535c0,0 0,-0.8662 -0.17324,-2.42535c-0.17324,-1.55915 -0.34648,-3.81127 -0.69296,-6.40986c-0.17324,-1.38592 -0.34648,-2.77183 -0.51972,-4.33099c-0.17324,-1.38592 -0.34648,-3.11831 -0.69296,-4.67746c-0.17324,-1.73239 -0.51972,-3.29155 -0.8662,-5.02394c-0.34648,-1.73239 -0.8662,-3.46479 -1.21268,-5.19718c-0.34648,-1.73239 -1.03944,-3.29155 -1.38592,-5.02394c-0.51972,-1.73239 -1.03944,-3.29155 -1.55915,-4.8507c-0.69296,-1.55915 -1.21268,-3.11831 -1.73239,-4.50423c-0.51972,-1.38592 -1.21268,-2.77183 -1.73239,-3.98451c-1.21268,-2.42535 -2.07887,-4.33099 -2.94507,-5.7169c-0.8662,-1.38592 -1.38592,-2.07887 -1.38592,-2.07887c0,0 0.69296,0.69296 2.07887,1.90563z" data-paper-data="{&quot;origPos&quot;:null}" fill="#59402f"/></g><g stroke-width="1"><path d="M241.66197,135.22212c0,0 12.47324,9.18169 14.03239,15.07183l-5.02394,-2.07887c0,0 9.18169,8.66197 9.00845,16.28451l-3.46479,-2.94507c0,0 9.18169,10.91408 4.8507,21.48169l-2.07887,-3.81127c0,0 -2.77183,13.68592 1.03944,17.49718l-3.63803,-0.8662c0,0 -0.8662,14.37887 -6.40986,15.59155" fill="#8d674a"/><path d="M245.3,137.64748c1.55915,1.03944 3.46479,2.59859 5.19718,4.33099c0.8662,0.8662 1.73239,1.90563 2.42535,2.77183c0.34648,0.51972 0.51972,0.8662 0.8662,1.38592c0.34648,0.51972 0.51972,1.03944 0.69296,1.38592c0.34648,0.51972 0.34648,0.8662 0.51972,1.21268c0.17324,0.34648 0.34648,0.51972 0.34648,0.8662c0.17324,0.51972 0.17324,0.8662 0.17324,0.8662c0,0 -0.17324,-0.17324 -0.34648,-0.69296c-0.17324,-0.34648 -0.34648,-0.51972 -0.51972,-0.8662c-0.17324,-0.34648 -0.34648,-0.69296 -0.69296,-1.03944c-1.03944,-1.55915 -2.59859,-3.29155 -4.33099,-5.02394c-1.55915,-1.73239 -3.29155,-3.46479 -4.67746,-4.67746c-1.38592,-1.21268 -2.25211,-2.07887 -2.25211,-2.07887c0,0 1.03944,0.69296 2.59859,1.55915z" fill="#59402f"/><path d="M252.57606,150.29395c1.21268,1.38592 2.77183,3.11831 3.98451,5.02394c0.69296,0.8662 1.21268,1.90563 1.73239,2.94507c0.51972,0.8662 0.8662,1.90563 1.03944,2.77183c0.17324,0.51972 0.17324,0.8662 0.17324,1.21268c0,0.34648 0,0.69296 0,0.8662c-0.17324,0.51972 -0.17324,0.8662 -0.17324,0.8662c0,0 0,-0.34648 0,-0.8662c0,-0.17324 -0.17324,-0.51972 -0.17324,-0.8662c0,-0.34648 -0.17324,-0.69296 -0.34648,-1.03944c-0.17324,-0.8662 -0.69296,-1.73239 -1.21268,-2.59859c-0.51972,-0.8662 -1.03944,-1.90563 -1.73239,-2.77183c-1.21268,-1.90563 -2.42535,-3.81127 -3.46479,-5.19718c-0.8662,-1.55915 -1.55915,-2.42535 -1.55915,-2.42535c0,0 0.8662,0.69296 1.73239,2.07887z" fill="#59402f"/><path d="M258.4662,164.67283c0.69296,1.03944 1.38592,2.07887 1.90563,3.29155c0.69296,1.21268 1.21268,2.59859 1.55915,3.98451c0.17324,0.69296 0.34648,1.38592 0.51972,2.07887c0,0.69296 0.17324,1.38592 0.17324,2.07887c0,0.69296 0.17324,1.38592 0,2.07887c0,0.51972 0,1.21268 -0.17324,1.73239c-0.17324,0.51972 -0.17324,0.8662 -0.34648,1.38592c-0.17324,0.34648 -0.34648,0.69296 -0.51972,1.03944c-0.17324,0.51972 -0.34648,0.8662 -0.34648,0.8662c0,0 0,-0.34648 0.17324,-1.03944c0,-0.17324 0,-0.69296 0.17324,-1.03944c0,-0.34648 0.17324,-0.8662 0.17324,-1.38592c0,-0.51972 0,-1.21268 0,-1.73239c0,-0.69296 -0.17324,-1.21268 -0.17324,-1.90563c0,-0.69296 -0.17324,-1.38592 -0.34648,-2.07887c-0.17324,-0.69296 -0.34648,-1.38592 -0.51972,-2.07887c-0.69296,-2.77183 -1.90563,-5.37042 -2.94507,-7.27606c-0.8662,-1.90563 -1.73239,-3.11831 -1.73239,-3.11831c0,0 1.03944,0.8662 2.42535,3.11831z" fill="#59402f"/><path d="M258.81268,182.17001c0,0.69296 -0.17324,1.73239 -0.17324,2.77183c-0.17324,1.03944 -0.17324,2.25211 -0.17324,3.29155c0,1.21268 0,2.25211 0.17324,3.29155c0,0.34648 0.17324,0.8662 0.17324,1.38592c0.17324,0.51972 0.34648,1.03944 0.34648,1.38592c0.17324,0.34648 0.17324,0.69296 0.34648,1.03944c0.17324,0.34648 0.34648,0.69296 0.34648,0.8662c0.17324,0.34648 0.34648,0.69296 0.34648,0.69296c0,0 -0.17324,-0.34648 -0.51972,-0.69296c-0.17324,-0.17324 -0.34648,-0.34648 -0.51972,-0.69296c-0.17324,-0.34648 -0.34648,-0.69296 -0.51972,-1.03944c-0.34648,-0.69296 -0.69296,-1.73239 -0.8662,-2.77183c-0.17324,-1.03944 -0.34648,-2.07887 -0.34648,-3.29155c0,-1.03944 0,-2.25211 0.17324,-3.29155c0.17324,-1.21268 0.34648,-2.07887 0.51972,-2.94507c0.34648,-1.73239 0.8662,-2.77183 0.8662,-2.77183c0,0 -0.17324,1.21268 -0.17324,2.77183z" fill="#59402f"/><path d="M256.56056,199.32072c0,0.8662 -0.17324,1.90563 -0.34648,2.94507c-0.17324,1.03944 -0.51972,2.25211 -0.8662,3.29155c-0.34648,1.03944 -0.8662,2.07887 -1.38592,3.11831c-0.51972,0.8662 -1.21268,1.73239 -1.73239,2.42535c-0.34648,0.34648 -0.69296,0.69296 -0.8662,0.8662c-0.17324,0.17324 -0.51972,0.34648 -0.69296,0.51972c-0.51972,0.34648 -0.69296,0.51972 -0.69296,0.51972c0,0 0.17324,-0.34648 0.51972,-0.69296c0.17324,-0.17324 0.34648,-0.34648 0.51972,-0.69296c0.17324,-0.34648 0.51972,-0.69296 0.69296,-1.03944c0.17324,-0.34648 0.51972,-0.8662 0.69296,-1.21268c0.17324,-0.51972 0.51972,-0.8662 0.69296,-1.38592c0.51972,-1.03944 0.8662,-2.07887 1.21268,-3.11831c0.34648,-1.03944 0.69296,-2.07887 0.8662,-3.11831c0.34648,-1.03944 0.51972,-1.90563 0.69296,-2.77183c0.34648,-1.55915 0.51972,-2.77183 0.51972,-2.77183c0,0 0.17324,1.03944 0.17324,3.11831z" fill="#59402f"/></g><g stroke-width="1"><path d="M195.06056,323.01367c0,0 3.29155,38.28592 -25.11972,78.6507c-14.20563,20.09577 -17.32394,35.86056 -14.72535,40.19155c2.59859,4.33099 11.4338,7.96901 9.00845,10.39437c-2.59859,2.42535 -34.30141,3.98451 -41.23099,0.17324c-2.94507,-1.55915 -8.66197,-48.3338 -5.02394,-68.60282c3.46479,-20.26901 7.10282,-26.85211 6.40986,-41.7507c-0.69296,-14.89859 -8.48873,-40.71127 -2.42535,-51.97183c5.89014,-11.26056 22.86761,-29.4507 48.68028,-17.67042c25.81268,11.78028 25.4662,40.53803 24.42676,50.58592z" fill="#8d674a"/><path d="M150.36479,452.77001c-0.51972,-0.69296 -1.03944,-1.55915 -1.73239,-2.25211c-0.51972,-0.69296 -1.21268,-1.55915 -1.73239,-2.07887c-0.34648,-0.34648 -0.51972,-0.51972 -0.69296,-0.69296c-0.17324,-0.17324 -0.17324,-0.34648 -0.17324,-0.34648c0,0 0.51972,0.17324 1.21268,0.51972c0.69296,0.34648 1.55915,1.03944 2.25211,1.90563c0.69296,0.8662 1.21268,1.73239 1.38592,2.59859c0.17324,0.8662 0.17324,1.38592 0.17324,1.38592c0,0 -0.17324,-0.51972 -0.69296,-1.03944z" fill="#59402f"/><path d="M159.2,452.07705c-0.51972,-0.69296 -1.21268,-1.55915 -2.07887,-2.42535c-0.8662,-0.8662 -1.73239,-1.73239 -2.42535,-2.25211c-0.34648,-0.34648 -0.69296,-0.51972 -0.8662,-0.69296c-0.17324,-0.17324 -0.34648,-0.34648 -0.34648,-0.34648c0,0 0,0 0.34648,0c0.17324,0 0.51972,0.17324 1.03944,0.34648c0.34648,0.17324 0.8662,0.34648 1.38592,0.69296c0.51972,0.34648 0.8662,0.69296 1.38592,1.21268c0.8662,1.03944 1.55915,2.07887 1.90563,2.94507c0.51972,0.8662 0.51972,1.55915 0.51972,1.55915c0,0 -0.34648,-0.51972 -0.8662,-1.03944z" fill="#59402f"/><path d="M146.55352,453.98269c-1.03944,-1.03944 -2.25211,-2.77183 -0.51972,-2.94507c1.90563,-0.17324 3.63803,3.98451 3.63803,5.02394c0.17324,0.69296 -2.07887,-1.03944 -3.11831,-2.07887z" fill="#6c5f57"/><path d="M155.38873,452.59677c-1.03944,-1.03944 -2.25211,-2.77183 -0.51972,-2.94507c1.90563,-0.17324 3.63803,3.98451 3.63803,5.02394c0.17324,0.69296 -2.07887,-1.03944 -3.11831,-2.07887z" fill="#6c5f57"/><path d="M160.93239,451.90381c-1.03944,-1.03944 -2.25211,-2.77183 -0.51972,-2.94507c1.90563,-0.17324 3.63803,3.98451 3.63803,5.02394c0.17324,0.51972 -2.07887,-1.03944 -3.11831,-2.07887z" fill="#6c5f57"/><g><path d="M118.83521,401.83762c-7.62254,-4.8507 -3.81127,-15.93803 -3.81127,-15.93803l-3.81127,5.7169c-1.73239,-6.92958 3.29155,-18.0169 3.29155,-18.0169l-4.50423,2.25211c0.69296,-7.27606 7.27606,-11.26056 7.27606,-11.26056c-2.59859,2.94507 -6.5831,0.51972 -6.5831,0.51972c3.81127,-0.34648 14.03239,-18.36338 14.03239,-18.36338" fill="#8d674a"/><path d="M111.73239,364.59114c0.34648,-0.34648 1.03944,-0.8662 1.55915,-1.55915c1.21268,-1.21268 2.59859,-3.29155 3.98451,-5.19718c1.38592,-1.90563 2.77183,-3.81127 3.81127,-5.37042c1.21268,-1.38592 1.90563,-2.42535 1.90563,-2.42535c0,0 -0.34648,1.03944 -1.21268,2.77183c-0.51972,0.8662 -1.03944,1.73239 -1.55915,2.77183c-0.51972,0.8662 -1.21268,1.90563 -1.90563,2.94507c-1.38592,1.90563 -3.11831,3.81127 -4.50423,5.02394c-0.69296,0.51972 -1.38592,1.03944 -1.90563,1.21268c-0.51972,0.17324 -0.8662,0.17324 -0.8662,0.17324c0,0 0.34648,-0.17324 0.69296,-0.34648z" fill="#59402f"/><path d="M110.34648,374.11931c0,-0.51972 0.17324,-1.21268 0.34648,-1.90563c0.17324,-0.69296 0.51972,-1.38592 0.8662,-2.07887c0.34648,-0.69296 0.69296,-1.38592 1.21268,-1.90563c0.34648,-0.69296 0.8662,-1.03944 1.38592,-1.38592c0.51972,-0.34648 0.8662,-0.51972 1.21268,-0.69296c0.34648,-0.17324 0.51972,-0.17324 0.51972,-0.17324c0,0 -0.17324,0.17324 -0.34648,0.34648c-0.17324,0.34648 -0.51972,0.69296 -0.8662,1.03944c-0.34648,0.34648 -0.69296,0.8662 -1.03944,1.38592c-0.34648,0.51972 -0.69296,1.03944 -1.03944,1.73239c-0.69296,1.21268 -1.21268,2.42535 -1.55915,3.46479c-0.51972,1.03944 -0.69296,1.73239 -0.69296,1.73239c0,0 -0.17324,-0.69296 0,-1.55915z" fill="#59402f"/><path d="M110.8662,389.8841c-0.17324,-0.34648 -0.34648,-1.03944 -0.51972,-1.90563c-0.17324,-0.8662 -0.17324,-1.90563 -0.17324,-2.94507c0,-1.03944 0.34648,-2.25211 0.51972,-3.29155c0.34648,-1.03944 0.69296,-2.07887 1.03944,-3.11831c0.34648,-1.03944 0.8662,-1.90563 1.21268,-2.59859c0.34648,-0.69296 0.8662,-1.38592 1.03944,-1.73239c0.17324,-0.51972 0.34648,-0.69296 0.34648,-0.69296c0,0 0,0.17324 -0.17324,0.69296c0,0.51972 -0.34648,1.03944 -0.51972,1.90563c-0.34648,0.8662 -0.51972,1.73239 -0.8662,2.77183c-0.34648,1.03944 -0.69296,2.07887 -0.8662,3.11831c-0.17324,1.03944 -0.34648,2.07887 -0.51972,3.11831c-0.17324,1.03944 -0.17324,1.90563 -0.17324,2.77183c-0.17324,1.73239 0.17324,2.77183 0.17324,2.77183c0,0 -0.17324,-0.34648 -0.51972,-0.8662z" fill="#59402f"/><path d="M116.06338,399.93198c-0.17324,-0.34648 -0.69296,-0.69296 -1.03944,-1.38592c-0.34648,-0.69296 -0.69296,-1.38592 -0.8662,-2.25211c-0.17324,-0.8662 -0.34648,-1.90563 -0.34648,-2.77183c0,-0.51972 0,-0.8662 0,-1.38592c0,-0.51972 0.17324,-1.03944 0.17324,-1.38592c0,-0.8662 0.17324,-1.55915 0.34648,-2.25211c0.34648,-1.38592 0.69296,-2.25211 0.69296,-2.25211c0,0 0,0.8662 0,2.25211c0,1.38592 0,3.11831 0,4.8507c0,1.73239 0.34648,3.46479 0.69296,4.67746c0.17324,0.51972 0.51972,1.03944 0.69296,1.38592c0.17324,0.34648 0.34648,0.51972 0.34648,0.51972c0,0 -0.17324,-0.17324 -0.69296,0z" fill="#59402f"/></g><path d="M116.92958,401.83762c0.34648,3.11831 0.51972,6.75634 0.69296,10.74085c0.34648,3.98451 0.51972,8.14225 0.8662,12.3c0.17324,4.15775 0.51972,8.31549 1.03944,12.12676c0.34648,3.98451 0.8662,7.4493 1.55915,10.56761c0.34648,1.38592 0.69296,2.77183 1.21268,3.98451c0,0.34648 0.17324,0.69296 0.34648,0.8662l0.17324,0.34648c0.17324,0 0.17324,0.17324 0.34648,0.17324c0.51972,0.17324 1.03944,0.34648 1.38592,0.51972c1.73239,0.51972 2.77183,0.69296 2.77183,0.69296c0,0 -1.03944,0 -2.77183,-0.51972c-0.34648,-0.17324 -0.8662,-0.34648 -1.38592,-0.51972c-0.17324,-0.17324 -0.17324,-0.17324 -0.34648,-0.34648l-0.17324,-0.34648c-0.17324,-0.34648 -0.34648,-0.51972 -0.51972,-0.8662c-0.51972,-1.21268 -1.03944,-2.59859 -1.38592,-4.15775c-0.69296,-3.11831 -1.38592,-6.75634 -1.90563,-10.56761c-0.51972,-3.98451 -0.8662,-8.14225 -1.21268,-12.3c-0.34648,-4.15775 -0.51972,-8.31549 -0.69296,-12.3c-0.17324,-3.98451 -0.34648,-7.62254 -0.34648,-10.74085c-0.17324,-6.23662 0,-10.39437 0,-10.39437c0,0 0.17324,4.15775 0.34648,10.74085z" fill="#59402f"/><path d="M194.02113,345.36156c-0.69296,3.11831 -1.73239,7.62254 -3.29155,12.81972c-0.8662,2.59859 -1.73239,5.54366 -2.59859,8.48873c-1.03944,2.94507 -2.07887,6.23662 -3.29155,9.35493c-1.21268,3.29155 -2.59859,6.5831 -4.33099,9.70141c-0.8662,1.73239 -1.90563,3.29155 -2.94507,4.67746c-1.03944,1.38592 -2.07887,2.94507 -2.94507,4.50423c-3.81127,6.23662 -7.4493,12.47324 -10.56761,18.53662c-2.94507,6.06338 -5.89014,11.78028 -7.79577,16.80423c-0.51972,1.21268 -0.69296,2.42535 -1.03944,3.63803c-0.34648,1.21268 -0.51972,2.42535 -0.69296,3.46479c-0.17324,1.03944 -0.17324,2.07887 0.17324,2.94507c0.34648,0.8662 0.8662,1.73239 1.38592,2.25211c1.03944,1.21268 1.90563,2.07887 2.59859,2.59859c0.69296,0.51972 1.03944,0.8662 1.03944,0.8662c0,0 -0.34648,-0.17324 -1.03944,-0.69296c-0.51972,-0.51972 -1.73239,-1.21268 -2.77183,-2.42535c-0.51972,-0.69296 -1.21268,-1.38592 -1.55915,-2.25211c-0.51972,-0.8662 -0.51972,-1.90563 -0.51972,-3.11831c0,-1.03944 0.34648,-2.25211 0.51972,-3.46479c0.34648,-1.21268 0.51972,-2.59859 1.03944,-3.81127c0.8662,-2.59859 2.07887,-5.37042 3.29155,-8.31549c1.21268,-2.94507 2.59859,-5.89014 4.15775,-9.00845c3.11831,-6.06338 6.5831,-12.47324 10.39437,-18.70986c1.03944,-1.38592 2.07887,-2.94507 3.11831,-4.50423c1.03944,-1.55915 2.07887,-2.94507 2.94507,-4.50423c1.73239,-2.94507 2.94507,-6.23662 4.33099,-9.35493c2.59859,-6.23662 4.67746,-12.3 6.23662,-17.49718c1.55915,-5.19718 2.94507,-9.52817 3.81127,-12.64648c0.8662,-3.11831 1.38592,-4.8507 1.38592,-4.8507c0,0 -0.34648,1.73239 -1.03944,4.50423z" fill="#59402f"/></g><path d="M166.30282,98.84184c-0.8662,2.94507 -2.07887,6.92958 -3.29155,10.74085c-0.51972,1.90563 -1.21268,3.81127 -1.73239,5.7169c-0.51972,1.90563 -1.03944,3.46479 -1.38592,5.02394c-0.17324,0.8662 -0.34648,1.55915 -0.51972,2.07887c-0.17324,0.51972 -0.34648,1.03944 -0.34648,1.55915c-0.17324,0.8662 -0.17324,1.38592 -0.17324,1.38592c0,0 0,-0.51972 0,-1.38592c0.17324,-0.8662 0.17324,-2.07887 0.51972,-3.63803c0.17324,-1.55915 0.51972,-3.29155 1.03944,-5.19718c0.51972,-1.73239 1.21268,-3.81127 1.73239,-5.7169c0.69296,-1.90563 1.21268,-3.98451 1.90563,-5.7169c0.69296,-1.73239 1.38592,-3.46479 1.90563,-4.8507c1.21268,-2.77183 2.07887,-4.67746 2.07887,-4.67746c0,0 -0.51972,2.07887 -1.73239,4.67746z" fill="#59402f" stroke-width="1"/><g stroke-width="1"><g><g fill="#8d674a"><path d="M201.47042,148.04184c-0.34648,34.64789 -5.89014,42.96338 -5.37042,53.35775c0.51972,10.39437 15.93803,32.0493 22.52113,45.90845c4.15775,8.66197 7.4493,15.07183 9.52817,20.09577c2.07887,5.02394 -5.7169,17.1507 -33.26197,3.81127c-8.83521,-4.33099 -60.11408,-56.99577 -64.09859,-94.06901c3.46479,-76.91831 71.37465,-77.61127 70.68169,-29.10423z"/><path d="M135.81268,197.41508c-8.14225,-4.33099 -5.19718,-15.59155 -5.19718,-15.59155l-3.29155,5.89014c-2.07887,-6.75634 1.90563,-18.19014 1.90563,-18.19014l-4.33099,2.59859c0,-7.27606 6.23662,-11.78028 6.23662,-11.78028c-2.25211,3.11831 -6.40986,1.03944 -6.40986,1.03944c3.81127,-0.51972 14.55211,-20.61549 14.55211,-20.61549"/></g><path d="M125.59155,160.86156c0.51972,-0.34648 1.03944,-1.03944 1.73239,-1.73239c1.21268,-1.55915 2.94507,-3.81127 4.33099,-6.06338c1.55915,-2.25211 2.94507,-4.67746 3.98451,-6.40986c1.21268,-1.73239 1.90563,-2.94507 1.90563,-2.94507c0,0 -0.17324,0.34648 -0.34648,0.8662c-0.17324,0.51972 -0.51972,1.38592 -0.8662,2.25211c-0.51972,0.8662 -0.8662,1.90563 -1.55915,3.11831c-0.34648,0.51972 -0.69296,1.21268 -1.03944,1.73239c-0.34648,0.51972 -0.69296,1.21268 -1.03944,1.73239c-1.55915,2.25211 -3.29155,4.50423 -4.8507,5.89014c-0.8662,0.69296 -1.55915,1.21268 -2.07887,1.55915c-0.51972,0.17324 -0.8662,0.34648 -0.8662,0.34648c0,0 0.34648,-0.17324 0.69296,-0.34648z" fill="#59402f"/><path d="M124.89859,169.87001c0,-0.51972 0,-1.21268 0.17324,-1.90563c0.17324,-0.69296 0.34648,-1.38592 0.69296,-2.07887c0.34648,-0.69296 0.69296,-1.38592 1.03944,-1.90563c0.51972,-0.51972 1.03944,-1.03944 1.38592,-1.38592c0.34648,-0.34648 0.69296,-0.51972 1.03944,-0.69296c0.34648,-0.17324 0.51972,-0.17324 0.51972,-0.17324c0,0 -0.17324,0.17324 -0.34648,0.34648c-0.34648,0.17324 -0.51972,0.69296 -0.8662,1.03944c-0.17324,0.51972 -0.51972,1.03944 -0.8662,1.55915c-0.34648,0.69296 -0.51972,1.21268 -0.8662,1.90563c-0.51972,1.21268 -0.8662,2.59859 -1.21268,3.63803c-0.34648,1.03944 -0.51972,1.73239 -0.51972,1.73239c0,0 -0.17324,-0.69296 -0.17324,-2.07887z" fill="#59402f"/><path d="M126.80423,186.501c-0.17324,-0.34648 -0.51972,-1.03944 -0.69296,-1.90563c-0.17324,-0.8662 -0.34648,-1.90563 -0.34648,-2.94507c0,-1.03944 0,-2.25211 0.17324,-3.29155c0.17324,-1.21268 0.34648,-2.25211 0.69296,-3.29155c0.17324,-1.03944 0.51972,-1.90563 0.8662,-2.77183c0.34648,-0.8662 0.69296,-1.38592 0.8662,-1.90563c0.17324,-0.51972 0.34648,-0.69296 0.34648,-0.69296c0,0 0,0.17324 -0.17324,0.69296c0,0.34648 -0.17324,1.03944 -0.34648,1.90563c-0.17324,0.8662 -0.34648,1.73239 -0.51972,2.77183c-0.17324,1.03944 -0.34648,2.07887 -0.51972,3.11831c-0.17324,1.03944 -0.34648,2.07887 -0.34648,3.11831c0,1.03944 0,1.90563 0,2.77183c0.17324,1.73239 0.51972,2.77183 0.51972,2.77183c0,0 -0.17324,-0.17324 -0.51972,-0.34648z" fill="#59402f"/><path d="M134.42676,196.72212c-0.34648,-0.17324 -1.03944,-0.51972 -1.55915,-1.03944c-0.34648,-0.34648 -0.51972,-0.69296 -0.8662,-1.03944c-0.17324,-0.34648 -0.51972,-0.69296 -0.69296,-1.21268c-0.51972,-0.8662 -0.8662,-1.90563 -1.03944,-2.94507c0,-0.51972 -0.17324,-1.03944 -0.17324,-1.55915c0,-0.51972 0,-1.03944 0,-1.55915c0,-0.8662 0.17324,-1.90563 0.17324,-2.59859c0.17324,-0.8662 0.34648,-1.38592 0.34648,-1.90563c0.17324,-0.51972 0.17324,-0.69296 0.17324,-0.69296c0,0 0,0.17324 0,0.69296c0,0.51972 0,1.21268 0,1.90563c0,0.69296 0,1.73239 0.17324,2.59859c0,0.34648 0.17324,0.8662 0.17324,1.38592c0,0.34648 0,0.8662 0.17324,1.38592c0.17324,1.03944 0.51972,1.90563 0.8662,2.77183c0.34648,0.8662 0.69296,1.73239 1.21268,2.25211c0.8662,1.21268 1.73239,1.73239 1.73239,1.73239c0,0 -0.17324,0 -0.69296,-0.17324z" fill="#59402f"/><path d="M213.77042,275.54607c-0.17324,-0.69296 -0.34648,-1.73239 -0.69296,-2.59859c-0.34648,-0.8662 -0.69296,-1.90563 -0.8662,-2.59859c-0.17324,-0.34648 -0.34648,-0.69296 -0.34648,-0.8662c-0.17324,-0.17324 -0.17324,-0.34648 -0.17324,-0.34648c0,0 0.51972,0.34648 1.03944,1.03944c0.51972,0.51972 1.03944,1.55915 1.38592,2.59859c0.34648,1.03944 0.51972,2.07887 0.34648,2.94507c-0.17324,0.8662 -0.34648,1.38592 -0.34648,1.38592c0,0 -0.17324,-0.51972 -0.34648,-1.55915z" fill="#59402f"/><path d="M221.04648,275.02635c-0.17324,-0.8662 -0.51972,-2.07887 -1.03944,-3.11831c-0.34648,-1.03944 -0.8662,-2.07887 -1.38592,-2.94507c-0.17324,-0.51972 -0.34648,-0.8662 -0.51972,-1.03944c-0.17324,-0.17324 -0.17324,-0.34648 -0.17324,-0.34648c0,0 0.17324,0 0.34648,0.17324c0.17324,0.17324 0.51972,0.34648 0.8662,0.69296c0.34648,0.34648 0.69296,0.69296 1.03944,1.21268c0.34648,0.34648 0.69296,1.03944 0.8662,1.55915c0.51972,1.03944 0.69296,2.42535 0.69296,3.29155c0,0.8662 -0.17324,1.55915 -0.17324,1.55915c0,0 -0.17324,-0.51972 -0.51972,-1.03944z" fill="#59402f"/><g fill="#59402f"><path d="M210.65211,276.5855c-3.46479,-0.51972 -8.31549,-1.90563 -13.68592,-4.67746c-2.59859,-1.38592 -5.37042,-3.11831 -8.14225,-5.19718c-2.77183,-2.07887 -5.37042,-4.67746 -7.96901,-7.27606c-2.59859,-2.77183 -5.37042,-5.37042 -7.96901,-8.31549c-2.77183,-2.77183 -5.37042,-5.7169 -7.96901,-8.83521c-2.59859,-3.11831 -5.02394,-6.23662 -7.4493,-9.35493c-2.42535,-3.29155 -4.50423,-6.40986 -6.5831,-9.52817c-4.15775,-6.23662 -7.79577,-12.3 -10.39437,-17.67042c-2.77183,-5.37042 -4.50423,-10.22113 -5.37042,-13.51268c-1.03944,-3.29155 -1.21268,-5.37042 -1.21268,-5.37042c0,0 0.17324,0.51972 0.34648,1.38592c0.17324,0.8662 0.69296,2.25211 1.21268,3.81127c0.69296,1.55915 1.38592,3.46479 2.42535,5.7169c1.03944,2.25211 2.25211,4.67746 3.63803,7.27606c1.38592,2.59859 2.94507,5.37042 4.8507,8.31549c1.90563,2.94507 3.81127,5.89014 5.89014,9.00845c4.15775,6.23662 8.83521,12.64648 13.85915,18.70986c2.42535,3.11831 5.02394,6.06338 7.62254,9.00845c2.59859,2.94507 5.19718,5.7169 7.62254,8.48873c2.42535,2.77183 5.02394,5.19718 7.62254,7.4493c2.77183,2.07887 5.37042,3.98451 7.96901,5.37042c2.59859,1.38592 5.19718,2.59859 7.4493,3.29155c2.25211,0.8662 4.33099,1.38592 6.06338,1.73239c3.29155,0.69296 5.37042,0.69296 5.37042,0.69296c0,0 -2.07887,0.17324 -5.19718,-0.51972z"/><path d="M225.03099,275.19959c0.69296,-0.51972 1.73239,-1.38592 2.25211,-2.77183c0.51972,-1.38592 0.69296,-3.46479 0.17324,-5.54366c-0.51972,-2.25211 -1.55915,-4.50423 -2.94507,-6.75634c-0.69296,-1.21268 -1.55915,-2.42535 -2.25211,-3.63803c-0.8662,-1.21268 -1.55915,-2.59859 -2.25211,-3.98451c-1.38592,-2.77183 -2.77183,-5.7169 -4.33099,-8.66197c-1.55915,-2.94507 -2.94507,-6.06338 -4.67746,-9.18169c-1.73239,-2.94507 -3.81127,-6.06338 -5.7169,-9.00845c-1.90563,-3.11831 -3.98451,-6.23662 -5.54366,-9.35493c-1.55915,-3.29155 -2.94507,-6.5831 -3.46479,-10.04789c-0.17324,-1.55915 -0.34648,-3.29155 -0.34648,-5.02394c0,-1.73239 0.17324,-3.29155 0.34648,-4.8507c0.34648,-3.11831 0.69296,-6.06338 1.21268,-8.66197c1.03944,-5.37042 1.90563,-9.70141 2.25211,-12.81972c0.34648,-3.11831 0.51972,-4.8507 0.51972,-4.8507c0,0 0,0.34648 0,1.21268c0,0.8662 -0.17324,2.07887 -0.17324,3.63803c-0.17324,1.55915 -0.34648,3.46479 -0.51972,5.7169c-0.34648,2.07887 -0.69296,4.67746 -1.03944,7.27606c-0.34648,2.77183 -0.51972,5.54366 -0.8662,8.66197c-0.34648,3.11831 -0.51972,6.23662 0.17324,9.52817c0.51972,3.11831 1.73239,6.40986 3.29155,9.52817c1.55915,3.11831 3.46479,6.06338 5.37042,9.18169c1.90563,3.11831 3.81127,6.23662 5.37042,9.35493c1.55915,3.11831 3.11831,6.23662 4.50423,9.35493c1.55915,2.94507 2.94507,5.89014 4.33099,8.66197c0.69296,1.38592 1.38592,2.77183 2.07887,3.98451c0.69296,1.21268 1.38592,2.42535 2.07887,3.63803c1.38592,2.42535 2.25211,4.67746 2.77183,6.92958c0.51972,2.25211 0.34648,4.33099 -0.34648,5.7169c-0.51972,1.38592 -1.55915,2.25211 -2.25211,2.77183c-0.69296,0.34648 -1.21268,0.51972 -1.21268,0.51972c0,0 0.34648,-0.17324 1.21268,-0.51972z"/></g><path d="M207.36056,274.33339c-0.51972,-1.38592 -1.03944,-3.46479 0.69296,-2.94507c1.73239,0.51972 1.73239,5.19718 1.38592,6.06338c-0.17324,0.69296 -1.73239,-1.73239 -2.07887,-3.11831z" fill="#6c5f57"/><path d="M217.06197,276.75874c-0.51972,-1.38592 -1.03944,-3.46479 0.69296,-2.94507c1.73239,0.51972 1.73239,5.19718 1.38592,6.06338c-0.17324,0.69296 -1.73239,-1.73239 -2.07887,-3.11831z" fill="#6c5f57"/><path d="M223.81831,274.33339c-0.51972,-1.38592 -1.03944,-3.46479 0.69296,-2.94507c1.73239,0.51972 1.73239,5.19718 1.38592,6.06338c-0.17324,0.69296 -1.55915,-1.73239 -2.07887,-3.11831z" fill="#6c5f57"/></g><path d="M169.59437,116.6855c-0.8662,0.17324 -2.07887,0.34648 -3.46479,0.51972c-0.69296,0.17324 -1.55915,0.34648 -2.25211,0.51972c-0.8662,0.17324 -1.55915,0.51972 -2.42535,0.69296c-0.8662,0.34648 -1.73239,0.69296 -2.59859,1.03944c-0.8662,0.34648 -1.55915,0.69296 -2.42535,1.21268c-0.8662,0.34648 -1.73239,0.8662 -2.42535,1.38592c-0.69296,0.34648 -1.38592,1.03944 -2.07887,1.55915c-0.69296,0.51972 -1.38592,1.21268 -1.90563,1.73239c-0.69296,0.51972 -1.03944,1.21268 -1.55915,1.73239c-0.51972,0.69296 -0.8662,1.03944 -1.21268,1.55915c-0.34648,0.51972 -0.69296,0.8662 -0.8662,1.21268c-0.34648,0.69296 -0.69296,1.03944 -0.69296,1.03944c0,0 0.17324,-0.51972 0.51972,-1.21268c0.17324,-0.34648 0.51972,-0.8662 0.69296,-1.38592c0.17324,-0.69296 0.69296,-1.21268 1.03944,-1.73239c0.34648,-0.69296 0.8662,-1.38592 1.38592,-1.90563c0.51972,-0.69296 1.03944,-1.38592 1.73239,-1.90563c0.69296,-0.51972 1.21268,-1.21268 2.07887,-1.73239c0.69296,-0.51972 1.55915,-1.03944 2.42535,-1.55915c0.8662,-0.51972 1.73239,-0.8662 2.59859,-1.21268c0.8662,-0.34648 1.73239,-0.51972 2.59859,-0.8662c0.8662,-0.17324 1.73239,-0.34648 2.59859,-0.51972c0.69296,-0.17324 1.55915,-0.34648 2.25211,-0.34648c1.38592,-0.17324 2.59859,0 3.46479,0c0.8662,0 1.38592,0.17324 1.38592,0.17324c0,0 -0.51972,0 -0.8662,0z" fill="#59402f"/></g><g stroke-width="1"><g><path d="M195.92676,111.19953c-18.8831,-1.55915 -20.44225,-11.60704 -20.44225,-11.60704l-0.51972,5.37042c-10.74085,-7.62254 -10.74085,-18.8831 -10.74085,-18.8831l-2.07887,4.15775c-4.15775,-7.79577 -2.07887,-16.63099 -2.07887,-16.63099l-2.42535,4.15775c-2.94507,-12.3 1.21268,-15.93803 1.21268,-15.93803c-1.38592,2.25211 -5.54366,2.59859 -5.54366,2.59859c5.02394,-5.37042 9.18169,-20.44225 9.18169,-20.44225" fill="#8d674a"/><path d="M285.31831,43.98263c0,0 4.15775,15.07183 9.18169,20.44225c0,0 -4.15775,-0.34648 -5.54366,-2.59859c0,0 4.15775,3.63803 1.21268,15.93803l-2.42535,-4.15775c0,0 2.07887,8.83521 -2.07887,16.63099l-2.07887,-4.15775c0,0 0,11.26056 -10.74085,18.8831l-0.51972,-5.37042c0,0 -1.55915,10.04789 -20.44225,11.60704" fill="#8d674a"/><path d="M193.50141,111.19953c-19.22958,-6.23662 -48.3338,-31.52958 -27.19859,-79.17042c21.13521,-47.64085 66.17746,-41.57746 86.61972,-32.22254c15.41831,6.92958 29.10423,33.43521 33.43521,47.64085c4.33099,14.20563 1.90563,45.04225 -15.41831,56.82254c-19.7493,13.33944 -58.20845,13.1662 -77.43803,6.92958z" fill="#8d674a"/><path d="M205.50863,43.69332c0.50239,0.78304 0.81249,1.86579 0.81249,3.06114c0,1.19535 -0.3101,2.2781 -0.81249,3.06114c-0.50239,0.78477 -1.19535,1.26985 -1.95934,1.26985c-0.76399,0 -1.45694,-0.48507 -1.95934,-1.26985c-0.50239,-0.78304 -0.81249,-1.86579 -0.81249,-3.06114c0,-1.19535 0.3101,-2.2781 0.81249,-3.06114c0.50239,-0.78477 1.19535,-1.26985 1.95934,-1.26985c0.76399,0 1.45694,0.48507 1.95934,1.26985z" fill="#332010"/><path d="M247.60582,43.69332c0.50239,0.78304 0.81249,1.86579 0.81249,3.06114c0,1.19535 -0.3101,2.2781 -0.81249,3.06114c-0.50239,0.78477 -1.19535,1.26985 -1.95934,1.26985c-0.76399,0 -1.45694,-0.48507 -1.95934,-1.26985c-0.50239,-0.78304 -0.81249,-1.86579 -0.81249,-3.06114c0,-1.19535 0.3101,-2.2781 0.81249,-3.06114c0.50239,-0.78477 1.19535,-1.26985 1.95934,-1.26985c0.76399,0 1.45694,0.48507 1.95934,1.26985z" fill="#332010"/><path d="M241.83521,98.03333c0,0 -10.56761,13.1662 -21.30845,0.51972c0,0 -11.08732,-1.55915 -11.08732,-12.12676c0,-10.56761 5.54366,-39.49859 19.22958,-38.97887c8.66197,0.34648 21.30845,23.21408 21.30845,36.9c0,13.68592 -8.14225,13.68592 -8.14225,13.68592z" fill="#9e7b5c"/><path d="M231.61408,87.11925c0,0.8662 0.17324,2.07887 0.17324,3.29155c0,1.21268 0,2.42535 -0.17324,3.29155c-0.17324,1.03944 -0.34648,1.55915 -0.34648,1.55915c0,0 -0.17324,-0.69296 -0.34648,-1.55915c0,-0.8662 -0.17324,-2.07887 -0.17324,-3.29155c0,-1.21268 0,-2.42535 0.17324,-3.29155c0.17324,-1.03944 0.34648,-1.55915 0.34648,-1.55915c0,0 0.17324,0.51972 0.34648,1.55915z" fill="#59402f"/><path d="M236.29155,95.78122c-1.38592,-0.17324 -3.29155,-0.34648 -5.19718,-0.34648c-1.90563,0 -3.81127,0.17324 -5.19718,0.34648c-0.69296,0.17324 -1.38592,0.17324 -1.73239,0.34648c-0.51972,0.17324 -0.69296,0.17324 -0.69296,0.17324c0,0 0.17324,-0.17324 0.51972,-0.34648c0.51972,-0.17324 1.03944,-0.51972 1.73239,-0.69296c0.69296,-0.17324 1.55915,-0.34648 2.42535,-0.51972c0.8662,-0.17324 1.90563,-0.17324 2.94507,-0.17324c1.03944,0.17324 2.07887,0.17324 2.94507,0.34648c0.8662,0.17324 1.73239,0.34648 2.42535,0.51972c1.38592,0.34648 2.25211,0.8662 2.25211,0.8662c0,0 -1.03944,-0.17324 -2.42535,-0.51972z" fill="#59402f"/><path d="M241.14225,79.84319c0,1.73239 -2.07887,3.98451 -3.63803,3.98451c-1.55915,0 -2.07887,4.15775 -4.8507,4.33099c-4.8507,0.17324 -4.8507,-2.94507 -6.23662,-4.15775c-1.55915,-1.21268 -6.06338,-0.17324 -5.54366,-4.33099c0.51972,-4.15775 6.23662,-4.67746 10.04789,-4.8507c7.4493,-0.34648 10.04789,3.46479 10.22113,5.02394z" fill="#332721"/><path d="M221.5662,44.84883c0.34648,-0.17324 0.69296,-0.51972 1.21268,-0.69296c0.51972,-0.17324 1.21268,-0.34648 1.90563,-0.51972c0.69296,-0.17324 1.55915,-0.17324 2.25211,-0.17324c1.55915,0 3.11831,0.34648 4.15775,0.69296c1.03944,0.34648 1.73239,0.69296 1.73239,0.69296c0,0 -0.69296,0 -1.90563,0c-1.03944,-0.17324 -2.59859,-0.17324 -3.98451,-0.17324c-1.55915,0 -2.94507,0.17324 -3.98451,0.34648c-0.51972,0.17324 -1.03944,0.17324 -1.38592,0.34648c-0.34648,0.17324 -0.51972,0.17324 -0.51972,0.17324c0,0 0.17324,-0.17324 0.51972,-0.69296z" fill="#59402f"/><path d="M230.40141,42.42347c-0.8662,0 -1.73239,0 -2.77183,0c-1.03944,0 -2.07887,0 -2.77183,0c-0.34648,0 -0.69296,0 -0.8662,0c-0.17324,0 -0.34648,0 -0.34648,0c0,0 0.51972,-0.34648 1.21268,-0.69296c0.69296,-0.34648 1.73239,-0.51972 2.77183,-0.51972c1.03944,0 2.07887,0.17324 2.77183,0.34648c0.69296,0.17324 1.21268,0.51972 1.21268,0.51972c0,0 -0.51972,0 -1.21268,0.34648z" fill="#59402f"/><path d="M177.73662,70.48826c0,2.25211 0.17324,4.33099 0.34648,5.89014c0,0.69296 0.17324,1.38592 0.17324,1.90563c0,0.34648 0,0.69296 0,0.69296c0,0 -0.17324,-0.17324 -0.34648,-0.69296c-0.17324,-0.51972 -0.51972,-1.03944 -0.69296,-1.90563c-0.17324,-0.34648 -0.34648,-0.69296 -0.34648,-1.21268c0,-0.34648 -0.17324,-0.8662 -0.17324,-1.38592c0,-0.51972 -0.17324,-1.03944 -0.17324,-1.55915c0,-0.51972 0,-1.03944 0,-1.55915c0,-2.07887 0.34648,-4.33099 0.69296,-5.89014c0.34648,-1.55915 0.8662,-2.59859 0.8662,-2.59859c0,0 -0.51972,4.33099 -0.34648,8.31549z" fill="#59402f"/><path d="M186.39859,89.5446c0.34648,0.51972 0.69296,1.21268 1.21268,1.90563c0.51972,0.69296 1.03944,1.38592 1.55915,2.07887c1.21268,1.38592 2.42535,2.77183 3.46479,3.63803c0.51972,0.34648 0.8662,0.8662 1.21268,1.03944c0.34648,0.34648 0.51972,0.51972 0.51972,0.51972c0,0 -0.17324,0 -0.51972,-0.17324c-0.34648,-0.17324 -1.03944,-0.51972 -1.55915,-0.8662c-0.51972,-0.34648 -1.21268,-0.8662 -1.90563,-1.38592c-0.69296,-0.69296 -1.38592,-1.38592 -1.90563,-2.07887c-1.21268,-1.38592 -2.07887,-3.11831 -2.59859,-4.50423c-0.51972,-1.38592 -0.51972,-2.25211 -0.51972,-2.25211c0,0 0.34648,0.69296 1.03944,2.07887z" fill="#59402f"/><path d="M268.51408,60.96009c0.51972,1.03944 0.8662,2.42535 1.03944,3.81127c0.17324,0.69296 0.17324,1.38592 0.17324,2.07887c0,0.69296 0,1.38592 -0.17324,1.90563c-0.17324,1.03944 -0.51972,1.73239 -0.51972,1.73239c0,0 0,-0.17324 0,-0.51972c0,-0.17324 -0.17324,-0.69296 -0.17324,-1.21268c0,-1.03944 -0.17324,-2.42535 -0.34648,-3.81127c-0.17324,-1.38592 -0.34648,-2.77183 -0.51972,-3.81127c-0.17324,-1.03944 -0.17324,-1.73239 -0.17324,-1.73239c0,0 0.51972,0.69296 0.69296,1.55915z" fill="#59402f"/><g fill="#59402f"><path d="M180.33521,80.36291c0.17324,0.51972 0.51972,1.03944 0.51972,1.55915c0,0.51972 0,1.21268 0,1.55915c0,0.34648 -0.17324,0.69296 -0.17324,0.69296c0,0 -0.17324,-0.34648 -0.34648,-0.69296c-0.17324,-0.51972 -0.51972,-1.03944 -0.51972,-1.55915c0,-0.51972 0,-1.21268 0,-1.55915c0,-0.34648 0.17324,-0.69296 0.17324,-0.69296c0,0 0.17324,0.17324 0.34648,0.69296z"/><path d="M183.28028,84.00094c0.17324,0.34648 0.34648,0.8662 0.51972,1.38592c0.17324,0.51972 0.17324,1.03944 0.17324,1.38592c-0.17324,0.34648 -0.17324,0.69296 -0.17324,0.69296c0,0 -0.17324,-0.17324 -0.34648,-0.51972c-0.17324,-0.34648 -0.34648,-0.8662 -0.51972,-1.38592c-0.17324,-0.51972 -0.17324,-1.03944 -0.17324,-1.38592c0.17324,-0.34648 0.17324,-0.69296 0.17324,-0.69296c0,0 0.17324,0.17324 0.34648,0.51972z"/><path d="M267.99437,71.87418c0.17324,0.34648 0.34648,0.8662 0.51972,1.38592c0.17324,0.51972 0.17324,1.03944 0.17324,1.38592c-0.17324,0.34648 -0.17324,0.69296 -0.17324,0.69296c0,0 -0.17324,-0.17324 -0.34648,-0.51972c-0.17324,-0.34648 -0.34648,-0.8662 -0.51972,-1.38592c-0.17324,-0.51972 -0.17324,-1.03944 -0.17324,-1.38592c0.17324,-0.34648 0.17324,-0.69296 0.17324,-0.69296c0,0 0.17324,0.17324 0.34648,0.51972z"/></g><path d="M266.78169,78.977c0.17324,0.69296 0.17324,1.55915 0.17324,2.59859c0,1.03944 -0.17324,2.07887 -0.34648,3.11831c-0.17324,1.03944 -0.51972,2.07887 -0.8662,2.94507c-0.17324,0.34648 -0.51972,0.8662 -0.69296,1.21268c-0.17324,0.34648 -0.51972,0.69296 -0.69296,1.03944c-0.34648,0.51972 -0.8662,1.03944 -1.21268,1.38592c-0.34648,0.34648 -0.51972,0.51972 -0.51972,0.51972c0,0 0.17324,-0.34648 0.34648,-0.69296c0.17324,-0.34648 0.51972,-0.8662 0.8662,-1.55915c0.69296,-1.38592 1.38592,-3.29155 1.73239,-5.19718c0.34648,-1.03944 0.34648,-2.07887 0.51972,-2.94507c0.17324,-1.03944 0.17324,-1.90563 0.17324,-2.59859c0,-1.55915 0,-2.59859 0,-2.59859c0,0 0.51972,0.8662 0.51972,2.77183z" fill="#59402f"/><g><path d="M176.52394,16.43756c-15.41831,-19.92254 1.90563,-29.10423 9.52817,-28.75775c7.62254,0.34648 11.78028,13.68592 11.78028,13.68592" fill="#8d674a"/><path d="M185.18592,-5.39061c0,0.8662 -0.17324,1.73239 -0.17324,2.77183c-0.17324,1.03944 0,2.07887 0,3.11831c0.17324,1.03944 0.34648,2.07887 0.51972,2.94507c0.17324,0.51972 0.34648,1.03944 0.51972,1.38592c0.17324,0.51972 0.34648,0.8662 0.51972,1.21268c0.17324,0.17324 0.34648,0.51972 0.51972,0.8662c0.17324,0.34648 0.34648,0.51972 0.51972,0.69296c0.34648,0.51972 0.51972,0.69296 0.51972,0.69296c0,0 -0.17324,-0.17324 -0.51972,-0.51972c-0.34648,-0.17324 -0.8662,-0.69296 -1.38592,-1.38592c-0.17324,-0.34648 -0.51972,-0.8662 -0.69296,-1.21268c-0.34648,-0.34648 -0.51972,-0.8662 -0.69296,-1.38592c-0.34648,-0.51972 -0.34648,-1.03944 -0.51972,-1.55915c0,-0.69296 -0.17324,-1.21268 -0.17324,-1.73239c0,-1.21268 0,-2.25211 0.17324,-3.29155c0,-1.03944 0.34648,-1.90563 0.51972,-2.77183c0.51972,-1.55915 1.03944,-2.59859 1.03944,-2.59859c0,0 -0.17324,1.03944 -0.69296,2.77183z" fill="#59402f"/><g fill="#59402f"><path d="M184.14648,7.42911c0.34648,0.17324 0.69296,0.34648 1.03944,0.69296c0.34648,0.34648 0.69296,0.69296 0.8662,1.03944c0.17324,0.34648 0.17324,0.51972 0.17324,0.51972c0,0 -0.17324,0 -0.51972,-0.17324c-0.34648,-0.17324 -0.69296,-0.34648 -1.03944,-0.69296c-0.34648,-0.34648 -0.69296,-0.69296 -0.8662,-1.03944c-0.17324,-0.34648 -0.17324,-0.51972 -0.17324,-0.51972c0,0 0.17324,0 0.51972,0.17324z"/><path d="M183.10704,10.20094c0.51972,0.34648 0.69296,1.21268 0.69296,1.21268c-0.17324,0 -0.8662,0 -1.38592,-0.51972c-0.51972,-0.34648 -0.69296,-1.21268 -0.69296,-1.21268c0,0 0.8662,0 1.38592,0.51972z"/></g></g><g><path d="M247.72535,1.36573c0,0 4.15775,-13.33944 11.78028,-13.68592c7.62254,-0.34648 24.94648,8.83521 9.52817,28.75775" fill="#8d674a"/><path d="M260.37183,-5.56385c0.17324,0.8662 0.34648,1.73239 0.51972,2.77183c0.17324,1.03944 0.17324,2.25211 0.17324,3.29155c0,0.69296 -0.17324,1.21268 -0.17324,1.73239c-0.17324,0.51972 -0.34648,1.03944 -0.51972,1.55915c-0.34648,0.51972 -0.34648,1.03944 -0.69296,1.38592c-0.17324,0.51972 -0.34648,0.8662 -0.69296,1.21268c-0.51972,0.69296 -1.03944,1.03944 -1.38592,1.38592c-0.34648,0.34648 -0.51972,0.51972 -0.51972,0.51972c0,0 0.17324,-0.34648 0.51972,-0.69296c0.17324,-0.17324 0.34648,-0.34648 0.51972,-0.69296c0.17324,-0.17324 0.34648,-0.51972 0.51972,-0.8662c0.17324,-0.34648 0.34648,-0.8662 0.51972,-1.21268c0.34648,-0.51972 0.34648,-0.8662 0.51972,-1.38592c0.34648,-0.8662 0.51972,-1.90563 0.51972,-2.94507c0,-1.03944 0,-2.07887 0,-3.11831c0,-1.03944 -0.17324,-1.90563 -0.17324,-2.77183c-0.17324,-1.73239 -0.34648,-2.77183 -0.34648,-2.77183c0,0 0.51972,1.03944 0.69296,2.59859z" fill="#59402f"/><g fill="#59402f"><path d="M261.75775,7.77559c-0.17324,0.34648 -0.51972,0.69296 -0.8662,1.03944c-0.34648,0.34648 -0.69296,0.51972 -1.03944,0.69296c-0.34648,0.17324 -0.51972,0.17324 -0.51972,0.17324c0,0 0,-0.17324 0.17324,-0.51972c0.17324,-0.34648 0.51972,-0.69296 0.8662,-1.03944c0.34648,-0.34648 0.69296,-0.51972 1.03944,-0.69296c0.34648,-0.17324 0.51972,-0.17324 0.51972,-0.17324c0,0 0,0.34648 -0.17324,0.51972z"/><path d="M263.14366,10.8939c-0.51972,0.34648 -1.38592,0.51972 -1.38592,0.51972c0,0 0.17324,-0.8662 0.69296,-1.21268c0.51972,-0.34648 1.38592,-0.51972 1.38592,-0.51972c0,0 -0.34648,0.69296 -0.69296,1.21268z"/></g></g><path d="M174.61831,17.30376c-1.03944,1.21268 -2.25211,2.94507 -3.46479,5.02394c-0.51972,1.21268 -1.21268,2.42535 -1.90563,3.63803c-0.69296,1.38592 -1.21268,2.77183 -1.90563,4.15775c-0.51972,1.38592 -1.21268,2.94507 -1.73239,4.50423c-0.51972,1.55915 -1.03944,3.29155 -1.55915,4.8507c-0.34648,1.55915 -0.8662,3.29155 -1.38592,4.8507c-0.51972,1.55915 -1.03944,3.11831 -1.55915,4.67746c-1.03944,3.11831 -2.07887,5.89014 -3.11831,8.14225c-1.03944,2.25211 -2.07887,4.15775 -2.94507,5.37042c-0.51972,0.51972 -0.8662,1.03944 -1.21268,1.21268c-0.34648,0.34648 -0.51972,0.34648 -0.51972,0.34648c0,0 0.17324,0 0.51972,-0.34648c0.34648,-0.34648 0.69296,-0.69296 1.03944,-1.38592c0.8662,-1.21268 1.73239,-3.11831 2.59859,-5.54366c0.8662,-2.25211 1.73239,-5.19718 2.77183,-8.14225c0.51972,-1.55915 0.8662,-3.11831 1.38592,-4.67746c0.51972,-1.55915 0.8662,-3.29155 1.38592,-4.8507c0.34648,-1.73239 1.03944,-3.29155 1.55915,-4.8507c0.69296,-1.55915 1.21268,-3.11831 1.90563,-4.50423c0.69296,-1.55915 1.38592,-2.94507 2.07887,-4.15775c0.69296,-1.21268 1.38592,-2.42535 2.07887,-3.46479c1.38592,-2.07887 2.77183,-3.81127 3.81127,-4.8507c1.03944,-1.03944 1.73239,-1.55915 1.73239,-1.55915c0,0 -0.51972,0.51972 -1.55915,1.55915z" fill="#59402f"/><path d="M157.81408,65.11784c-0.17324,1.38592 -0.51972,3.29155 -0.51972,5.19718c0,0.8662 0,1.90563 0,2.77183c0,0.8662 0.17324,1.73239 0.17324,2.42535c0,0.69296 0.17324,1.38592 0.17324,1.73239c0,0.51972 0,0.69296 0,0.69296c0,0 0,-0.34648 -0.17324,-0.69296c0,-0.51972 -0.34648,-1.03944 -0.51972,-1.73239c-0.17324,-0.69296 -0.34648,-1.55915 -0.51972,-2.42535c-0.17324,-1.03944 -0.17324,-1.90563 -0.17324,-2.94507c0,-1.03944 0.17324,-2.07887 0.34648,-2.94507c0.17324,-0.8662 0.34648,-1.73239 0.69296,-2.42535c0.69296,-1.38592 1.21268,-2.25211 1.21268,-2.25211c0,0 -0.34648,1.03944 -0.69296,2.59859z" fill="#59402f"/><path d="M160.41268,76.20516c0,1.55915 0.17324,3.46479 0.34648,5.54366c0.17324,2.07887 0.34648,4.15775 0.69296,5.54366c0.17324,0.69296 0.34648,1.38592 0.51972,1.73239c0.17324,0.51972 0.17324,0.69296 0.17324,0.69296c0,0 -0.17324,-0.17324 -0.34648,-0.51972c-0.17324,-0.51972 -0.51972,-1.03944 -0.8662,-1.73239c-0.51972,-1.38592 -1.03944,-3.46479 -1.21268,-5.54366c-0.17324,-2.07887 -0.17324,-4.15775 0,-5.7169c0.34648,-1.55915 0.51972,-2.59859 0.51972,-2.59859c0,0 0.17324,1.03944 0.17324,2.59859z" fill="#59402f"/><path d="M165.60986,89.5446c0.34648,1.03944 0.69296,2.07887 1.21268,3.29155c0.17324,0.51972 0.51972,1.03944 0.69296,1.73239c0.34648,0.69296 0.51972,1.21268 0.8662,1.90563c0.51972,1.21268 1.21268,2.42535 1.90563,3.46479c0.34648,0.34648 0.69296,0.8662 1.03944,1.38592c0.34648,0.34648 0.69296,0.8662 1.03944,1.21268c0.34648,0.34648 0.69296,0.69296 1.03944,1.03944c0.34648,0.34648 0.69296,0.51972 0.8662,0.69296c0.34648,0.34648 0.69296,0.51972 0.69296,0.51972c0,0 -0.34648,-0.17324 -0.8662,-0.34648c-0.34648,-0.17324 -0.69296,-0.34648 -1.03944,-0.51972c-0.34648,-0.34648 -0.8662,-0.51972 -1.21268,-0.8662c-0.34648,-0.34648 -0.69296,-0.8662 -1.21268,-1.21268c-0.34648,-0.34648 -0.8662,-0.8662 -1.21268,-1.38592c-0.51972,-0.51972 -0.8662,-1.21268 -1.21268,-1.73239c-0.34648,-0.69296 -0.69296,-1.21268 -1.03944,-1.90563c-0.69296,-1.21268 -1.21268,-2.59859 -1.55915,-3.81127c-0.34648,-1.21268 -0.69296,-2.42535 -0.8662,-3.46479c-0.34648,-2.07887 -0.34648,-3.46479 -0.34648,-3.46479c0,0 0.34648,1.38592 1.21268,3.46479z" fill="#59402f"/><path d="M270.7662,17.13052c1.03944,1.03944 2.42535,2.77183 3.98451,4.8507c0.8662,1.03944 1.55915,2.25211 2.42535,3.46479c0.8662,1.21268 1.55915,2.59859 2.42535,3.98451c0.69296,1.38592 1.55915,2.94507 2.25211,4.50423c0.69296,1.55915 1.38592,3.29155 2.07887,4.8507c1.38592,3.11831 2.42535,6.40986 3.46479,9.52817c1.03944,2.94507 2.07887,5.89014 2.94507,8.31549c0.8662,2.42535 1.73239,4.33099 2.42535,5.7169c0.34648,0.69296 0.69296,1.03944 1.03944,1.38592c0.34648,0.34648 0.51972,0.34648 0.51972,0.34648c0,0 -0.17324,-0.17324 -0.51972,-0.34648c-0.34648,-0.34648 -0.8662,-0.69296 -1.21268,-1.38592c-0.69296,-1.38592 -1.73239,-3.29155 -2.77183,-5.7169c-1.03944,-2.42535 -2.25211,-5.19718 -3.29155,-8.31549c-1.03944,-2.94507 -2.25211,-6.23662 -3.46479,-9.52817c-0.69296,-1.55915 -1.38592,-3.11831 -2.07887,-4.67746c-0.51972,-1.55915 -1.38592,-3.11831 -2.07887,-4.50423c-1.38592,-2.77183 -2.94507,-5.37042 -4.33099,-7.62254c-1.38592,-2.07887 -2.59859,-3.81127 -3.63803,-5.02394c-1.03944,-1.03944 -1.55915,-1.73239 -1.55915,-1.73239c0,0 0.69296,0.51972 1.38592,1.90563z" fill="#59402f"/><path d="M290.68873,64.59812c0.17324,0.69296 0.51972,1.55915 0.69296,2.42535c0.17324,1.03944 0.34648,1.90563 0.34648,2.94507c0,1.03944 0,2.07887 -0.17324,2.94507c-0.17324,0.8662 -0.34648,1.73239 -0.51972,2.42535c-0.17324,0.69296 -0.34648,1.38592 -0.51972,1.73239c0,0.51972 -0.17324,0.69296 -0.17324,0.69296c0,0 0,-0.34648 0,-0.69296c0,-0.34648 0.17324,-1.03944 0.17324,-1.73239c0,-0.69296 0.17324,-1.55915 0.17324,-2.42535c0,-0.8662 0,-1.90563 0,-2.77183c0,-1.90563 -0.34648,-3.81127 -0.51972,-5.19718c-0.17324,-1.55915 -0.51972,-2.42535 -0.51972,-2.42535c0,0 0.51972,0.8662 1.03944,2.07887z" fill="#59402f"/><path d="M288.26338,76.20516c0.17324,1.55915 0.17324,3.63803 0,5.7169c-0.17324,2.07887 -0.51972,4.15775 -1.21268,5.54366c-0.34648,0.8662 -0.51972,1.38592 -0.8662,1.73239c-0.17324,0.34648 -0.34648,0.51972 -0.34648,0.51972c0,0 0,-0.34648 0.17324,-0.69296c0.17324,-0.34648 0.34648,-1.03944 0.51972,-1.73239c0.34648,-1.55915 0.51972,-3.46479 0.69296,-5.54366c0.17324,-2.07887 0.17324,-3.98451 0.34648,-5.54366c0.17324,-1.55915 0.17324,-2.59859 0.17324,-2.59859c0,0 0.34648,1.03944 0.51972,2.59859z" fill="#59402f"/><path d="M283.58592,89.37136c-0.17324,1.03944 -0.51972,2.25211 -0.8662,3.46479c-0.34648,1.21268 -1.03944,2.59859 -1.55915,3.81127c-0.34648,0.69296 -0.69296,1.38592 -1.03944,1.90563c-0.51972,0.69296 -0.8662,1.21268 -1.21268,1.73239c-0.34648,0.51972 -0.69296,1.03944 -1.21268,1.38592c-0.34648,0.51972 -0.8662,0.8662 -1.21268,1.21268c-0.51972,0.34648 -0.8662,0.69296 -1.21268,0.8662c-0.34648,0.17324 -0.69296,0.34648 -1.03944,0.51972c-0.51972,0.17324 -0.8662,0.34648 -0.8662,0.34648c0,0 0.17324,-0.17324 0.69296,-0.51972c0.34648,-0.17324 0.51972,-0.34648 0.8662,-0.69296c0.34648,-0.34648 0.69296,-0.69296 1.03944,-1.03944c0.34648,-0.34648 0.69296,-0.8662 1.03944,-1.21268c0.34648,-0.34648 0.69296,-0.8662 1.03944,-1.38592c0.69296,-1.03944 1.38592,-2.25211 1.90563,-3.46479c0.34648,-0.69296 0.69296,-1.21268 0.8662,-1.90563c0.17324,-0.51972 0.51972,-1.21268 0.69296,-1.73239c0.51972,-1.21268 0.8662,-2.25211 1.21268,-3.29155c0.69296,-1.90563 1.03944,-3.29155 1.03944,-3.29155c0,0 0,1.38592 -0.17324,3.29155z" fill="#59402f"/><path d="M195.58028,-1.92582c-0.51972,-1.38592 -1.21268,-2.77183 -2.25211,-4.33099c-1.03944,-1.55915 -2.25211,-2.94507 -3.81127,-3.98451c-0.69296,-0.51972 -1.55915,-0.8662 -2.42535,-1.21268c-0.8662,-0.17324 -1.73239,-0.34648 -2.59859,-0.34648c-0.8662,0 -1.55915,0.17324 -2.42535,0.34648c-0.8662,0.17324 -1.55915,0.34648 -2.25211,0.69296c-1.21268,0.51972 -2.42535,1.03944 -3.11831,1.55915c-0.8662,0.51972 -1.21268,0.69296 -1.21268,0.69296c0,0 0.34648,-0.34648 1.03944,-0.8662c0.34648,-0.17324 0.69296,-0.51972 1.21268,-0.8662c0.51972,-0.34648 1.03944,-0.69296 1.73239,-1.03944c0.69296,-0.34648 1.38592,-0.69296 2.25211,-0.8662c0.8662,-0.34648 1.73239,-0.51972 2.77183,-0.51972c1.03944,0 1.90563,0.17324 2.94507,0.34648c1.03944,0.17324 1.90563,0.69296 2.77183,1.21268c1.73239,1.21268 2.94507,2.77183 3.98451,4.33099c1.03944,1.73239 1.55915,3.29155 2.07887,4.67746c0.8662,2.94507 1.03944,4.8507 1.03944,4.8507c0,0 -0.51972,-1.90563 -1.73239,-4.67746z" fill="#59402f"/><path d="M269.38028,-9.02864c-0.8662,-0.51972 -1.90563,-1.03944 -3.29155,-1.55915c-0.34648,-0.17324 -0.69296,-0.17324 -1.03944,-0.34648c-0.34648,-0.17324 -0.8662,-0.17324 -1.21268,-0.34648c-0.34648,-0.17324 -0.8662,-0.17324 -1.21268,-0.17324c-0.51972,-0.17324 -0.8662,-0.17324 -1.38592,-0.17324c-0.51972,0 -0.8662,0 -1.38592,0c-0.51972,0.17324 -0.8662,0.17324 -1.38592,0.34648c-0.51972,0.17324 -1.03944,0.34648 -1.38592,0.51972c-0.34648,0.34648 -0.8662,0.34648 -1.21268,0.69296c-0.8662,0.51972 -1.73239,1.03944 -2.25211,1.73239c-0.51972,0.69296 -1.21268,1.21268 -1.73239,2.07887c-0.34648,0.8662 -1.03944,1.55915 -1.38592,2.25211c-0.34648,0.69296 -0.69296,1.38592 -1.03944,2.07887c-0.34648,0.69296 -0.69296,1.38592 -0.8662,1.90563c-0.34648,0.51972 -0.51972,1.03944 -0.69296,1.38592c-0.34648,0.69296 -0.51972,1.21268 -0.51972,1.21268c0,0 0.17324,-0.51972 0.34648,-1.38592c0,-0.51972 0.17324,-1.03944 0.34648,-1.55915c0.17324,-0.51972 0.34648,-1.21268 0.69296,-1.90563c0.34648,-0.69296 0.69296,-1.38592 1.03944,-2.25211c0.34648,-0.8662 0.8662,-1.55915 1.38592,-2.42535c0.51972,-0.8662 1.21268,-1.55915 1.90563,-2.25211c0.69296,-0.69296 1.55915,-1.21268 2.42535,-1.90563c0.34648,-0.34648 0.8662,-0.51972 1.38592,-0.69296c0.34648,-0.17324 0.8662,-0.51972 1.38592,-0.51972c0.51972,-0.17324 1.03944,-0.34648 1.55915,-0.34648c0.51972,0 1.03944,0 1.55915,0c0.51972,0 0.8662,0.17324 1.38592,0.17324c0.51972,0.17324 1.03944,0.17324 1.38592,0.34648c0.34648,0.17324 0.8662,0.17324 1.21268,0.34648c0.34648,0.17324 0.69296,0.34648 1.03944,0.51972c0.69296,0.34648 1.21268,0.69296 1.73239,1.03944c0.34648,0.34648 0.8662,0.51972 1.21268,0.8662c0.69296,0.51972 1.03944,0.8662 1.03944,0.8662c0,0 -0.34648,-0.34648 -1.03944,-0.51972z" fill="#59402f"/><path d="M247.03239,-2.61878c-1.38592,-0.51972 -3.46479,-1.03944 -5.89014,-1.55915c-1.21268,-0.17324 -2.59859,-0.51972 -3.98451,-0.69296c-1.38592,-0.34648 -2.94507,-0.51972 -4.50423,-0.69296c-1.55915,-0.17324 -3.29155,-0.34648 -4.8507,-0.51972c-1.73239,-0.17324 -3.29155,-0.17324 -5.02394,-0.17324h-2.42535c-0.69296,0 -1.55915,0.17324 -2.42535,0.17324c-0.8662,0 -1.55915,0.17324 -2.42535,0.17324c-0.8662,0.17324 -1.73239,0.17324 -2.42535,0.34648c-0.69296,0.17324 -1.55915,0.17324 -2.25211,0.34648c-0.8662,0.17324 -1.55915,0.34648 -2.25211,0.51972c-0.69296,0 -1.38592,0.17324 -2.07887,0.34648c-0.69296,0.17324 -1.38592,0.34648 -1.90563,0.51972c-1.21268,0.34648 -2.25211,0.69296 -3.29155,1.03944c-0.8662,0.34648 -1.73239,0.51972 -2.42535,0.8662c-1.38592,0.51972 -2.25211,0.8662 -2.25211,0.8662c0,0 0.69296,-0.34648 2.07887,-1.03944c0.69296,-0.34648 1.55915,-0.69296 2.42535,-1.21268c1.03944,-0.34648 2.07887,-0.8662 3.29155,-1.21268c0.69296,-0.34648 1.21268,-0.51972 1.90563,-0.69296c0.69296,-0.17324 1.38592,-0.34648 2.07887,-0.51972c0.8662,-0.17324 1.55915,-0.34648 2.25211,-0.51972c0.69296,-0.17324 1.38592,-0.17324 2.25211,-0.34648c0.8662,-0.17324 1.55915,-0.17324 2.42535,-0.34648c0.69296,0 1.55915,-0.17324 2.42535,-0.17324c0.8662,0 1.73239,-0.17324 2.59859,-0.17324h2.59859c1.73239,0 3.29155,0.17324 5.02394,0.17324c1.55915,0.17324 3.29155,0.34648 4.8507,0.51972c1.55915,0.34648 3.11831,0.51972 4.50423,0.8662c1.38592,0.34648 2.77183,0.69296 3.98451,1.03944c2.59859,0.69296 4.50423,1.38592 5.89014,1.90563c1.38592,0.51972 2.07887,0.8662 2.07887,0.8662c0,0 -0.8662,-0.34648 -2.25211,-0.69296z" fill="#59402f"/><path d="M235.25211,103.23052c-1.21268,0.69296 -2.94507,1.21268 -4.67746,1.21268c-0.8662,0.17324 -1.73239,0 -2.59859,-0.17324c-0.51972,0 -0.8662,-0.17324 -1.21268,-0.34648c-0.34648,-0.17324 -0.51972,-0.34648 -0.8662,-0.51972c-0.51972,-0.34648 -1.03944,-0.69296 -1.21268,-1.03944c-0.17324,-0.34648 -0.34648,-0.51972 -0.34648,-0.51972c0,0 0.17324,0.17324 0.51972,0.34648c0.34648,0.17324 0.8662,0.51972 1.38592,0.69296c0.17324,0.17324 0.51972,0.17324 0.8662,0.34648c0.34648,0 0.69296,0 1.03944,0.17324c0.69296,0.17324 1.38592,0.17324 2.25211,0.17324c0.8662,0 1.73239,0 2.42535,-0.17324c0.69296,0 1.38592,-0.17324 2.07887,-0.34648c1.21268,-0.34648 2.07887,-0.51972 2.07887,-0.51972c0,0 -0.69296,0.51972 -1.73239,0.69296z" fill="#59402f"/><path d="M204.58873,31.85587c2.42535,0 4.33099,1.55915 4.33099,3.29155c0,1.90563 -2.07887,3.29155 -4.33099,3.29155c-2.25211,0 -7.62254,-0.8662 -7.62254,-2.59859c0,-1.73239 5.19718,-3.98451 7.62254,-3.98451z" fill="#9e7b5c"/><path d="M250.49718,35.84038c0,1.73239 -5.37042,2.59859 -7.62254,2.59859c-2.25211,0 -4.33099,-1.38592 -4.33099,-3.29155c0,-1.73239 1.90563,-3.29155 4.33099,-3.29155c2.42535,0 7.62254,2.25211 7.62254,3.98451z" fill="#9e7b5c"/></g><path d="M265.74225,108.08122c-1.38592,0.8662 -2.94507,1.73239 -4.8507,2.42535c-1.90563,0.69296 -3.81127,1.55915 -5.89014,2.07887c-1.03944,0.34648 -2.07887,0.51972 -3.11831,0.69296c-1.03944,0.17324 -2.07887,0.34648 -3.11831,0.51972c-1.03944,0.17324 -2.07887,0.17324 -2.94507,0.34648c-0.8662,0.17324 -1.73239,0.17324 -2.59859,0.17324c-1.55915,0 -2.94507,-0.17324 -3.81127,-0.17324c-0.8662,-0.17324 -1.38592,-0.17324 -1.38592,-0.17324c0,0 0.51972,-0.17324 1.38592,-0.17324c0.51972,-0.17324 1.03944,-0.17324 1.73239,-0.17324c0.51972,0 1.21268,-0.17324 2.07887,-0.17324c0.8662,-0.17324 1.73239,-0.17324 2.59859,-0.34648c0.8662,-0.17324 1.73239,-0.34648 2.77183,-0.51972c0.8662,-0.17324 1.90563,-0.17324 2.94507,-0.51972c0.8662,-0.34648 1.90563,-0.51972 2.94507,-0.8662c2.07887,-0.51972 3.98451,-1.21268 5.89014,-1.90563c1.90563,-0.69296 3.63803,-1.38592 5.02394,-2.07887c2.77183,-1.38592 4.67746,-2.42535 4.67746,-2.42535c0,0 -1.55915,1.21268 -4.33099,3.29155z" fill="#59402f"/></g><path d="M200.11683,52.45755c-4.20168,-1.05042 -3.15126,-5.2521 -3.15126,-5.2521c1.71935,-4.88802 3.04745,-18.09981 14.19371,-8.94163c2.46632,2.02642 0.72178,6.34313 1.08268,9.51471l-0.95531,0.87152l0.41377,0.27585l-3.42752,5.1413c-0.77116,1.19405 -2.11369,1.98448 -3.64085,1.98448c-2.12021,0 -3.88457,-1.5235 -4.25809,-3.53549c-0.08437,-0.01734 -0.17007,-0.03685 -0.25712,-0.05861z" fill="#000000" stroke-width="0.5"/><path d="M244.5176,37.20438c-1.1763,0.77655 -2.44184,1.91896 -3.60492,2.77006c0.58435,-0.22031 1.11752,-0.45425 1.43056,-0.68457c0.81137,-0.59695 1.50822,-1.32379 2.17435,-2.08549zM229.75663,41.53157c-0.39126,-2.84525 2.51862,-5.31142 4.61184,-7.27788c5.80938,-5.4576 12.9977,-9.47789 20.45194,-2.52231c1.92919,1.80015 0.78263,5.22734 0.91729,7.86252c0.19994,3.91275 0.39507,15.31199 -7.36902,14.70427c-1.26023,-0.09864 -2.24357,-0.73429 -3.0781,-1.65858l-0.41113,0.41113l-3.46479,-3.46479c-0.23704,-0.23704 -0.44673,-0.50144 -0.62394,-0.78805c-4.90678,0.91431 -10.06024,-0.18464 -11.03407,-7.26634z" fill="#000000" stroke-width="0.5"/><path d="M202.03345,44.79109c0,-2.39193 1.93905,-4.33099 4.33099,-4.33099c2.39193,0 4.33099,1.93905 4.33099,4.33099c0,2.39193 -1.93905,4.33099 -4.33099,4.33099c-2.39193,0 -4.33099,-1.93905 -4.33099,-4.33099z" fill="#ff0000" stroke-width="0.5"/><path d="M243.61092,37.86151c0,-2.39193 1.93905,-4.33099 4.33099,-4.33099c2.39193,0 4.33099,1.93905 4.33099,4.33099c0,2.39193 -1.93905,4.33099 -4.33099,4.33099c-2.39193,0 -4.33099,-1.93905 -4.33099,-4.33099z" fill="#ff0000" stroke-width="0.5"/><path d="M253.13908,76.84038c-4.33099,0 -4.33099,-4.33099 -4.33099,-4.33099l0.00664,-5.43669c0.39038,-3.54285 0.78212,-7.08556 1.17486,-10.62815c-0.02716,-0.03648 -0.05473,-0.07273 -0.08269,-0.10873c-2.39517,-3.08304 -8.63018,-3.29326 -11.47633,-3.83308c0,0 -4.24688,-0.84938 -3.3975,-5.09625c0.84938,-4.24688 5.09625,-3.3975 5.09625,-3.3975c5.11606,1.06712 9.13518,1.18827 12.93257,3.67526c0.60655,-0.25151 1.35792,-0.37143 2.28789,-0.26809c4.3045,0.47828 3.82622,4.78278 3.82622,4.78278c-0.07519,0.6766 -0.15039,1.35321 -0.22563,2.02981c1.35615,2.29648 2.54917,4.71958 4.3164,6.69813c3.3759,3.77958 8.20817,6.9499 9.53617,11.84053c0.8857,3.26177 0.17246,6.75757 0.25868,10.13634l-2.18963,5.40166c0,0 -1.93687,3.87376 -5.81062,1.93687c-3.87376,-1.93687 -1.93687,-5.81062 -1.93687,-5.81062l1.27516,-1.52792c0.08622,-2.39587 0.77249,-4.84589 0.25868,-7.1876c-0.24318,-1.10828 -1.62667,-1.58592 -2.37156,-2.44181c-1.53112,-1.75928 -3.20768,-3.40447 -4.82248,-5.09686l0.00579,4.33189c0,0 0,4.33099 -4.33099,4.33099z" fill="#ff0000" stroke-width="0.5"/><path d="M191.65591,76.75627c-4.24688,-0.84938 -3.3975,-5.09625 -3.3975,-5.09625l0.03364,-0.16822c1.05484,-5.04643 2.66553,-10.12884 5.35561,-14.52827c-0.3695,-0.79867 -0.49217,-1.83294 -0.05393,-3.14766c1.36958,-4.10874 5.47832,-2.73916 5.47832,-2.73916c2.33511,0.96614 5.42028,0.93024 7.00535,2.89843c3.54751,4.40501 2.86332,11.67261 2.88563,16.80183v8.66197c0,0 0,4.33099 -4.33099,4.33099c-4.33099,0 -4.33099,-4.33099 -4.33099,-4.33099v-8.66197c0.00092,-0.18031 0.16841,-4.82912 -0.04203,-8.03483c-1.78081,3.19603 -2.79423,6.8573 -3.47323,10.44838l-0.03364,0.16822c0,0 -0.84938,4.24688 -5.09625,3.3975z" fill="#ff0000" stroke-width="0.5"/></g></g></svg>