<svg version="1.1" xmlns="http://www.w3.org/2000/svg" xmlns:xlink="http://www.w3.org/1999/xlink" width="349.96983" height="309.71228" viewBox="0,0,349.96983,309.71228"><g transform="translate(-104.64486,-20.26749)"><g data-paper-data="{&quot;isPaintingLayer&quot;:true}" fill-rule="nonzero" stroke-linecap="butt" stroke-linejoin="miter" stroke-miterlimit="10" stroke-dasharray="" stroke-dashoffset="0" style="mix-blend-mode: normal"><path d="M258.27882,60.69554v0v0v0v0v0v0v0v0v0v0v0l-15.75534,12.17991c0,0 -1.05985,-26.17106 -4.06182,-27.85071c-3.00218,-1.67916 -27.83204,9.36998 -31.00104,-3.13102c-3.16119,-12.4977 29.90055,-25.02794 42.59355,-18.82897c12.69492,6.19536 8.22465,37.63081 8.22465,37.63081z" fill="#efff00" stroke="#0084ff" stroke-width="2.32134"/><path d="M217.17936,100.36752v0v0v0v0v0v0v0v0v0v0v0l-16.22816,24.12187c0,0 -7.96964,-29.32384 -12.69029,-31.33141c-4.72065,-2.00756 -29.15989,40.60353 -42.38938,28.01713c-13.22916,-12.58625 38.75258,-60.51011 51.57559,-59.44697c12.8243,1.05926 19.73223,38.63936 19.73223,38.63936z" fill="#efff00" stroke="#0084ff" stroke-width="2.32134"/><path d="M194.70186,169.35002v0v0v0v0v0v0v0v0v0v0v0l3.6493,28.54876l-6.72799,19.54008c0,0 -18.40963,-38.20586 -25.21157,-40.56326c-6.80214,-2.35693 -51.46296,42.36273 -59.832,23.27676c-8.36956,-19.08565 53.58372,-58.27634 67.71521,-55.796c14.1348,2.47346 20.40706,24.99367 20.40706,24.99367z" fill="#efff00" stroke="#0084ff" stroke-width="2.32134"/><path d="M400.56658,121.20669c0,0 19.54166,-25.026 32.80998,-20.17989c13.26471,4.84015 27.17908,37.34807 15.9844,43.74059c-11.2025,6.38921 -20.46815,-19.15985 -23.76016,-20.15744c-3.29224,-0.99711 -22.88309,16.39176 -22.88309,16.39176l-2.15111,-19.79504v0v0v0v0v0v0v0v0v0v0v0z" fill="#efff00" stroke="#0084ff" stroke-width="2.32134"/><path d="M400.50406,178.33057c0,0 31.8552,-21.09519 41.51939,-12.5907c9.66058,8.49853 11.20132,79.18407 -7.04148,78.38612c-18.24247,-0.79778 -4.50376,-47.95952 -9.22441,-49.96709c-4.72097,-2.0077 -31.3704,12.59358 -31.3704,12.59358l6.11691,-28.42192v0v0v0v0v0v0v0v0v0z" fill="#efff00" stroke="#0084ff" stroke-width="2.32134"/><path d="M365.97018,243.40636c0,0 20.57212,-11.10402 32.15828,-2.6385c11.58707,8.45705 26.33737,80.26715 6.78489,87.47831c-19.55268,7.21162 -18.32294,-55.97811 -24.73901,-59.24197c-6.41639,-3.264 -46.70554,9.9783 -46.70554,9.9783l9.40719,-18.40069l23.0942,-17.17547v0v0v0v0v0v0v0v0v0v0v0z" fill="#efff00" stroke="#0084ff" stroke-width="2.32134"/><g stroke="none" stroke-width="0.77378"><g><path d="M298.51451,166.16477l45.93246,-115.96946l3.94655,1.82836c3.89544,1.8022 7.79036,4.0664 11.57377,6.73375c6.6647,4.69311 12.76842,10.56528 18.14955,17.44535c9.86763,12.62577 17.18198,28.54314 21.15727,46.03459c2.64041,11.62525 3.76499,23.68971 3.35128,35.8622c-0.59739,17.4914 -4.28708,34.3187 -10.96479,50.02086c-0.85143,2.00208 -1.82061,4.11297 -2.9679,6.44757c-5.04753,10.29593 -11.3063,19.67878 -18.61206,27.88792c-6.44733,7.2468 -13.72083,13.61915 -21.62295,18.94534c-2.5582,1.863 -6.51581,4.24016 -11.66312,6.98985c-0.19505,0.48664 -0.3943,0.97594 -0.59943,1.4583c-1.5687,3.68869 -3.42131,7.22733 -5.51387,10.52606l-1.12461,1.77076l-1.58792,0.72074c-2.08383,0.94271 -4.35505,1.87878 -6.94879,2.85318c-16.77481,6.32828 -34.32285,8.32284 -50.74069,5.76524c-6.3001,-0.97877 -12.49399,-2.61926 -18.41087,-4.88313l-3.93418,-1.5015l50.58027,-118.936v0v0v0v0v0v0v0v0v0v0v0z" fill="#a6479a"/><path d="M345.99826,57.4256l-43.71224,110.34309l-48.20618,113.35349c5.8313,2.22748 11.79376,3.79058 17.82058,4.72621c16.2783,2.537 33.02644,0.45911 48.9541,-5.54858c2.24162,-0.84571 4.47412,-1.74678 6.6794,-2.74466c1.83568,-2.88987 3.46984,-5.99885 4.87965,-9.31394c0.54762,-1.2877 1.03476,-2.57952 1.4965,-3.88214c4.17414,-2.17437 9.8124,-5.26717 13.36444,-7.85168c7.34242,-4.94701 14.21907,-10.91024 20.41683,-17.87734c6.69671,-7.52601 12.58476,-16.23952 17.41115,-26.08592c0.96756,-1.9743 1.90196,-3.9754 2.77812,-6.03563c6.48333,-15.24511 9.77585,-31.34182 10.31755,-47.17802c0.40034,-11.72815 -0.71725,-23.30581 -3.2103,-34.28553c-3.80175,-16.72407 -10.77381,-32.04139 -20.38776,-44.3412c-5.11016,-6.5379 -10.9618,-12.21317 -17.47677,-16.80388c-3.52501,-2.4844 -7.22734,-4.67112 -11.12506,-6.47429M345.99826,57.4256v0v0v0v0v0v0v0v0v0v0v0l-3.10291,-14.46068v0l7.89043,3.66391c4.05263,1.87347 8.09856,4.2235 12.02635,6.99043c6.90813,4.8697 13.23699,10.9533 18.81306,18.08788c10.22413,13.08128 17.80941,29.58491 21.93166,47.73006c2.75094,12.11343 3.9252,24.70439 3.49058,37.42927c-0.63123,18.44461 -4.5401,36.22822 -11.61571,52.86603c-0.91004,2.13991 -1.9427,4.38652 -3.15702,6.86423c-5.37114,10.95929 -12.03912,20.9475 -19.80932,29.68315c-6.77457,7.61689 -14.40334,14.3142 -22.67433,19.90696c-2.51612,1.81282 -5.95627,3.91738 -10.26127,6.28021c-1.65302,3.74694 -3.57239,7.35128 -5.7128,10.7282l-2.24974,3.54908l-3.17044,1.43601c-2.17594,0.98491 -4.53639,1.95556 -7.22064,2.96841c-17.38233,6.55427 -35.54157,8.62268 -52.52361,5.97957c-6.50508,-1.01448 -12.89586,-2.7088 -19.00168,-5.03975l-7.86883,-3.0082l4.74957,-11.16829l48.12445,-113.16129l43.62752,-110.14388l4.61177,-11.64204z" fill="#0084ff"/></g><path d="M345.05101,106.7375c2.42443,1.03104 3.98456,3.45923 4.54982,6.54814c0.56526,3.08891 0.13227,6.84102 -1.43185,10.51893c-1.56412,3.67791 -3.96632,6.59256 -6.58331,8.32815c-2.61679,1.73512 -5.448,2.29579 -7.87243,1.26474c-2.42475,-1.03118 -3.98456,-3.45923 -4.55002,-6.54768c-0.56558,-3.08905 -0.13227,-6.84102 1.43185,-10.51893c1.56412,-3.67791 3.96599,-6.5927 6.58331,-8.32815c2.61699,-1.73559 5.44788,-2.29639 7.87263,-1.26521v0v0v0v0v0v0v0v0z" fill="#ff0000"/><path d="M359.09446,174.81226c2.42475,1.03118 3.98456,3.45923 4.55002,6.54768c0.56558,3.08905 0.13227,6.84102 -1.43185,10.51893c-1.56412,3.67791 -3.96599,6.5927 -6.58331,8.32815c-2.61699,1.73559 -5.44788,2.29639 -7.87263,1.26521c-2.42443,-1.03104 -3.98456,-3.45923 -4.54982,-6.54814c-0.56526,-3.08891 -0.13227,-6.84102 1.43185,-10.51893c1.56412,-3.67791 3.96632,-6.59256 6.58331,-8.32815c2.61679,-1.73512 5.448,-2.29579 7.87243,-1.26474v0v0v0v0v0v0v0v0z" fill="#ff0000"/><path d="M352.86793,98.91292v0v0v0v0v0v0v0v0v0v0v0c-6.77772,-2.88238 -8.7278,-13.55865 -4.3562,-23.83817c2.06708,-4.86061 5.18833,-8.71161 8.61158,-11.17487c6.51377,4.58629 12.368,10.26269 17.47677,16.80388c-0.3807,1.5945 -0.85682,3.20375 -1.5402,4.81068c-4.3716,10.27952 -13.41423,16.28089 -20.19195,13.3985z" fill="#ff0000"/><path d="M362.73692,140.61796v0v0v0v0v0v0v0v0v0v0v0c5.92196,-13.92507 18.98838,-21.69758 29.1826,-17.36225c1.10793,0.47117 2.11989,1.09029 3.06693,1.79251c2.49286,10.98018 3.61044,22.55784 3.2101,34.28599c-6.41618,11.99725 -18.29002,18.3578 -27.72156,14.34682c-10.19684,-4.33644 -13.65983,-19.13846 -7.73807,-33.06307z" fill="#ff0000"/><path d="M314.4744,223.26687v0v0v0v0v0v0v0v0v0v0v0c14.8319,6.30761 19.87363,27.84176 11.26002,48.09607c-1.37294,3.22838 -3.03424,6.20513 -4.8763,8.94283c-15.92778,6.00709 -32.67593,8.08498 -48.9541,5.54858c-5.26961,-9.74983 -5.62993,-23.81469 0.12079,-37.33709c8.61202,-20.25057 27.61508,-31.55911 42.4496,-25.25039z" fill="#f4eb43"/><path d="M377.1276,199.70419v0v0v0v0v0v0v0v0v0v0v0c4.69559,1.99691 7.49235,6.92104 7.9775,12.84103c-4.82639,9.84642 -10.71444,18.55991 -17.41147,26.08578c-2.33821,0.42325 -4.67197,0.24059 -6.83218,-0.67809c-7.73694,-3.29031 -10.36152,-14.51915 -5.87111,-25.07804c4.4934,-10.56592 14.40032,-16.46102 22.13727,-13.17071z" fill="#ff0000"/><path d="M335.02354,145.68204c3.8649,1.64364 6.45274,5.27553 7.51651,9.81416c1.06376,4.53864 0.59923,9.98667 -1.64507,15.26399c-2.24451,5.27781 -5.84617,9.39113 -9.85317,11.77331c-4.007,2.38218 -8.41812,3.03759 -12.28302,1.39396c-3.86456,-1.64349 -6.45274,-5.27553 -7.51651,-9.81416c-1.06376,-4.53864 -0.59911,-9.98607 1.64539,-15.26385c2.24431,-5.27734 5.84584,-9.39127 9.85284,-11.77345c4.007,-2.38218 8.41845,-3.03746 12.28302,-1.39396v0v0v0v0v0v0v0v0z" fill="#ff0000"/></g><g stroke="none" stroke-width="0.77378"><g><path d="M241.70062,281.98701c-22.98896,-12.21769 -40.09858,-34.21986 -48.18345,-61.94369l-0.54441,-1.85948l0.72484,-2.19321c0.70997,-2.15193 1.41882,-4.05633 2.16699,-5.8156c0.29464,-0.69283 0.60942,-1.39869 0.95517,-2.13399c-0.39887,-1.59998 -0.80068,-3.26985 -1.1944,-4.92354l-0.77836,1.08218l-1.40842,-8.71997c-0.34612,-1.97611 -0.62555,-3.97531 -0.86554,-5.98323c-1.67508,-13.89607 -0.7503,-28.1512 2.74842,-42.38277c1.68712,-6.86826 3.88253,-13.49876 6.52494,-19.71222c10.13747,-23.83755 26.81586,-44.45278 48.22457,-59.60834c20.8157,-14.73962 44.34965,-22.77674 66.26566,-22.63918c9.95954,0.06347 19.36521,1.79338 27.95664,5.12989l4.0544,1.57478l-51.75458,113.7204l-51.05947,118.44104l-3.833,-2.03306v0v0v0v0v0v0v0v0v0z" fill="#a6479a"/><path d="M342.06237,55.76007c-8.48408,-3.2953 -17.5686,-4.87147 -26.89881,-4.93301c-21.36013,-0.13643 -44.02106,7.77046 -63.8066,21.7791c-19.26496,13.63828 -35.80021,33.04236 -45.73414,56.4013c-2.6179,6.1558 -4.59528,12.30888 -6.09799,18.42911c-3.35155,13.63435 -4.10533,27.07541 -2.56961,39.81565l0.00101,0.00485c0.23005,1.9057 0.49345,3.80345 0.8227,5.67827c0.10744,-0.14694 0.23074,-0.28326 0.33786,-0.43033c0.38656,1.71929 0.85141,3.75862 1.34174,5.85639c0.71358,3.06178 1.48728,6.29027 2.21957,9.11199c-0.72015,1.40696 -1.41074,2.83479 -2.03551,4.30389c-0.72963,1.71568 -1.35052,3.43497 -1.91875,5.15508c7.55159,25.8951 23.58412,47.52886 46.51427,59.71769l4.54471,-10.54023l32.33643,-75.0087l11.78078,-27.32403l6.06927,-13.33546l15.03956,-33.04341l28.0535,-61.63814M342.06237,55.76007v0v0v0v0v0v0v0v0v0v0v0l12.56784,-7.79634v0l-5.19115,11.39619l-28.0507,61.63878l-15.03976,33.04389l-5.99833,13.1813l-11.7118,27.16904l-32.3363,75.00931l-4.54485,10.53962l-4.93707,11.44834l-7.6554,-4.06934c-23.76872,-12.63567 -41.47523,-35.42251 -49.85606,-64.16342l-1.08309,-3.7243l1.44655,-4.38718c0.53264,-1.61568 1.06705,-3.10992 1.62057,-4.52351l-2.19086,-12.50074c-0.31303,-1.77383 -0.58499,-3.63701 -0.85556,-5.82509l-0.0029,-0.01396l-0.05421,-0.4598c-1.76893,-14.70265 -0.78413,-29.819 2.92953,-44.92734c1.79436,-7.30203 4.13364,-14.36842 6.95348,-20.99908c10.71439,-25.19415 28.24922,-46.91427 50.71433,-62.82009c21.6024,-15.2957 46.00859,-23.64276 68.72039,-23.49722c10.32993,0.06711 20.09124,1.86246 29.01526,5.33213l8.10793,3.15249z" fill="#0084ff"/></g><path d="M307.97208,111.59272v0v0v0v0v0v0v0v0v0v0v0c2.63853,1.1221 4.66402,3.18245 6.03678,5.80549l-15.03956,33.04341c-2.48033,0.52611 -4.96747,0.37619 -7.26337,-0.60019c-7.73727,-3.29045 -10.36184,-14.51928 -5.87143,-25.07818c4.4934,-10.56592 14.40032,-16.46102 22.13759,-13.17057z" fill="#ff0000"/><path d="M270.06551,147.48291c2.42475,1.03118 3.98456,3.45923 4.55014,6.54828c0.56546,3.08845 0.13214,6.84042 -1.43217,10.51879c-1.56412,3.67791 -3.96599,6.5927 -6.58278,8.32783c-2.61731,1.73545 -5.4482,2.29626 -7.87295,1.26507c-2.42443,-1.03104 -3.98456,-3.45923 -4.54982,-6.54814c-0.56546,-3.08845 -0.13246,-6.84055 1.43165,-10.51846c1.56431,-3.67838 3.96652,-6.59303 6.58331,-8.32815c2.61699,-1.73559 5.4482,-2.29626 7.87263,-1.26521v0v0v0v0v0v0v0v0z" fill="#ff0000"/><path d="M225.47983,199.82028c2.42475,1.03118 3.98456,3.45923 4.55034,6.54781c0.56526,3.08891 0.13194,6.84088 -1.43217,10.51879c-1.56412,3.67791 -3.96599,6.5927 -6.58298,8.32829c-2.61731,1.73545 -5.4482,2.29626 -7.87295,1.26507c-2.42443,-1.03104 -3.98424,-3.45909 -4.54982,-6.54814c-0.56526,-3.08891 -0.13227,-6.84102 1.43185,-10.51893c1.56412,-3.67791 3.96632,-6.59256 6.58331,-8.32815c2.61711,-1.73499 5.448,-2.29579 7.87243,-1.26474v0v0v0v0v0v0v0v0z" fill="#f4eb43"/><path d="M248.06415,108.70498c3.86456,1.64349 6.45274,5.27553 7.51651,9.81416c1.06376,4.53864 0.59943,9.98621 -1.64507,15.26399c-2.24431,5.27734 -5.84617,9.39113 -9.85317,11.77331c-4.007,2.38218 -8.41845,3.03746 -12.28302,1.39396c-3.8649,-1.64364 -6.45274,-5.27553 -7.51651,-9.81416c-1.06376,-4.53864 -0.59923,-9.98667 1.64507,-15.26399c2.24451,-5.27781 5.84617,-9.39113 9.85317,-11.77331c4.007,-2.38218 8.41812,-3.03759 12.28302,-1.39396v0v0v0v0v0v0v0v0z" fill="#ff0000"/><g fill="#ff0000"><path d="M215.86141,175.66724v0v0v0v0v0v0v0v0v0v0v0c-2.67883,10.36116 -9.17402,18.90226 -16.39941,22.69951c-0.49053,-2.09731 -0.95507,-4.13648 -1.34194,-5.85592c-0.10712,0.14708 -0.23042,0.2834 -0.33754,0.43047c-0.32957,-1.87496 -0.59245,-3.77304 -0.82304,-5.67841l-0.00068,-0.00472c-1.53603,-12.74039 -0.78173,-26.18178 2.56949,-39.81625c1.49115,-0.32513 2.98871,-0.4422 4.4618,-0.29121c10.36488,1.03295 15.6773,13.80729 11.87132,28.51653z"/></g><g fill="#ff0000"><path d="M267.27225,101.5483v0v0v0v0v0v0v0v0v0v0v0c-10.20432,-4.33962 -15.88126,-15.67586 -15.9127,-28.94104c19.78556,-14.00863 42.44649,-21.91551 63.8066,-21.7791c0.71444,7.70912 -0.54669,16.28797 -4.11291,24.67369c-8.88513,20.89277 -28.48541,32.55125 -43.78099,26.04645z"/></g><g fill="#f4eb43"><path d="M240.29079,218.16739v0v0v0v0v0v0v0v0v0v0v0c8.32196,-19.56852 26.04549,-31.03595 40.82915,-27.06155l-32.3361,75.00884c-12.83636,-8.05009 -16.74105,-28.55268 -8.49305,-47.94729z"/></g></g><path d="M260.14971,165.62854v0v0v0v0v0v0v0v0v0v0v0l-17.99285,1.88676c0,0 -4.44854,-19.43969 1.84195,-42.87954c6.29028,-23.43938 21.71523,-37.07943 30.336,-34.93769c8.6213,2.14139 4.42815,17.85952 -3.8431,34.68687c-8.27145,16.82781 -10.34201,41.2436 -10.34201,41.2436z" fill="#efff00" stroke="#0084ff" stroke-width="2.32134"/><path d="M323.68778,192.64957c0,0 16.14985,-18.42822 22.53279,-36.05919c6.38273,-17.63048 14.79576,-31.55401 22.3183,-26.82986c7.52274,4.72368 8.39816,25.29584 -4.12124,46.08613c-12.51961,20.79077 -29.6038,31.06929 -29.6038,31.06929l-11.12605,-14.26636v0v0v0v0v0v0v0v0v0z" fill="#efff00" stroke="#0084ff" stroke-width="2.32134"/><g stroke="none"><path d="M238.27603,305.26622c-39.99699,-17.00964 -58.22924,-57.88951 -42.40884,-95.09008c16.49301,-38.78217 61.38327,-56.95106 100.0709,-40.49826c38.68765,16.45281 56.74781,61.38837 40.2532,100.17431c-15.8204,37.20057 -57.91307,52.42588 -97.91526,35.41402v0v0v0v0v0v0v0v0v0v0z" fill="#74bf44" stroke-width="0.77378"/><path d="M293.62421,175.11882c-36.19001,-15.39064 -78.9377,1.29091 -93.98063,36.66332c-15.03994,35.36536 4.75633,72.65252 40.94633,88.04315c36.19034,15.39077 76.78632,3.78239 91.82466,-31.57922c15.04293,-35.37239 -2.60003,-77.73647 -38.79037,-93.12724M293.62421,175.11882v0v0v0v0v0v0v0v0v0v0v0l4.62776,-10.88187v0c40.77009,17.33842 59.48597,65.43569 41.7157,107.22124c-17.13932,40.30192 -61.85321,57.17523 -104.00554,39.24898c-42.14939,-17.925 -61.01098,-61.83524 -43.87166,-102.13716c17.77027,-41.78555 65.39434,-61.67023 106.1615,-44.33305z" fill="#0084ff" stroke-width="0.77378"/><path d="M293.6655,175.02172c36.19034,15.39077 53.85828,57.88319 38.81536,93.25558c-15.03834,35.36162 -55.74191,47.03586 -91.93224,31.64508c-36.19,-15.39063 -56.01345,-52.80095 -40.97351,-88.16632c15.04293,-35.37241 57.90038,-52.12499 94.0904,-36.73435" data-paper-data="{&quot;noHover&quot;:false,&quot;origItem&quot;:[&quot;Path&quot;,{&quot;applyMatrix&quot;:true,&quot;segments&quot;:[[[239.99647,178.47314],[0,0],[-26.84723,0]],[[190.75093,211.88934],[0,-18.21445],[0,18.21082]],[[239.99647,242.68871],[-26.84722,0],[26.84747,0]],[[289.24588,211.88934],[0,18.20889],[0,-18.21444]],[[239.99647,178.47314],[26.84747,0],[0,0]]],&quot;fillColor&quot;:[0,0,0,1],&quot;strokeWidth&quot;:0.77378}]}" fill="#efff00" stroke-width="0.38689"/></g><g stroke="none"><path d="M260.55691,187.35499v0v0v0v0v0v0v0v0v0v0v0c7.09126,4.99021 7.01775,19.5647 1.05119,30.34386c-5.96335,10.77165 -17.56928,17.29817 -24.65475,12.30157c-7.08739,-4.99299 -6.97549,-19.63697 -1.0212,-30.40805c5.96495,-10.77542 17.54456,-17.24005 24.62476,-12.23739z" fill="#ffffff" stroke-width="0.77378"/><path d="M252.08573,200.61111c1.63407,0.69493 2.68277,2.33987 3.05629,4.43945c0.37306,2.09438 0.07373,4.64403 -0.9906,7.14674c-1.06454,2.5032 -2.69336,4.48743 -4.46069,5.67158c-1.77118,1.18692 -3.68367,1.57313 -5.31774,0.8782c-1.63375,-0.69479 -2.68225,-2.3402 -3.05629,-4.43945c-0.37272,-2.09424 -0.07341,-4.6439 0.99113,-7.14709c1.06434,-2.50273 2.69316,-4.48696 4.46016,-5.67124c1.77172,-1.18726 3.684,-1.57299 5.31774,-0.8782v0v0v0v0v0v0v0v0z" fill="#231f20" stroke-width="0.77378"/><path d="M265.38228,177.79101v0v0v0v0v0v0v0v0v0v0v0c10.83818,7.63762 12.02472,27.54056 2.664,44.44872c-9.36163,16.91662 -25.72996,24.42855 -36.56379,16.79334c-10.8307,-7.63443 -12.02452,-27.54102 -2.66569,-44.45829c9.35343,-16.91181 25.73185,-24.41944 36.56548,-16.78377zM261.60969,217.69511v0v0v0v0v0v0v0v0v0v0v0c5.96495,-10.77542 6.03846,-25.34991 -1.05119,-30.34386c-7.07792,-5.00169 -18.6614,1.46572 -24.62476,12.23739c-5.95447,10.77155 -6.06877,25.41396 1.0212,30.40805c7.08319,4.99563 18.69139,-1.5299 24.65475,-12.30157z" fill="#231f20" stroke-width="0.77378"/><path d="M236.90413,230.08847c-7.08997,-4.99409 -6.98534,-19.77114 -1.03086,-30.54269c5.96336,-10.77167 17.65812,-17.28804 24.73604,-12.28635c7.08965,4.99395 7.02599,19.7028 1.06101,30.47823v0v0v0v0v0v0v0v0v0v0v0c-5.96336,10.77167 -17.68301,17.34644 -24.7662,12.35081z" data-paper-data="{&quot;noHover&quot;:false,&quot;origItem&quot;:[&quot;Path&quot;,{&quot;applyMatrix&quot;:true,&quot;segments&quot;:[[[462.51834,405.95262],[-1.73698,11.60614],[0,0]],[462.51834,405.95262],[462.51834,405.95262],[462.51834,405.95262],[462.51834,405.95262],[462.51834,405.95262],[462.51834,405.95262],[462.51834,405.95262],[462.51834,405.95262],[462.51834,405.95262],[462.51834,405.95262],[[462.51834,405.95262],[0,0],[1.73698,-11.61]],[[444.98388,379.87854],[11.57618,1.72588],[-11.56558,-1.73698]],[[420.58306,399.68442],[1.73698,-11.60614],[-1.72588,11.60274]],[[438.11414,425.8256],[-11.57666,-1.72588],[11.56896,1.72974]]],&quot;closed&quot;:true,&quot;fillColor&quot;:[0,0,0,1],&quot;strokeWidth&quot;:0.77378}]}" fill="#000000" stroke-width="0.38689"/></g><g stroke="none"><path d="M313.11982,209.70858v0v0v0v0v0v0v0v0v0v0v0c7.09126,4.99021 7.01775,19.5647 1.05119,30.34386c-5.96335,10.77165 -17.56895,17.29831 -24.65475,12.30157c-7.08739,-4.99299 -6.97515,-19.63683 -1.0212,-30.40805c5.96527,-10.77528 17.54456,-17.24005 24.62476,-12.23739z" fill="#ffffff" stroke-width="0.77378"/><path d="M304.64898,222.96485c1.63407,0.69493 2.68244,2.33974 3.05629,4.43945c0.37272,2.09424 0.07341,4.6439 -0.99092,7.14661c-1.06454,2.5032 -2.69336,4.48743 -4.46037,5.67172c-1.77152,1.18678 -3.68367,1.57313 -5.31774,0.8782c-1.63407,-0.69493 -2.68257,-2.34034 -3.05629,-4.43945c-0.37306,-2.09438 -0.07373,-4.64403 0.99081,-7.14723c1.06434,-2.50273 2.69316,-4.48696 4.46048,-5.6711c1.77139,-1.18741 3.68367,-1.57313 5.31774,-0.8782v0v0v0v0v0v0v0v0z" fill="#231f20" stroke-width="0.77378"/><path d="M317.94522,200.14461v0v0v0v0v0v0v0v0v0v0v0c10.83852,7.63776 12.02505,27.54069 2.664,44.44872c-9.36163,16.91662 -25.72996,24.42855 -36.56346,16.79348c-10.83102,-7.63457 -12.02485,-27.54116 -2.66601,-44.45842c9.35343,-16.91181 25.73218,-24.41931 36.56548,-16.78377zM314.17262,240.0487v0v0v0v0v0v0v0v0v0v0v0c5.96495,-10.77542 6.03846,-25.34991 -1.05119,-30.34386c-7.0776,-5.00155 -18.66108,1.46586 -24.62476,12.23739c-5.95415,10.77169 -6.06877,25.41396 1.0212,30.40805c7.08319,4.99563 18.69139,-1.5299 24.65475,-12.30157z" fill="#231f20" stroke-width="0.77378"/><path d="M289.46706,252.44207c-7.08997,-4.99409 -6.98501,-19.771 -1.03086,-30.54269c5.96368,-10.77153 17.65845,-17.28791 24.73604,-12.28635c7.08965,4.99395 7.02599,19.7028 1.06101,30.47823v0v0v0v0v0v0v0v0v0v0v0c-5.96336,10.77167 -17.68301,17.34644 -24.7662,12.35081z" data-paper-data="{&quot;noHover&quot;:false,&quot;origItem&quot;:[&quot;Path&quot;,{&quot;applyMatrix&quot;:true,&quot;segments&quot;:[[[540.505,405.95262],[-1.73698,11.60614],[0,0]],[540.505,405.95262],[540.505,405.95262],[540.505,405.95262],[540.505,405.95262],[540.505,405.95262],[540.505,405.95262],[540.505,405.95262],[540.505,405.95262],[540.505,405.95262],[540.505,405.95262],[[540.505,405.95262],[0,0],[1.73698,-11.61]],[[522.97054,379.87854],[11.57618,1.72588],[-11.5651,-1.73698]],[[498.56972,399.68442],[1.73746,-11.60614],[-1.7254,11.60274]],[[516.1008,425.8256],[-11.57666,-1.72588],[11.56896,1.72974]]],&quot;closed&quot;:true,&quot;fillColor&quot;:[0,0,0,1],&quot;strokeWidth&quot;:0.77378}]}" fill="#000000" stroke-width="0.38689"/></g><path d="M257.47907,259.13136c6.66449,2.83423 12.02823,6.98238 15.32632,11.37189c3.28326,4.42526 4.49532,9.08952 2.85166,12.95446c-1.64366,3.86494 -5.844,6.22745 -11.30878,6.93186c-5.4497,0.66986 -12.15828,-0.31602 -18.82276,-3.15025c-6.66481,-2.83436 -12.02856,-6.98252 -15.32645,-11.37249c-3.28346,-4.4248 -4.49552,-9.08905 -2.85186,-12.954c1.64366,-3.86494 5.844,-6.22745 11.30898,-6.93233c5.4495,-0.66939 12.15808,0.31649 18.82289,3.15085v0v0v0v0v0z" fill="#231f20" stroke="none" stroke-width="48.10735"/><path d="M248.64528,218.82149c-3.84998,0.17566 -2.95692,-4.8834 -2.95692,-4.8834l1.12964,-6.39926c0,0 0.89306,-5.05906 4.74303,-5.23472c3.84998,-0.17566 2.95692,4.8834 2.95692,4.8834l-1.12964,6.39926c0,0 -0.89306,5.05906 -4.74303,5.23472z" fill="#ff0000" stroke="none" stroke-width="0.5"/><path d="M301.68525,239.99299c-3.84289,2.41959 -4.76589,-2.0268 -4.76589,-2.0268l-1.04424,-5.03053c0,0 -0.92298,-4.44638 2.91992,-6.86599c3.84289,-2.41959 4.76589,2.0268 4.76589,2.0268l1.04424,5.03053c0,0 0.92298,4.44638 -2.91992,6.86599z" fill="#ff0000" stroke="none" stroke-width="0.5"/><path d="M248.30975,261.68424c-0.03572,-0.01519 -0.07286,-0.03192 -0.1113,-0.05008c-0.48385,0.89661 -0.95036,1.94777 -1.50821,2.59401c-1.83637,2.12735 -3.58357,4.05759 -6.10209,3.3443c-1.07999,-0.30587 -1.54958,-2.43736 -1.87766,-4.61426c-0.97657,2.00464 -2.23305,3.33869 -4.49988,2.46257c-1.14048,-0.4408 -1.93176,-2.54727 -3.28242,-3.10215l-0.84182,-1.60297c0,0 -0.3153,-1.51892 0.85002,-2.51324c0.17405,-0.87253 0.33215,-1.75962 0.89526,-2.27661c2.67365,-2.45464 4.43935,-0.56643 6.29519,0.63063c0.15282,-0.2892 0.37882,-0.58048 0.70751,-0.85105c1.4695,-1.20964 2.05237,0.41417 2.05237,0.41417c0.04614,0.13162 0.11736,0.515 0.20455,1.04409c0.964,-0.44761 1.9316,-1.5964 2.8995,-1.72802c1.33149,-0.18107 3.03958,0.79213 4.48546,1.59764c0.69133,-0.70676 1.42392,-1.15883 2.22207,-1.11449c2.17652,0.12088 2.73384,1.3787 2.72897,2.99165c1.90313,0.47353 3.78801,0.82806 5.70914,1.64506c0.40898,0.17393 0.80258,0.35922 1.1848,0.55379c0.84056,-0.51125 1.70583,-1.12716 2.33587,-0.74685c0.74994,0.45267 0.94881,1.49437 0.92912,2.70684c0.76309,0.5041 1.5302,1.02223 2.34308,1.53281c0.63563,0.39927 1.3054,0.70293 1.98171,0.96825l0.73107,-0.80686c0.49549,-0.56496 1.15315,-0.82168 1.69129,-0.59283c0.57861,0.24607 0.84873,0.98114 0.72623,1.79999l-0.09933,0.75234c1.73063,0.77204 3.19426,1.91298 3.82461,4.59891l0.02904,0.63097c0.46405,-0.07392 1.03641,0.06132 1.24301,1.05661c0.3692,1.77857 -1.16797,2.74639 -1.16797,2.74639l-0.54347,0.34218c-2.21649,1.39556 -4.37278,2.40939 -6.57031,3.50528l-1.08552,1.19805c-0.49549,0.56496 -1.15315,0.82168 -1.69129,0.59283c-0.74447,-0.3166 -0.97824,-1.44274 -0.52212,-2.51526l0.74864,-1.76038c0.35229,-1.56854 0.62623,-3.74705 1.2142,-5.62807c-2.08372,1.76101 -4.50694,3.01554 -5.88174,0.89331c-0.59917,-0.92493 -0.38708,-4.51265 -0.18819,-6.46675c-0.18762,-0.10937 -0.37619,-0.21743 -0.56598,-0.3238c-2.36422,2.29751 -6.20287,5.73909 -8.44737,4.23648c-1.22222,-0.81824 -0.86414,-4.73349 -0.86349,-7.37783c-0.72451,-0.21102 -1.45187,-0.45687 -2.18261,-0.76763z" fill="#ffffff" stroke="none" stroke-width="0.5"/></g></g></svg>