<svg version="1.1" xmlns="http://www.w3.org/2000/svg" xmlns:xlink="http://www.w3.org/1999/xlink" width="82" height="110" viewBox="0,0,82,110"><g transform="translate(-199,-125)"><g data-paper-data="{&quot;isPaintingLayer&quot;:true}" fill-rule="nonzero" stroke-linecap="butt" stroke-linejoin="miter" stroke-miterlimit="10" stroke-dasharray="" stroke-dashoffset="0" style="mix-blend-mode: normal"><path d="M200,234v-108h80v108z" fill="#00ffed" stroke="#ffffff" stroke-width="2"/><path d="M263.52662,181.74579c-2.95643,-1.50554 -3.51396,-2.33959 -5.66939,-4.47802c0,0 -1.09387,-1.09387 -0.7002,-2.42114c-0.03204,-0.20973 -0.03204,-0.34663 -0.03204,-0.34663l0.16234,0.01168c0.06543,-0.13514 0.14765,-0.27187 0.24921,-0.40936c-3.51411,-2.42704 -7.71169,-5.84355 -10.03818,-9.288c-0.59,-0.87351 -0.45767,-2.09612 -1,-3c-0.48507,-0.80845 -1.51493,-1.19155 -2,-2c-0.54233,-0.90388 -0.42153,-2.11882 -1,-3c-1.49222,-2.27311 -4.07224,-3.63525 -5.80673,-5.72936c-1.96287,-2.36983 -2.92831,-4.72529 -4.30271,-7.46694c0,0 -1.11803,-2.23607 1.11803,-3.3541c2.23607,-1.11803 3.3541,1.11803 3.3541,1.11803c1.06041,2.12676 2.12704,4.66225 3.69729,6.53306c1.12221,1.33702 5.34265,5.01126 6.19327,6.27064c0.59,0.87351 0.45767,2.09612 1,3c0.48507,0.80845 1.51493,1.19155 2,2c0.54233,0.90388 0.42153,2.11882 1,3c2.00861,3.05972 6.24609,6.24058 9.26012,8.2342l1.08504,3.97674c2.50997,2.21621 5.35605,3.22709 7.92385,5.16871c0.07309,-0.04781 0.14567,-0.09625 0.21761,-0.14545l0.61898,-0.68764c0,0 1.76777,-1.76777 3.53553,0c1.76777,1.76777 0,3.53553 0,3.53553l-1.38102,1.31236c-0.03906,0.02517 -0.07785,0.05069 -0.11636,0.07654c-0.32198,0.69984 -0.92468,1.03508 -1.42822,1.19567c-1.06782,1.06475 -1.97905,2.32201 -3.04782,3.38844c-1.06093,1.0586 -2.50715,1.65705 -3.64473,2.63281c-1.99022,1.70709 -3.51717,3.92179 -5.56464,5.55977c-0.87504,0.70003 -2.02482,1.04203 -2.81721,1.83441c-0.79238,0.79238 -1.11099,1.9614 -1.83441,2.81721c-5.17674,6.12409 -11.7042,12.03645 -18.81532,15.6511c0,0 -2.23607,1.11803 -3.3541,-1.11803c-1.11803,-2.23607 1.11803,-3.3541 1.11803,-3.3541c6.46903,-3.17066 12.5181,-8.82834 17.18468,-14.3489c0.8284,-0.98 1.25821,-2.27542 2.16559,-3.18279c0.90738,-0.90738 2.18077,-1.36397 3.18279,-2.16559c2.02784,-1.62227 3.53412,-3.82194 5.50642,-5.5113c1.01448,-0.86895 2.34078,-1.35051 3.2842,-2.29613c0.51071,-0.5119 0.82543,-1.18502 1.17894,-1.82599c-0.80818,-0.42731 -1.6761,-0.77655 -2.48297,-1.18744z" fill="#000000" stroke="none" stroke-width="0.5"/><path d="M224.625,207c-2.5,0 -2.5,-2.5 -2.5,-2.5l0.73223,-3.76777c2.39144,-2.39144 4.78487,-4.78063 7.18279,-7.16559c3.29825,-2.14764 4.8255,-4.86416 8.06321,-7.19479c1.29688,-0.93354 2.66471,-1.77291 3.90583,-2.77941c0.89645,-0.72699 1.62287,-1.64427 2.48931,-2.40678c0.26427,-0.23256 1.20511,-0.40958 0.89056,-0.56764c-0.68063,-0.34202 -1.67266,0.32661 -2.28142,-0.13127c-1.11148,-0.836 -1.53562,-2.32501 -2.41587,-3.40179c-2.46024,-3.00954 -5.11574,-5.9225 -7.19327,-9.27064c-0.71278,-1.14871 -0.88002,-2.62303 -1.74757,-3.65982c-0.73892,-0.88308 -2.09324,-1.05891 -2.89357,-1.88674c-1.02586,-1.0611 -1.79661,-2.36018 -2.47802,-3.66939c-0.86631,-1.66445 -0.29808,-3.04684 -2.06854,-3.97175c-0.93428,-0.48808 -2.10249,-0.44721 -3,-1c-0.96597,-0.59495 -1.63563,-1.57257 -2.45344,-2.35886c0,0 -1.76777,-1.76777 0,-3.53553c1.76777,-1.76777 3.53553,0 3.53553,0c2.4225,2.57064 5.23276,2.19342 7.35886,5.45344c0.62004,0.95072 0.63118,2.19116 1.11916,3.21595c0.91952,1.93105 3.26204,2.79842 4.62841,4.44387c1.04129,1.25398 1.38433,2.96064 2.25243,4.34018c1.46814,2.33309 3.08326,4.57798 4.80673,6.72936c1.21502,1.51669 2.09785,3.34618 3.58413,4.59821c1.06097,0.89375 3.25175,0.5624 3.71858,1.86873c0.62195,1.74037 -0.2673,3.78721 -1.10944,5.43236c-2.11545,4.1326 -7.33942,5.2971 -10.33059,8.42471c-0.8398,0.87811 -1.16772,2.17095 -2.02827,3.02873c-0.90883,0.90591 -2.12186,1.44373 -3.18279,2.16559c-2.26838,2.28224 -4.54189,4.5591 -6.81721,6.83441l0.73223,0.23223c0,0 0,2.5 -2.5,2.5z" fill="#000000" stroke="none" stroke-width="0.5"/></g></g></svg>